<svg version="1.1" id="Layer_1" xmlns="http://www.w3.org/2000/svg" xmlns:xlink="http://www.w3.org/1999/xlink" x="0px" y="0px"
	 width="100%" viewBox="0 0 512 512" enable-background="new 0 0 512 512" xml:space="preserve">
<path fill="#000000" opacity="1.000000" stroke="none" 
	d="
M375.000000,513.000000 
	C250.384689,513.000000 125.769371,513.000000 1.077030,513.000000 
	C1.077030,342.455017 1.077030,171.909988 1.077030,1.000000 
	C59.353722,1.000000 117.708199,1.000000 176.817703,1.284255 
	C172.705612,9.150119 167.876114,16.756390 162.937225,24.290956 
	C162.030960,25.673540 160.865829,27.531475 159.503540,27.861027 
	C152.777985,29.488016 145.940643,30.648720 139.152664,32.022884 
	C128.473877,34.184708 124.126244,46.485176 131.178314,54.651081 
	C134.184570,58.132168 137.407730,61.426819 140.389786,64.927612 
	C142.569595,67.486603 146.116043,70.163574 146.254974,72.928574 
	C146.612762,80.048477 145.544769,87.259758 144.808273,94.410004 
	C143.845810,103.754288 149.423630,112.682014 161.359818,109.056763 
	C167.149521,107.298325 172.787613,104.867950 178.235535,102.211105 
	C182.662262,100.052284 186.503830,100.127151 190.902634,102.300484 
	C196.192673,104.914146 201.754868,107.036201 207.330276,108.998787 
	C215.229630,111.779419 222.230484,108.767418 223.793137,100.742622 
	C224.961578,94.742226 223.876587,88.254036 223.448090,82.006844 
	C223.092270,76.818832 221.886673,72.010544 226.659821,67.545982 
	C231.601746,62.923565 235.557739,57.206833 239.692627,51.776608 
	C242.250656,48.417240 241.889206,39.601231 238.530396,37.277916 
	C234.570862,34.539093 229.861298,31.717129 225.261032,31.297369 
	C212.905228,30.169939 204.271927,25.060749 199.554642,13.241685 
	C197.803757,8.854864 194.561920,5.063117 192.000000,0.999998 
	C298.945038,1.000000 405.890045,1.000000 512.917542,1.000000 
	C512.917542,171.666641 512.917542,342.333313 512.922852,513.000000 
	C506.598175,513.000000 500.268127,513.000000 493.179321,512.695679 
	C493.313873,511.736420 494.139740,510.952148 495.110687,510.446381 
	C506.430603,504.549652 511.795959,494.789337 510.692688,482.541779 
	C510.103088,475.996948 506.362427,469.735992 503.822327,462.736389 
	C514.098083,450.198486 513.370667,434.060516 502.096588,422.492218 
	C513.255249,412.542358 513.639832,394.725922 504.801941,384.275391 
	C503.245117,382.434540 502.948700,380.976196 504.682281,378.450592 
	C509.616333,371.262482 512.147827,363.526367 510.168915,354.299805 
	C507.444183,341.595947 496.258057,331.998993 483.862823,331.999603 
	C459.196899,332.000854 434.530853,332.038879 409.865082,331.975952 
	C402.614471,331.957458 396.490356,327.803680 396.812317,319.128296 
	C397.448517,301.985718 397.189148,284.800201 396.941101,267.637634 
	C396.737061,253.518906 390.570129,242.134933 378.803345,234.469650 
	C366.945587,226.745117 350.870087,231.223343 346.665985,245.757065 
	C341.808411,262.549774 336.920898,279.334198 331.957001,296.095764 
	C327.039276,312.701416 322.162903,329.322510 316.929871,345.829498 
	C315.503754,350.328033 313.459045,354.887909 310.659882,358.646301 
	C301.596832,370.815125 288.566193,371.070526 275.127014,369.617493 
	C274.743286,355.744293 268.065308,350.497559 258.187164,350.152588 
	C242.040665,349.588654 225.849991,349.656433 209.697754,350.131165 
	C200.243332,350.409058 192.111450,356.601868 192.894226,367.491150 
	C193.442490,375.118195 193.000000,382.816437 193.000000,390.482880 
	C193.000000,398.250336 193.000000,406.017761 193.000000,413.777222 
	C191.963043,413.891571 191.484238,413.990570 191.005386,413.990662 
	C148.506653,413.998657 106.007812,414.048431 63.509228,413.967957 
	C51.755360,413.945679 41.285862,400.701385 44.094318,388.996277 
	C51.919868,356.380951 69.250565,330.092072 97.078201,310.989624 
	C119.605339,295.525726 144.946411,289.208801 171.823257,289.193878 
	C185.001709,289.186584 198.231888,289.915955 211.326477,292.842438 
	C236.489960,298.466156 258.638092,309.508301 277.512512,327.052124 
	C281.564240,330.818207 285.263672,334.962128 289.293060,338.753815 
	C292.733643,341.991516 299.612000,342.300018 301.461212,338.615875 
	C302.874481,335.800293 303.197418,330.533813 301.475006,328.400482 
	C296.042267,321.671753 289.899750,315.307037 283.162537,309.880890 
	C265.089233,295.324707 244.875916,284.630859 222.068817,278.767700 
	C231.331772,273.137756 239.295685,266.482971 245.544601,257.943909 
	C261.263733,236.463928 265.891144,212.839294 259.019440,187.063354 
	C254.838928,171.382217 246.437836,158.254745 234.161407,147.769531 
	C225.662689,140.510834 216.124329,134.971390 205.174454,131.910492 
	C194.575653,128.947708 184.076431,127.730423 172.974106,128.807541 
	C156.961502,130.361038 143.223114,136.704285 130.589676,146.012100 
	C127.320587,148.420639 127.321861,152.335602 128.476089,155.934769 
	C129.606033,159.458206 132.676788,160.608704 135.915451,159.883301 
	C138.759750,159.246246 141.630676,157.982208 144.058380,156.352417 
	C159.384598,146.063599 175.883316,141.704575 194.231628,145.642319 
	C210.461746,149.125473 223.514557,157.491180 233.344070,170.848846 
	C244.872879,186.515747 248.696304,204.030899 244.482330,222.902466 
	C240.979172,238.590775 232.480652,251.462387 219.418945,261.017487 
	C204.902069,271.637085 188.363129,275.483704 170.867599,272.732117 
	C155.971436,270.389313 143.169586,263.096039 133.059540,251.561111 
	C123.959747,241.178818 118.573349,229.028519 117.131081,215.439041 
	C115.949577,204.306473 117.641495,193.389740 122.358963,182.996994 
	C123.445831,180.602585 123.649460,177.361755 123.083183,174.767197 
	C122.240486,170.906143 119.113014,169.879089 115.136047,169.878464 
	C110.033035,169.877640 108.481186,173.329498 107.063896,176.941330 
	C101.361732,191.472855 98.777283,206.560379 102.185234,221.907059 
	C104.211464,231.031540 107.385445,240.073151 111.320000,248.560211 
	C116.775787,260.328613 126.335121,268.888824 136.936310,276.457062 
	C135.350647,277.039398 134.092407,277.642395 132.766068,277.967896 
	C104.126556,284.996246 80.161438,299.536438 60.623386,321.736694 
	C48.494251,335.518494 39.477196,350.966827 33.466694,368.168701 
	C29.622187,379.171570 25.859936,390.326813 28.993710,402.330811 
	C33.128395,418.168793 47.282211,429.916565 63.538582,429.961761 
	C104.870369,430.076721 146.202698,430.000000 187.534805,430.000000 
	C189.296127,430.000000 191.057449,430.000000 193.000000,430.000000 
	C193.000000,451.582977 193.218887,472.567474 192.894073,493.543579 
	C192.761047,502.134003 200.463104,509.161102 208.628616,509.061127 
	C225.292297,508.857056 241.960236,509.010376 258.626404,508.994476 
	C264.582733,508.988800 269.448151,506.926941 272.191895,501.301605 
	C273.486969,498.646332 274.545868,495.875824 275.779358,493.000000 
	C279.678101,493.000000 283.671906,493.071564 287.662354,492.987213 
	C302.444885,492.674744 317.097107,493.604828 331.310608,498.019775 
	C345.682922,502.484100 359.201202,509.731232 374.482941,511.275024 
	C374.711029,511.298065 374.830078,512.401062 375.000000,513.000000 
M344.004700,81.589050 
	C345.076447,79.152145 345.756653,76.425308 347.301666,74.338837 
	C350.499634,70.020027 354.319244,66.164810 357.575195,61.884617 
	C360.173340,58.469131 359.385651,51.514626 356.770691,48.195007 
	C352.924652,43.312508 347.215271,42.900223 341.898773,42.116859 
	C334.276642,40.993778 329.052094,37.386684 325.956360,30.308096 
	C324.744598,27.537365 322.804382,25.078699 321.141968,22.512848 
	C316.971771,16.076374 305.821960,15.827853 301.122009,22.637472 
	C298.670471,26.189419 296.516571,29.998602 294.665253,33.899025 
	C292.630341,38.186226 289.606445,40.313648 284.878510,41.126221 
	C279.543579,42.043114 274.236450,43.560600 269.173065,45.488647 
	C264.607391,47.227177 261.727570,53.942028 263.969330,58.292431 
	C266.442108,63.091110 270.074982,67.296341 273.245209,71.729591 
	C275.116211,74.345993 278.328522,76.739304 278.691498,79.525551 
	C279.236267,83.707397 277.819641,88.147652 277.217499,92.475304 
	C276.477631,97.792496 276.651245,103.100044 280.883240,106.894760 
	C285.259644,110.818977 291.069550,111.559738 295.796478,108.473778 
	C306.587982,101.428566 316.470245,102.280563 327.377533,108.496330 
	C335.272797,112.995621 345.037506,108.142204 345.763428,99.891190 
	C346.266205,94.176682 344.699493,88.280106 344.004700,81.589050 
M64.347176,107.039536 
	C65.811493,107.695251 67.232704,108.480263 68.747261,108.985306 
	C77.375465,111.862373 83.894585,108.223740 84.873276,99.345047 
	C85.405106,94.520218 84.647789,89.528244 84.232033,84.632042 
	C83.908516,80.822044 83.467300,77.376518 86.981476,74.355537 
	C90.443336,71.379524 93.482506,67.803726 96.239838,64.139458 
	C101.475708,57.181435 100.087280,46.449280 89.957657,43.971088 
	C85.910835,42.981041 81.910248,41.634911 77.804100,41.101810 
	C73.759079,40.576641 70.721664,39.306591 68.835968,35.432590 
	C67.152000,31.973015 64.819931,28.832804 63.070282,25.400557 
	C58.177944,15.803361 45.131660,14.449307 40.307137,24.088120 
	C38.013809,28.669918 35.079777,32.945335 32.241104,37.230450 
	C31.469563,38.395130 30.122793,39.528599 28.812153,39.927299 
	C22.233723,41.928490 15.387684,43.186920 9.008198,45.665245 
	C3.059094,47.976379 1.017986,57.170902 4.823500,62.202518 
	C7.092446,65.202492 9.457137,68.256317 12.302116,70.668770 
	C18.744862,76.132027 18.741003,82.787750 17.441942,90.321640 
	C16.043812,98.430054 16.230457,106.241615 24.754164,109.347786 
	C29.806778,111.189026 34.240829,109.543274 38.149162,107.203232 
	C46.755402,102.050392 55.029152,101.368958 64.347176,107.039536 
z"/>
<path fill="#FFFFFF" opacity="1.000000" stroke="none" 
	d="
M375.468658,513.000000 
	C374.830078,512.401062 374.711029,511.298065 374.482941,511.275024 
	C359.201202,509.731232 345.682922,502.484100 331.310608,498.019775 
	C317.097107,493.604828 302.444885,492.674744 287.662354,492.987213 
	C283.671906,493.071564 279.678101,493.000000 275.779358,493.000000 
	C274.545868,495.875824 273.486969,498.646332 272.191895,501.301605 
	C269.448151,506.926941 264.582733,508.988800 258.626404,508.994476 
	C241.960236,509.010376 225.292297,508.857056 208.628616,509.061127 
	C200.463104,509.161102 192.761047,502.134003 192.894073,493.543579 
	C193.218887,472.567474 193.000000,451.582977 193.000000,430.000000 
	C191.057449,430.000000 189.296127,430.000000 187.534805,430.000000 
	C146.202698,430.000000 104.870369,430.076721 63.538582,429.961761 
	C47.282211,429.916565 33.128395,418.168793 28.993710,402.330811 
	C25.859936,390.326813 29.622187,379.171570 33.466694,368.168701 
	C39.477196,350.966827 48.494251,335.518494 60.623386,321.736694 
	C80.161438,299.536438 104.126556,284.996246 132.766068,277.967896 
	C134.092407,277.642395 135.350647,277.039398 136.936310,276.457062 
	C126.335121,268.888824 116.775787,260.328613 111.320000,248.560211 
	C107.385445,240.073151 104.211464,231.031540 102.185234,221.907059 
	C98.777283,206.560379 101.361732,191.472855 107.063896,176.941330 
	C108.481186,173.329498 110.033035,169.877640 115.136047,169.878464 
	C119.113014,169.879089 122.240486,170.906143 123.083183,174.767197 
	C123.649460,177.361755 123.445831,180.602585 122.358963,182.996994 
	C117.641495,193.389740 115.949577,204.306473 117.131081,215.439041 
	C118.573349,229.028519 123.959747,241.178818 133.059540,251.561111 
	C143.169586,263.096039 155.971436,270.389313 170.867599,272.732117 
	C188.363129,275.483704 204.902069,271.637085 219.418945,261.017487 
	C232.480652,251.462387 240.979172,238.590775 244.482330,222.902466 
	C248.696304,204.030899 244.872879,186.515747 233.344070,170.848846 
	C223.514557,157.491180 210.461746,149.125473 194.231628,145.642319 
	C175.883316,141.704575 159.384598,146.063599 144.058380,156.352417 
	C141.630676,157.982208 138.759750,159.246246 135.915451,159.883301 
	C132.676788,160.608704 129.606033,159.458206 128.476089,155.934769 
	C127.321861,152.335602 127.320587,148.420639 130.589676,146.012100 
	C143.223114,136.704285 156.961502,130.361038 172.974106,128.807541 
	C184.076431,127.730423 194.575653,128.947708 205.174454,131.910492 
	C216.124329,134.971390 225.662689,140.510834 234.161407,147.769531 
	C246.437836,158.254745 254.838928,171.382217 259.019440,187.063354 
	C265.891144,212.839294 261.263733,236.463928 245.544601,257.943909 
	C239.295685,266.482971 231.331772,273.137756 222.068817,278.767700 
	C244.875916,284.630859 265.089233,295.324707 283.162537,309.880890 
	C289.899750,315.307037 296.042267,321.671753 301.475006,328.400482 
	C303.197418,330.533813 302.874481,335.800293 301.461212,338.615875 
	C299.612000,342.300018 292.733643,341.991516 289.293060,338.753815 
	C285.263672,334.962128 281.564240,330.818207 277.512512,327.052124 
	C258.638092,309.508301 236.489960,298.466156 211.326477,292.842438 
	C198.231888,289.915955 185.001709,289.186584 171.823257,289.193878 
	C144.946411,289.208801 119.605339,295.525726 97.078201,310.989624 
	C69.250565,330.092072 51.919868,356.380951 44.094318,388.996277 
	C41.285862,400.701385 51.755360,413.945679 63.509228,413.967957 
	C106.007812,414.048431 148.506653,413.998657 191.005386,413.990662 
	C191.484238,413.990570 191.963043,413.891571 193.000000,413.777222 
	C193.000000,406.017761 193.000000,398.250336 193.000000,390.482880 
	C193.000000,382.816437 193.442490,375.118195 192.894226,367.491150 
	C192.111450,356.601868 200.243332,350.409058 209.697754,350.131165 
	C225.849991,349.656433 242.040665,349.588654 258.187164,350.152588 
	C268.065308,350.497559 274.743286,355.744293 275.127014,369.617493 
	C288.566193,371.070526 301.596832,370.815125 310.659882,358.646301 
	C313.459045,354.887909 315.503754,350.328033 316.929871,345.829498 
	C322.162903,329.322510 327.039276,312.701416 331.957001,296.095764 
	C336.920898,279.334198 341.808411,262.549774 346.665985,245.757065 
	C350.870087,231.223343 366.945587,226.745117 378.803345,234.469650 
	C390.570129,242.134933 396.737061,253.518906 396.941101,267.637634 
	C397.189148,284.800201 397.448517,301.985718 396.812317,319.128296 
	C396.490356,327.803680 402.614471,331.957458 409.865082,331.975952 
	C434.530853,332.038879 459.196899,332.000854 483.862823,331.999603 
	C496.258057,331.998993 507.444183,341.595947 510.168915,354.299805 
	C512.147827,363.526367 509.616333,371.262482 504.682281,378.450592 
	C502.948700,380.976196 503.245117,382.434540 504.801941,384.275391 
	C513.639832,394.725922 513.255249,412.542358 502.096588,422.492218 
	C513.370667,434.060516 514.098083,450.198486 503.822327,462.736389 
	C506.362427,469.735992 510.103088,475.996948 510.692688,482.541779 
	C511.795959,494.789337 506.430603,504.549652 495.110687,510.446381 
	C494.139740,510.952148 493.313873,511.736420 492.710297,512.695679 
	C453.979095,513.000000 414.958221,513.000000 375.468658,513.000000 
M349.532318,292.978210 
	C348.780670,295.428711 348.011841,297.874115 347.280182,300.330566 
	C342.520447,316.309845 336.961609,332.104919 333.213470,348.318390 
	C328.236084,369.849091 309.190735,387.598328 285.662872,386.031738 
	C282.229126,385.803070 278.767029,386.000000 275.218689,386.000000 
	C275.218689,416.520264 275.218689,446.582306 275.218689,476.504364 
	C286.646942,477.009521 297.845856,477.687500 309.054565,477.953827 
	C323.178467,478.289429 336.539825,482.017731 349.439941,487.217865 
	C364.492706,493.285706 379.813782,497.171631 396.148743,497.047821 
	C420.469513,496.863434 444.792755,496.999847 469.114929,497.000183 
	C473.934601,497.000244 478.759613,496.858368 483.572632,497.037781 
	C490.583771,497.299133 495.371124,489.045471 494.890289,484.139069 
	C494.250092,477.606750 489.906555,472.334198 481.712952,472.055664 
	C474.058655,471.795471 466.388550,472.004578 458.725403,471.998535 
	C452.415955,471.993561 450.062469,469.921722 450.000031,464.339447 
	C449.938263,458.819397 452.924835,456.027283 459.002045,456.006348 
	C466.665100,455.979950 474.339905,456.263489 481.988312,455.927643 
	C490.024811,455.574768 494.612915,450.156921 494.863037,443.589752 
	C495.095612,437.481201 489.369934,430.263641 481.787750,430.791077 
	C473.289734,431.382233 464.632874,430.801544 456.134705,429.892792 
	C450.324036,429.271454 448.984833,426.546631 450.058472,419.967987 
	C450.749878,415.731201 454.133911,414.983887 457.815918,414.994019 
	C465.145813,415.014221 472.477600,415.101318 479.805328,414.973358 
	C488.252747,414.825836 495.300354,408.661011 494.968689,401.711029 
	C494.656860,395.176636 489.352753,388.514252 479.794220,388.937531 
	C472.644867,389.254150 465.470215,389.011841 458.306854,388.996399 
	C452.146912,388.983124 450.077332,387.081116 450.000000,381.421265 
	C449.926971,376.074097 452.879791,373.058472 458.420715,373.015045 
	C466.083374,372.955078 473.761505,372.704071 481.406067,373.081238 
	C489.434235,373.477325 494.767456,366.679840 494.873199,360.686829 
	C494.993378,353.879089 489.492432,347.843262 481.286774,347.921356 
	C457.799683,348.144806 434.308777,348.060303 410.820160,347.940338 
	C406.925903,347.920471 402.911072,347.580444 399.167389,346.581238 
	C388.729340,343.795319 381.010742,333.222046 381.003326,322.304596 
	C380.991058,304.312836 381.043121,286.320953 380.980621,268.329407 
	C380.952118,260.126953 377.185913,253.641098 370.997406,248.567566 
	C367.222626,245.472870 363.376129,246.833969 361.797241,251.628311 
	C359.491974,258.628479 357.173035,265.629181 355.109467,272.702454 
	C353.222412,279.170685 351.666779,285.735565 349.532318,292.978210 
M259.000000,375.533691 
	C259.000000,372.426361 259.000000,369.319000 259.000000,366.279144 
	C242.040588,366.279144 225.636078,366.279144 209.278549,366.279144 
	C209.278549,408.627594 209.278549,450.696289 209.278549,492.718994 
	C225.963181,492.718994 242.367691,492.718994 259.000000,492.718994 
	C259.000000,453.799988 259.000000,415.161530 259.000000,375.533691 
z"/>
<path fill="#FFFFFF" opacity="1.000000" stroke="none" 
	d="
M191.533875,0.999998 
	C194.561920,5.063117 197.803757,8.854864 199.554642,13.241685 
	C204.271927,25.060749 212.905228,30.169939 225.261032,31.297369 
	C229.861298,31.717129 234.570862,34.539093 238.530396,37.277916 
	C241.889206,39.601231 242.250656,48.417240 239.692627,51.776608 
	C235.557739,57.206833 231.601746,62.923565 226.659821,67.545982 
	C221.886673,72.010544 223.092270,76.818832 223.448090,82.006844 
	C223.876587,88.254036 224.961578,94.742226 223.793137,100.742622 
	C222.230484,108.767418 215.229630,111.779419 207.330276,108.998787 
	C201.754868,107.036201 196.192673,104.914146 190.902634,102.300484 
	C186.503830,100.127151 182.662262,100.052284 178.235535,102.211105 
	C172.787613,104.867950 167.149521,107.298325 161.359818,109.056763 
	C149.423630,112.682014 143.845810,103.754288 144.808273,94.410004 
	C145.544769,87.259758 146.612762,80.048477 146.254974,72.928574 
	C146.116043,70.163574 142.569595,67.486603 140.389786,64.927612 
	C137.407730,61.426819 134.184570,58.132168 131.178314,54.651081 
	C124.126244,46.485176 128.473877,34.184708 139.152664,32.022884 
	C145.940643,30.648720 152.777985,29.488016 159.503540,27.861027 
	C160.865829,27.531475 162.030960,25.673540 162.937225,24.290956 
	C167.876114,16.756390 172.705612,9.150119 177.286362,1.284255 
	C181.689255,1.000000 186.378510,1.000000 191.533875,0.999998 
M169.290558,88.966499 
	C178.310181,83.538254 187.347458,81.048721 197.162689,87.473419 
	C200.170258,89.442055 204.029541,90.109505 208.004532,91.556976 
	C207.620667,85.048363 208.027496,79.477287 206.792801,74.297493 
	C205.380188,68.371262 207.893814,64.336159 211.205093,60.371109 
	C214.880783,55.969685 218.849960,51.813351 222.975632,47.234825 
	C217.880829,46.111523 213.135040,44.734180 208.291504,44.073814 
	C200.778595,43.049503 195.480301,39.440720 192.117981,32.593193 
	C189.977936,28.234898 187.287811,24.146711 184.522339,19.382719 
	C181.277924,25.027861 178.404678,29.858431 175.700851,34.782024 
	C173.287018,39.177509 169.769501,41.926849 164.856750,43.019878 
	C158.988968,44.325397 153.152298,45.770660 146.598633,47.321911 
	C150.621307,51.982235 154.229477,56.187050 157.865326,60.367798 
	C161.739777,64.822937 164.061584,69.330559 162.303802,75.801521 
	C160.927338,80.868752 161.439362,86.448975 161.085724,92.236626 
	C163.842651,91.032425 166.168961,90.016304 169.290558,88.966499 
z"/>
<path fill="#FFFFFF" opacity="1.000000" stroke="none" 
	d="
M344.031067,82.026970 
	C344.699493,88.280106 346.266205,94.176682 345.763428,99.891190 
	C345.037506,108.142204 335.272797,112.995621 327.377533,108.496330 
	C316.470245,102.280563 306.587982,101.428566 295.796478,108.473778 
	C291.069550,111.559738 285.259644,110.818977 280.883240,106.894760 
	C276.651245,103.100044 276.477631,97.792496 277.217499,92.475304 
	C277.819641,88.147652 279.236267,83.707397 278.691498,79.525551 
	C278.328522,76.739304 275.116211,74.345993 273.245209,71.729591 
	C270.074982,67.296341 266.442108,63.091110 263.969330,58.292431 
	C261.727570,53.942028 264.607391,47.227177 269.173065,45.488647 
	C274.236450,43.560600 279.543579,42.043114 284.878510,41.126221 
	C289.606445,40.313648 292.630341,38.186226 294.665253,33.899025 
	C296.516571,29.998602 298.670471,26.189419 301.122009,22.637472 
	C305.821960,15.827853 316.971771,16.076374 321.141968,22.512848 
	C322.804382,25.078699 324.744598,27.537365 325.956360,30.308096 
	C329.052094,37.386684 334.276642,40.993778 341.898773,42.116859 
	C347.215271,42.900223 352.924652,43.312508 356.770691,48.195007 
	C359.385651,51.514626 360.173340,58.469131 357.575195,61.884617 
	C354.319244,66.164810 350.499634,70.020027 347.301666,74.338837 
	C345.756653,76.425308 345.076447,79.152145 344.031067,82.026970 
M336.910370,57.010582 
	C327.916748,55.924698 319.834351,54.134354 315.450470,44.319084 
	C312.080780,36.774418 310.964142,37.057190 307.101715,44.613327 
	C303.814728,51.043697 299.358215,55.348942 291.840057,56.068008 
	C288.946686,56.344738 286.125671,57.377689 283.593414,57.988472 
	C287.296265,63.118938 292.177734,67.529984 293.915649,72.949150 
	C295.668640,78.415329 294.301758,84.882042 294.301758,92.782890 
	C306.007935,82.635956 317.273254,84.401436 329.275024,91.621735 
	C324.964386,77.559555 328.703522,66.744888 340.244843,58.780567 
	C338.971375,57.978168 338.325287,57.571060 336.910370,57.010582 
z"/>
<path fill="#FFFFFF" opacity="1.000000" stroke="none" 
	d="
M63.945061,107.020172 
	C55.029152,101.368958 46.755402,102.050392 38.149162,107.203232 
	C34.240829,109.543274 29.806778,111.189026 24.754164,109.347786 
	C16.230457,106.241615 16.043812,98.430054 17.441942,90.321640 
	C18.741003,82.787750 18.744862,76.132027 12.302116,70.668770 
	C9.457137,68.256317 7.092446,65.202492 4.823500,62.202518 
	C1.017986,57.170902 3.059094,47.976379 9.008198,45.665245 
	C15.387684,43.186920 22.233723,41.928490 28.812153,39.927299 
	C30.122793,39.528599 31.469563,38.395130 32.241104,37.230450 
	C35.079777,32.945335 38.013809,28.669918 40.307137,24.088120 
	C45.131660,14.449307 58.177944,15.803361 63.070282,25.400557 
	C64.819931,28.832804 67.152000,31.973015 68.835968,35.432590 
	C70.721664,39.306591 73.759079,40.576641 77.804100,41.101810 
	C81.910248,41.634911 85.910835,42.981041 89.957657,43.971088 
	C100.087280,46.449280 101.475708,57.181435 96.239838,64.139458 
	C93.482506,67.803726 90.443336,71.379524 86.981476,74.355537 
	C83.467300,77.376518 83.908516,80.822044 84.232033,84.632042 
	C84.647789,89.528244 85.405106,94.520218 84.873276,99.345047 
	C83.894585,108.223740 77.375465,111.862373 68.747261,108.985306 
	C67.232704,108.480263 65.811493,107.695251 63.945061,107.020172 
M68.989555,90.830521 
	C68.823280,89.559563 68.624939,88.291840 68.495979,87.017105 
	C67.722656,79.372719 66.336601,71.636192 72.980949,65.481689 
	C75.224998,63.403076 77.159805,60.990589 80.378319,57.487183 
	C65.526794,57.169331 56.154350,50.872139 51.181423,37.388000 
	C46.481735,51.186768 36.792557,57.420132 22.543062,57.912693 
	C33.964821,66.876343 37.271126,77.836639 33.206360,91.682877 
	C36.822842,90.214775 38.929493,89.481987 40.928890,88.525085 
	C47.034039,85.603226 52.990067,83.390930 59.550236,87.750999 
	C62.291725,89.573067 65.719765,90.362160 68.989555,90.830521 
z"/>
<path fill="#000000" opacity="1.000000" stroke="none" 
	d="
M349.748718,292.618042 
	C351.666779,285.735565 353.222412,279.170685 355.109467,272.702454 
	C357.173035,265.629181 359.491974,258.628479 361.797241,251.628311 
	C363.376129,246.833969 367.222626,245.472870 370.997406,248.567566 
	C377.185913,253.641098 380.952118,260.126953 380.980621,268.329407 
	C381.043121,286.320953 380.991058,304.312836 381.003326,322.304596 
	C381.010742,333.222046 388.729340,343.795319 399.167389,346.581238 
	C402.911072,347.580444 406.925903,347.920471 410.820160,347.940338 
	C434.308777,348.060303 457.799683,348.144806 481.286774,347.921356 
	C489.492432,347.843262 494.993378,353.879089 494.873199,360.686829 
	C494.767456,366.679840 489.434235,373.477325 481.406067,373.081238 
	C473.761505,372.704071 466.083374,372.955078 458.420715,373.015045 
	C452.879791,373.058472 449.926971,376.074097 450.000000,381.421265 
	C450.077332,387.081116 452.146912,388.983124 458.306854,388.996399 
	C465.470215,389.011841 472.644867,389.254150 479.794220,388.937531 
	C489.352753,388.514252 494.656860,395.176636 494.968689,401.711029 
	C495.300354,408.661011 488.252747,414.825836 479.805328,414.973358 
	C472.477600,415.101318 465.145813,415.014221 457.815918,414.994019 
	C454.133911,414.983887 450.749878,415.731201 450.058472,419.967987 
	C448.984833,426.546631 450.324036,429.271454 456.134705,429.892792 
	C464.632874,430.801544 473.289734,431.382233 481.787750,430.791077 
	C489.369934,430.263641 495.095612,437.481201 494.863037,443.589752 
	C494.612915,450.156921 490.024811,455.574768 481.988312,455.927643 
	C474.339905,456.263489 466.665100,455.979950 459.002045,456.006348 
	C452.924835,456.027283 449.938263,458.819397 450.000031,464.339447 
	C450.062469,469.921722 452.415955,471.993561 458.725403,471.998535 
	C466.388550,472.004578 474.058655,471.795471 481.712952,472.055664 
	C489.906555,472.334198 494.250092,477.606750 494.890289,484.139069 
	C495.371124,489.045471 490.583771,497.299133 483.572632,497.037781 
	C478.759613,496.858368 473.934601,497.000244 469.114929,497.000183 
	C444.792755,496.999847 420.469513,496.863434 396.148743,497.047821 
	C379.813782,497.171631 364.492706,493.285706 349.439941,487.217865 
	C336.539825,482.017731 323.178467,478.289429 309.054565,477.953827 
	C297.845856,477.687500 286.646942,477.009521 275.218689,476.504364 
	C275.218689,446.582306 275.218689,416.520264 275.218689,386.000000 
	C278.767029,386.000000 282.229126,385.803070 285.662872,386.031738 
	C309.190735,387.598328 328.236084,369.849091 333.213470,348.318390 
	C336.961609,332.104919 342.520447,316.309845 347.280182,300.330566 
	C348.011841,297.874115 348.780670,295.428711 349.748718,292.618042 
z"/>
<path fill="#000000" opacity="1.000000" stroke="none" 
	d="
M259.000000,376.028381 
	C259.000000,415.161530 259.000000,453.799988 259.000000,492.718994 
	C242.367691,492.718994 225.963181,492.718994 209.278549,492.718994 
	C209.278549,450.696289 209.278549,408.627594 209.278549,366.279144 
	C225.636078,366.279144 242.040588,366.279144 259.000000,366.279144 
	C259.000000,369.319000 259.000000,372.426361 259.000000,376.028381 
z"/>
<path fill="#000000" opacity="1.000000" stroke="none" 
	d="
M168.892914,88.983345 
	C166.168961,90.016304 163.842651,91.032425 161.085724,92.236626 
	C161.439362,86.448975 160.927338,80.868752 162.303802,75.801521 
	C164.061584,69.330559 161.739777,64.822937 157.865326,60.367798 
	C154.229477,56.187050 150.621307,51.982235 146.598633,47.321911 
	C153.152298,45.770660 158.988968,44.325397 164.856750,43.019878 
	C169.769501,41.926849 173.287018,39.177509 175.700851,34.782024 
	C178.404678,29.858431 181.277924,25.027861 184.522339,19.382719 
	C187.287811,24.146711 189.977936,28.234898 192.117981,32.593193 
	C195.480301,39.440720 200.778595,43.049503 208.291504,44.073814 
	C213.135040,44.734180 217.880829,46.111523 222.975632,47.234825 
	C218.849960,51.813351 214.880783,55.969685 211.205093,60.371109 
	C207.893814,64.336159 205.380188,68.371262 206.792801,74.297493 
	C208.027496,79.477287 207.620667,85.048363 208.004532,91.556976 
	C204.029541,90.109505 200.170258,89.442055 197.162689,87.473419 
	C187.347458,81.048721 178.310181,83.538254 168.892914,88.983345 
z"/>
<path fill="#000000" opacity="1.000000" stroke="none" 
	d="
M337.294769,57.087265 
	C338.325287,57.571060 338.971375,57.978168 340.244843,58.780567 
	C328.703522,66.744888 324.964386,77.559555 329.275024,91.621735 
	C317.273254,84.401436 306.007935,82.635956 294.301758,92.782890 
	C294.301758,84.882042 295.668640,78.415329 293.915649,72.949150 
	C292.177734,67.529984 287.296265,63.118938 283.593414,57.988472 
	C286.125671,57.377689 288.946686,56.344738 291.840057,56.068008 
	C299.358215,55.348942 303.814728,51.043697 307.101715,44.613327 
	C310.964142,37.057190 312.080780,36.774418 315.450470,44.319084 
	C319.834351,54.134354 327.916748,55.924698 337.294769,57.087265 
z"/>
<path fill="#000000" opacity="1.000000" stroke="none" 
	d="
M68.912598,91.225723 
	C65.719765,90.362160 62.291725,89.573067 59.550236,87.750999 
	C52.990067,83.390930 47.034039,85.603226 40.928890,88.525085 
	C38.929493,89.481987 36.822842,90.214775 33.206360,91.682877 
	C37.271126,77.836639 33.964821,66.876343 22.543062,57.912693 
	C36.792557,57.420132 46.481735,51.186768 51.181423,37.388000 
	C56.154350,50.872139 65.526794,57.169331 80.378319,57.487183 
	C77.159805,60.990589 75.224998,63.403076 72.980949,65.481689 
	C66.336601,71.636192 67.722656,79.372719 68.495979,87.017105 
	C68.624939,88.291840 68.823280,89.559563 68.912598,91.225723 
z"/>
</svg>