<svg version="1.1" id="Layer_1" xmlns="http://www.w3.org/2000/svg" xmlns:xlink="http://www.w3.org/1999/xlink" x="0px" y="0px"
	 width="100%" viewBox="0 0 512 512" enable-background="new 0 0 512 512" xml:space="preserve">
<path fill="#000000" opacity="1.000000" stroke="none" 
	d="
M285.000000,1.000000 
	C360.965363,1.000000 436.930695,1.000000 512.947998,1.000000 
	C512.947998,171.554184 512.947998,342.108398 512.947998,513.000000 
	C441.312256,513.000000 369.623962,513.000000 297.159607,512.629028 
	C297.059845,511.837311 297.701172,511.126556 298.417938,511.039886 
	C307.368408,509.958069 316.390961,509.336151 325.274261,507.866547 
	C339.056671,505.586487 352.937256,503.477692 366.427917,499.960327 
	C384.392426,495.276489 402.214081,489.857269 419.735596,483.721588 
	C433.488220,478.905701 446.692322,472.523529 460.078583,466.863190 
	C459.547913,465.248810 459.132141,464.360596 458.968231,463.428131 
	C456.969269,452.055481 454.947479,440.686340 453.051666,429.296295 
	C450.939056,416.604034 448.976318,403.886841 446.897247,391.188904 
	C445.529144,382.833527 444.873688,374.255981 442.494171,366.192535 
	C436.590302,346.186279 422.658234,333.351227 403.483368,326.147797 
	C387.601959,320.181549 370.723694,320.306396 353.977844,318.693848 
	C349.327057,314.908386 345.129395,310.854889 340.203949,308.104980 
	C332.043091,303.548798 322.857697,305.036194 313.680237,305.007355 
	C311.620239,303.545532 309.857208,302.239227 308.046326,300.557373 
	C305.273499,291.448578 302.548584,282.715332 299.974274,273.665314 
	C306.761902,266.206512 314.104919,259.590759 319.898010,251.819580 
	C334.809082,231.817032 344.698944,209.268814 350.347748,185.019699 
	C352.871399,174.186188 354.041473,163.037354 356.198425,151.991165 
	C357.019836,151.509445 357.685516,151.149521 357.886047,150.615082 
	C363.740265,135.011429 367.183624,118.793411 367.790344,102.230171 
	C368.212158,90.714386 367.263245,79.056580 365.886963,67.586983 
	C363.468231,47.430153 353.696869,31.385960 336.617157,20.129513 
	C323.403931,11.421268 308.644348,6.755307 293.196716,3.904797 
	C290.381653,3.385339 287.728119,1.990655 285.000000,1.000000 
z"/>
<path fill="#000000" opacity="1.000000" stroke="none" 
	d="
M217.000000,513.000000 
	C145.032806,513.000000 73.065613,513.000000 1.049207,513.000000 
	C1.049207,342.443909 1.049207,171.887802 1.049207,1.000000 
	C77.021111,1.000000 153.042709,1.000000 229.468155,1.383373 
	C229.210419,2.168117 228.597122,2.760805 227.879913,2.941914 
	C218.430099,5.328142 208.733780,6.985783 199.559860,10.158122 
	C186.178329,14.785438 174.135101,22.190306 166.366150,34.353592 
	C161.069382,42.646351 156.898560,51.782448 153.178467,60.929523 
	C147.316589,75.342842 145.470535,90.775665 145.284958,106.136566 
	C145.170685,115.595596 147.001556,125.268120 149.323196,134.501801 
	C150.952194,140.980637 154.882156,146.880936 157.859924,153.492249 
	C158.621735,160.270859 159.214569,166.608658 160.012405,172.920517 
	C162.339066,191.326981 168.129761,208.680618 175.827377,225.501236 
	C183.723343,242.755234 194.703888,257.740326 208.108505,271.410187 
	C206.304962,281.541992 204.586258,291.239777 202.567551,301.074951 
	C200.771042,302.492523 199.274536,303.772736 197.333633,305.036682 
	C193.919266,305.015747 190.918686,304.732635 187.984726,305.055328 
	C176.370178,306.332855 165.883545,310.163666 157.392731,319.114532 
	C152.698639,319.428833 148.414566,319.571777 144.183975,320.124176 
	C134.797806,321.349823 125.103378,321.663116 116.135109,324.351501 
	C94.823502,330.739990 78.193237,343.136078 71.991966,365.727814 
	C69.332985,375.414703 68.122131,385.506805 66.391418,395.438873 
	C64.212357,407.943787 62.193726,420.476562 60.070351,432.991272 
	C58.174946,444.162537 56.231220,455.325531 54.281075,466.653290 
	C61.051071,469.707825 67.754433,472.855988 74.555016,475.777893 
	C97.164444,485.492340 120.361328,493.337982 144.314346,499.202942 
	C167.516129,504.883942 190.886642,509.040955 214.672089,511.027954 
	C215.497223,511.096832 216.226196,512.316650 217.000000,513.000000 
z"/>
<path fill="#EBF3FA" opacity="1.000000" stroke="none" 
	d="
M217.466858,513.000000 
	C216.226196,512.316650 215.497223,511.096832 214.672089,511.027954 
	C190.886642,509.040955 167.516129,504.883942 144.314346,499.202942 
	C120.361328,493.337982 97.164444,485.492340 74.555016,475.777893 
	C67.754433,472.855988 61.051071,469.707825 54.281075,466.653290 
	C56.231220,455.325531 58.174946,444.162537 60.070351,432.991272 
	C62.193726,420.476562 64.212357,407.943787 66.391418,395.438873 
	C68.122131,385.506805 69.332985,375.414703 71.991966,365.727814 
	C78.193237,343.136078 94.823502,330.739990 116.135109,324.351501 
	C125.103378,321.663116 134.797806,321.349823 144.183975,320.124176 
	C148.414566,319.571777 152.698639,319.428833 157.239624,319.393005 
	C146.935913,330.916992 142.689392,345.634521 135.530487,359.045227 
	C114.974571,362.406250 100.633530,373.127808 93.811852,392.618744 
	C92.099121,397.512390 92.415779,403.116333 91.870903,408.811279 
	C93.131935,431.972015 99.556030,451.237488 124.557510,458.651428 
	C127.951447,459.376587 131.444946,460.358765 134.513733,459.607025 
	C135.811584,459.289124 136.794128,455.333618 136.832367,453.013519 
	C136.859894,451.343323 135.273422,448.378601 134.081345,448.203125 
	C130.985291,447.747437 127.709648,448.512115 124.147903,448.843140 
	C120.022438,446.999786 115.626877,445.801025 112.601570,443.079224 
	C102.417557,433.916809 100.348045,421.547546 100.641479,408.273834 
	C101.191971,406.335663 101.548309,404.714844 101.779533,403.076324 
	C104.492111,383.854736 120.766998,369.538727 140.230560,369.274292 
	C159.148514,369.017334 175.702026,382.677948 179.151718,401.343872 
	C179.593262,403.733032 180.266815,406.079315 180.886078,408.864532 
	C180.952438,410.948547 181.041580,412.616943 180.967087,414.277954 
	C180.140656,432.703583 171.996063,444.857056 157.031738,449.468811 
	C155.099396,448.728455 153.298340,448.266632 151.468643,448.065735 
	C144.561050,447.307251 143.347198,449.914917 144.550797,457.374451 
	C144.772644,458.749420 147.936615,460.690765 149.587799,460.550323 
	C152.073792,460.338898 156.185745,463.384216 157.459473,458.023834 
	C171.913727,454.769775 180.965286,445.769958 185.144623,432.421539 
	C187.534210,424.789337 187.992538,416.552521 189.597473,408.245300 
	C189.832565,405.257782 189.790634,402.612854 190.110809,400.000732 
	C190.937607,400.203949 191.502899,400.258392 191.852554,400.561523 
	C207.623169,414.236023 223.318558,427.998016 239.163376,441.585754 
	C243.891357,445.640228 249.031662,449.213867 254.217712,453.170746 
	C255.313141,453.560303 256.173889,453.786957 257.377838,453.971588 
	C265.343964,447.588196 273.018127,441.307159 280.578552,434.892120 
	C294.087158,423.430115 307.514557,411.872528 321.003082,400.386810 
	C325.408997,396.635040 329.044769,392.838318 328.140259,386.137421 
	C327.434357,380.907959 328.145233,375.501373 327.944427,370.184174 
	C327.829987,367.153809 328.967682,365.668915 331.857452,364.848358 
	C336.326080,363.579529 340.654938,361.823456 345.111603,360.505768 
	C348.200836,359.592316 349.036499,358.265869 348.585388,354.760712 
	C347.407318,345.606873 347.014435,336.351959 346.584625,327.405396 
	C348.125824,332.428436 350.458557,337.176727 350.488617,341.939575 
	C350.751007,383.535217 350.601532,425.133484 350.277252,466.868469 
	C349.156342,467.563049 348.316132,468.097534 347.511230,468.680725 
	C341.755157,472.851135 339.703125,479.357697 342.098572,485.803741 
	C344.419006,492.047974 350.502167,495.718933 357.511383,495.104828 
	C363.941132,494.541534 369.095490,489.595398 370.161163,482.966156 
	C371.260864,476.125000 368.106354,470.563324 361.232239,467.035095 
	C361.075653,426.897156 360.890472,387.174561 361.129059,347.454498 
	C361.190521,337.218567 359.873505,327.649902 354.103943,319.011536 
	C370.723694,320.306396 387.601959,320.181549 403.483368,326.147797 
	C422.658234,333.351227 436.590302,346.186279 442.494171,366.192535 
	C444.873688,374.255981 445.529144,382.833527 446.897247,391.188904 
	C448.976318,403.886841 450.939056,416.604034 453.051666,429.296295 
	C454.947479,440.686340 456.969269,452.055481 458.968231,463.428131 
	C459.132141,464.360596 459.547913,465.248810 460.078583,466.863190 
	C446.692322,472.523529 433.488220,478.905701 419.735596,483.721588 
	C402.214081,489.857269 384.392426,495.276489 366.427917,499.960327 
	C352.937256,503.477692 339.056671,505.586487 325.274261,507.866547 
	C316.390961,509.336151 307.368408,509.958069 298.417938,511.039886 
	C297.701172,511.126556 297.059845,511.837311 296.691742,512.629028 
	C291.977905,513.000000 286.955811,513.000000 281.436066,512.704285 
	C280.292297,512.605713 279.646149,512.802856 279.000000,513.000000 
	C264.645782,513.000000 250.291550,513.000000 235.324829,512.740845 
	C234.141571,512.654480 233.570786,512.827271 233.000000,513.000000 
	C227.977905,513.000000 222.955811,513.000000 217.466858,513.000000 
z"/>
<path fill="#231F20" opacity="1.000000" stroke="none" 
	d="
M157.784592,153.039581 
	C154.882156,146.880936 150.952194,140.980637 149.323196,134.501801 
	C147.001556,125.268120 145.170685,115.595596 145.284958,106.136566 
	C145.470535,90.775665 147.316589,75.342842 153.178467,60.929523 
	C156.898560,51.782448 161.069382,42.646351 166.366150,34.353592 
	C174.135101,22.190306 186.178329,14.785438 199.559860,10.158122 
	C208.733780,6.985783 218.430099,5.328142 227.879913,2.941914 
	C228.597122,2.760805 229.210419,2.168117 229.936005,1.383373 
	C248.020889,1.000000 266.041779,1.000000 284.531342,1.000000 
	C287.728119,1.990655 290.381653,3.385339 293.196716,3.904797 
	C308.644348,6.755307 323.403931,11.421268 336.617157,20.129513 
	C353.696869,31.385960 363.468231,47.430153 365.886963,67.586983 
	C367.263245,79.056580 368.212158,90.714386 367.790344,102.230171 
	C367.183624,118.793411 363.740265,135.011429 357.886047,150.615082 
	C357.685516,151.149521 357.019836,151.509445 355.917664,151.778778 
	C347.961792,132.756897 344.483521,113.002373 341.852173,92.958649 
	C286.414246,108.172523 231.364456,106.594963 176.298569,93.127045 
	C174.641769,114.698135 166.407547,133.929214 157.784592,153.039581 
z"/>
<path fill="#C7D2DE" opacity="1.000000" stroke="none" 
	d="
M233.333344,513.000000 
	C233.570786,512.827271 234.141571,512.654480 234.856171,512.740845 
	C234.555557,513.000000 234.111099,513.000000 233.333344,513.000000 
z"/>
<path fill="#C7D2DE" opacity="1.000000" stroke="none" 
	d="
M279.333313,513.000000 
	C279.646149,512.802856 280.292297,512.605713 280.969208,512.704285 
	C280.555542,513.000000 280.111115,513.000000 279.333313,513.000000 
z"/>
<path fill="#EFC095" opacity="1.000000" stroke="none" 
	d="
M157.859924,153.492249 
	C166.407547,133.929214 174.641769,114.698135 176.298569,93.127045 
	C231.364456,106.594963 286.414246,108.172523 341.852173,92.958649 
	C344.483521,113.002373 347.961792,132.756897 355.545105,151.819229 
	C354.041473,163.037354 352.871399,174.186188 350.347748,185.019699 
	C344.698944,209.268814 334.809082,231.817032 319.898010,251.819580 
	C314.104919,259.590759 306.761902,266.206512 299.638153,273.716614 
	C290.744934,278.673828 282.803192,284.748260 273.838501,287.553070 
	C253.079956,294.047913 233.930298,288.750793 216.564865,276.144714 
	C213.918350,274.223511 210.990875,272.689331 208.193344,270.976166 
	C194.703888,257.740326 183.723343,242.755234 175.827377,225.501236 
	C168.129761,208.680618 162.339066,191.326981 160.012405,172.920517 
	C159.214569,166.608658 158.621735,160.270859 157.859924,153.492249 
z"/>
<path fill="#E2B181" opacity="1.000000" stroke="none" 
	d="
M208.108505,271.410187 
	C210.990875,272.689331 213.918350,274.223511 216.564865,276.144714 
	C233.930298,288.750793 253.079956,294.047913 273.838501,287.553070 
	C282.803192,284.748260 290.744934,278.673828 299.487518,274.033356 
	C302.548584,282.715332 305.273499,291.448578 307.847412,300.831329 
	C293.753143,317.137939 279.859314,332.839600 265.830933,348.420135 
	C262.441833,352.184235 258.608032,355.547974 254.844330,358.785339 
	C237.429138,339.295776 220.148346,320.116669 202.867554,300.937561 
	C204.586258,291.239777 206.304962,281.541992 208.108505,271.410187 
z"/>
<path fill="#646F7E" opacity="1.000000" stroke="none" 
	d="
M254.978729,359.095825 
	C258.608032,355.547974 262.441833,352.184235 265.830933,348.420135 
	C279.859314,332.839600 293.753143,317.137939 307.895325,301.206848 
	C309.857208,302.239227 311.620239,303.545532 313.854309,305.287109 
	C319.244263,309.218658 324.163177,312.714905 328.953857,316.523132 
	C322.866455,328.169983 316.940613,339.522552 310.939850,350.835419 
	C303.075500,365.661469 295.152008,380.456146 286.943298,395.072937 
	C281.058380,388.532837 275.606812,382.070709 269.871918,375.870575 
	C265.085846,370.696228 259.967804,365.828918 254.996674,360.537109 
	C254.990616,359.864288 254.984665,359.480072 254.978729,359.095825 
z"/>
<path fill="#B04D3B" opacity="1.000000" stroke="none" 
	d="
M329.082062,316.211182 
	C324.163177,312.714905 319.244263,309.218658 314.151306,305.442627 
	C322.857697,305.036194 332.043091,303.548798 340.203949,308.104980 
	C345.129395,310.854889 349.327057,314.908386 353.977844,318.693848 
	C359.873505,327.649902 361.190521,337.218567 361.129059,347.454498 
	C360.890472,387.174561 361.075653,426.897156 361.130005,467.513306 
	C361.076202,470.922150 360.995514,473.436523 360.584625,475.819275 
	C357.097565,473.287842 353.976013,473.653198 350.868103,475.359467 
	C350.764038,472.184692 350.669159,469.457825 350.574310,466.730957 
	C350.601532,425.133484 350.751007,383.535217 350.488617,341.939575 
	C350.458557,337.176727 348.125824,332.428436 346.492523,327.115479 
	C342.018402,320.514709 336.244019,317.220154 329.082062,316.211182 
z"/>
<path fill="#646F7E" opacity="1.000000" stroke="none" 
	d="
M254.844315,358.785339 
	C254.984665,359.480072 254.990616,359.864288 254.716339,360.741699 
	C251.543228,364.632080 248.689789,368.063843 245.749527,371.419495 
	C238.780090,379.373566 231.769455,387.291565 224.519958,394.988464 
	C210.842529,368.817474 197.420609,342.882141 184.165771,316.660095 
	C188.814590,312.599884 193.296326,308.826416 197.778046,305.052948 
	C199.274536,303.772736 200.771042,302.492523 202.567551,301.074951 
	C220.148346,320.116669 237.429138,339.295776 254.844315,358.785339 
z"/>
<path fill="#B14F3E" opacity="1.000000" stroke="none" 
	d="
M197.333649,305.036682 
	C193.296326,308.826416 188.814590,312.599884 183.784241,316.696472 
	C177.796036,319.925323 172.356445,322.831024 166.603271,325.879272 
	C156.682434,334.852448 153.402756,347.282715 147.897079,358.442810 
	C147.735718,358.769867 148.129684,359.370850 147.844055,359.780853 
	C143.587723,359.465851 139.752060,359.214111 135.916397,358.962341 
	C142.689392,345.634521 146.935913,330.916992 157.673920,319.407471 
	C165.883545,310.163666 176.370178,306.332855 187.984726,305.055328 
	C190.918686,304.732635 193.919266,305.015747 197.333649,305.036682 
z"/>
<path fill="#D9E3F3" opacity="1.000000" stroke="none" 
	d="
M328.953857,316.523132 
	C336.244019,317.220154 342.018402,320.514709 346.216370,326.847473 
	C347.014435,336.351959 347.407318,345.606873 348.585388,354.760712 
	C349.036499,358.265869 348.200836,359.592316 345.111603,360.505768 
	C340.654938,361.823456 336.326080,363.579529 331.857452,364.848358 
	C328.967682,365.668915 327.829987,367.153809 327.944427,370.184174 
	C328.145233,375.501373 327.434357,380.907959 328.140259,386.137421 
	C329.044769,392.838318 325.408997,396.635040 321.003082,400.386810 
	C307.514557,411.872528 294.087158,423.430115 280.578552,434.892120 
	C273.018127,441.307159 265.343964,447.588196 257.405701,453.615387 
	C267.144928,433.955566 277.199432,414.609955 287.253967,395.264313 
	C295.152008,380.456146 303.075500,365.661469 310.939850,350.835419 
	C316.940613,339.522552 322.866455,328.169983 328.953857,316.523132 
z"/>
<path fill="#D9E3F3" opacity="1.000000" stroke="none" 
	d="
M166.916870,325.736725 
	C172.356445,322.831024 177.796036,319.925323 183.617157,316.983215 
	C197.420609,342.882141 210.842529,368.817474 224.621399,395.323761 
	C231.500687,408.563690 238.056564,421.215546 244.531189,433.908813 
	C247.758560,440.235992 250.837158,446.639069 253.983047,453.007812 
	C249.031662,449.213867 243.891357,445.640228 239.163376,441.585754 
	C223.318558,427.998016 207.623169,414.236023 191.852554,400.561523 
	C191.502899,400.258392 190.937607,400.203949 189.904694,399.695007 
	C187.564148,394.209137 185.791809,389.061737 184.007004,383.452515 
	C183.997253,381.994904 184.001724,380.999146 184.002441,380.003357 
	C184.012451,366.187256 184.012329,366.187256 171.064651,361.880066 
	C163.597946,359.396179 163.117691,358.033325 164.307846,350.290314 
	C165.556915,342.164093 166.077774,333.925964 166.916870,325.736725 
z"/>
<path fill="#8493A7" opacity="1.000000" stroke="none" 
	d="
M254.217712,453.170746 
	C250.837158,446.639069 247.758560,440.235992 244.531189,433.908813 
	C238.056564,421.215546 231.500687,408.563690 224.876923,395.559448 
	C231.769455,387.291565 238.780090,379.373566 245.749527,371.419495 
	C248.689789,368.063843 251.543228,364.632080 254.716446,361.030273 
	C259.967804,365.828918 265.085846,370.696228 269.871918,375.870575 
	C275.606812,382.070709 281.058380,388.532837 286.943298,395.072937 
	C277.199432,414.609955 267.144928,433.955566 257.062500,453.657410 
	C256.173889,453.786957 255.313141,453.560303 254.217712,453.170746 
z"/>
<path fill="#A43726" opacity="1.000000" stroke="none" 
	d="
M184.019470,383.914337 
	C185.791809,389.061737 187.564148,394.209137 189.542603,399.662231 
	C189.790634,402.612854 189.832565,405.257782 189.146179,408.082336 
	C185.889526,408.323151 183.361206,408.384308 180.832886,408.445465 
	C180.266815,406.079315 179.593262,403.733032 179.151718,401.343872 
	C175.702026,382.677948 159.148514,369.017334 140.230560,369.274292 
	C120.766998,369.538727 104.492111,383.854736 101.779533,403.076324 
	C101.548309,404.714844 101.191971,406.335663 100.187042,408.094208 
	C96.920135,408.280396 94.359955,408.337097 91.799774,408.393799 
	C92.415779,403.116333 92.099121,397.512390 93.811852,392.618744 
	C100.633530,373.127808 114.974571,362.406250 135.530487,359.045258 
	C139.752060,359.214111 143.587723,359.465851 148.239456,359.769714 
	C150.359192,360.057831 151.682434,360.216644 152.963516,360.541626 
	C166.574692,363.994507 176.477066,372.389893 184.019470,383.914337 
z"/>
<path fill="#848487" opacity="1.000000" stroke="none" 
	d="
M91.870895,408.811279 
	C94.359955,408.337097 96.920135,408.280396 99.934769,408.403320 
	C100.348045,421.547546 102.417557,433.916809 112.601570,443.079224 
	C115.626877,445.801025 120.022438,446.999786 124.260651,449.302979 
	C124.649231,452.542145 124.567284,455.374756 124.485336,458.207367 
	C99.556030,451.237488 93.131935,431.972015 91.870895,408.811279 
z"/>
<path fill="#848487" opacity="1.000000" stroke="none" 
	d="
M180.886078,408.864532 
	C183.361206,408.384308 185.889526,408.323151 188.869141,408.424957 
	C187.992538,416.552521 187.534210,424.789337 185.144623,432.421539 
	C180.965286,445.769958 171.913727,454.769775 157.425262,457.569092 
	C157.058899,454.736847 157.104385,452.301971 157.149857,449.867126 
	C171.996063,444.857056 180.140656,432.703583 180.967087,414.277954 
	C181.041580,412.616943 180.952438,410.948547 180.886078,408.864532 
z"/>
<path fill="#948B8D" opacity="1.000000" stroke="none" 
	d="
M350.277252,466.868469 
	C350.669159,469.457825 350.764038,472.184692 350.699219,475.691833 
	C350.523254,479.242798 349.592834,482.539337 350.786346,484.614014 
	C351.704498,486.210144 355.411133,487.133545 357.672272,486.829224 
	C362.196381,486.220215 363.319580,481.727631 360.914825,475.950867 
	C360.995514,473.436523 361.076202,470.922150 361.259155,467.929565 
	C368.106354,470.563324 371.260864,476.125000 370.161163,482.966156 
	C369.095490,489.595398 363.941132,494.541534 357.511383,495.104828 
	C350.502167,495.718933 344.419006,492.047974 342.098572,485.803741 
	C339.703125,479.357697 341.755157,472.851135 347.511230,468.680725 
	C348.316132,468.097534 349.156342,467.563049 350.277252,466.868469 
z"/>
<path fill="#2F2C2D" opacity="1.000000" stroke="none" 
	d="
M157.031738,449.468811 
	C157.104385,452.301971 157.058899,454.736847 157.047607,457.626465 
	C156.185745,463.384216 152.073792,460.338898 149.587799,460.550323 
	C147.936615,460.690765 144.772644,458.749420 144.550797,457.374451 
	C143.347198,449.914917 144.561050,447.307251 151.468643,448.065735 
	C153.298340,448.266632 155.099396,448.728455 157.031738,449.468811 
z"/>
<path fill="#252122" opacity="1.000000" stroke="none" 
	d="
M124.557510,458.651428 
	C124.567284,455.374756 124.649231,452.542145 124.618423,449.249664 
	C127.709648,448.512115 130.985291,447.747437 134.081345,448.203125 
	C135.273422,448.378601 136.859894,451.343323 136.832367,453.013519 
	C136.794128,455.333618 135.811584,459.289124 134.513733,459.607025 
	C131.444946,460.358765 127.951447,459.376587 124.557510,458.651428 
z"/>
<path fill="#262122" opacity="1.000000" stroke="none" 
	d="
M360.584625,475.819275 
	C363.319580,481.727631 362.196381,486.220215 357.672272,486.829224 
	C355.411133,487.133545 351.704498,486.210144 350.786346,484.614014 
	C349.592834,482.539337 350.523254,479.242798 350.708435,476.139771 
	C353.976013,473.653198 357.097565,473.287842 360.584625,475.819275 
z"/>
<path fill="#EBF1F8" opacity="1.000000" stroke="none" 
	d="
M184.007004,383.452515 
	C176.477066,372.389893 166.574692,363.994507 152.963516,360.541626 
	C151.682434,360.216644 150.359192,360.057831 148.660126,359.832977 
	C148.129684,359.370850 147.735718,358.769867 147.897079,358.442810 
	C153.402756,347.282715 156.682434,334.852448 166.603271,325.879272 
	C166.077774,333.925964 165.556915,342.164093 164.307846,350.290314 
	C163.117691,358.033325 163.597946,359.396179 171.064651,361.880066 
	C184.012329,366.187256 184.012451,366.187256 184.002441,380.003357 
	C184.001724,380.999146 183.997253,381.994904 184.007004,383.452515 
z"/>
</svg>