<svg version="1.1" id="Layer_1" xmlns="http://www.w3.org/2000/svg" xmlns:xlink="http://www.w3.org/1999/xlink" x="0px" y="0px"
	 width="100%" viewBox="0 0 512 512" enable-background="new 0 0 512 512" xml:space="preserve">
<path fill="#FFFFFF" opacity="1.000000" stroke="none" 
	d="
M347.000000,513.000000 
	C334.979095,513.000000 322.958221,513.000000 310.767761,512.649658 
	C310.106171,511.879913 309.661774,511.173187 309.115295,511.082672 
	C291.009125,508.083221 274.700256,500.980225 260.233398,489.698700 
	C257.774200,487.780945 255.846176,488.131439 253.458115,489.981964 
	C239.372177,500.897675 223.411545,507.655182 205.964584,511.068604 
	C205.212540,511.215729 204.650528,512.334045 204.000000,513.000000 
	C191.979111,513.000000 179.958206,513.000000 167.468658,512.531372 
	C167.000000,489.786407 167.000000,467.510162 167.000000,444.689148 
	C147.501678,453.432129 127.443481,453.829590 107.000000,452.694611 
	C107.000000,417.737762 106.800323,383.104248 107.179863,348.477112 
	C107.250069,342.071625 104.991043,337.582825 100.886490,333.395050 
	C100.070763,332.562805 99.097481,331.845764 98.436447,330.906921 
	C88.435143,316.702972 78.688103,302.440735 71.578720,286.382019 
	C61.240425,263.029877 55.237267,238.675644 54.282360,213.368454 
	C53.728485,198.689590 55.389378,183.831055 57.148350,169.184845 
	C59.463558,149.907135 65.893654,131.643845 74.416389,114.294479 
	C86.836037,89.012314 103.883018,67.247536 125.431267,48.900219 
	C141.824814,34.941902 159.841629,23.900419 179.689621,15.760500 
	C194.924118,9.512640 210.601776,4.831746 227.032516,2.923068 
	C227.753098,2.839361 228.347061,1.665865 229.000000,1.000003 
	C247.354233,1.000000 265.708466,1.000000 284.229919,1.364940 
	C285.067200,2.147649 285.691437,2.808744 286.414429,2.944638 
	C292.128998,4.018733 297.911835,4.770936 303.581909,6.033958 
	C337.001617,13.478285 366.459290,28.956163 391.899933,51.598507 
	C413.383270,70.718742 430.423523,93.371040 442.050018,119.952187 
	C455.909149,151.637558 462.156219,184.452469 459.146820,219.087433 
	C457.961609,232.727966 455.718628,246.001892 452.102722,259.190796 
	C444.346283,287.482086 430.824829,312.588562 411.714905,334.745667 
	C408.658386,338.289551 406.813385,341.820343 406.855682,346.914246 
	C407.134979,380.558380 407.000000,414.205933 407.000000,447.852386 
	C407.000000,449.463623 407.000000,451.074860 407.000000,452.728485 
	C386.378082,453.780457 366.411194,453.428436 347.000000,444.672211 
	C347.000000,467.811371 347.000000,490.405670 347.000000,513.000000 
M423.038269,160.290253 
	C419.700317,150.616608 417.139313,140.584854 412.877014,131.337234 
	C400.676819,104.867126 382.845154,82.850555 359.161041,65.557091 
	C327.469360,42.416706 292.377258,30.852190 252.954254,31.851561 
	C233.062012,32.355827 214.001587,35.874458 195.523117,43.003498 
	C174.623535,51.066608 155.848587,62.634552 139.587906,78.015106 
	C122.051865,94.601997 108.476685,113.959038 98.839195,136.258438 
	C90.435005,155.704224 86.300926,175.947632 85.117790,196.875824 
	C84.710236,204.085052 85.299210,211.411758 86.091156,218.612411 
	C87.118423,227.952698 88.009949,237.426041 90.353889,246.481277 
	C97.417686,273.770477 110.765167,297.926300 129.523193,318.890503 
	C141.781570,332.590607 156.101303,344.013885 172.209396,352.991394 
	C199.827026,368.383514 229.268478,376.024719 261.120544,375.189911 
	C281.036163,374.667938 300.075287,371.056549 318.536987,363.968170 
	C339.439972,355.942474 358.198578,344.325500 374.468781,328.943146 
	C392.016632,312.352875 405.558350,292.963257 415.147736,270.664307 
	C423.436615,251.389542 427.766418,231.323425 428.908997,210.555634 
	C429.830414,193.806625 427.828308,177.247818 423.038269,160.290253 
M316.562805,480.888855 
	C316.708527,479.255920 316.979126,477.623108 316.981171,475.989990 
	C317.009155,453.677307 317.000000,431.364594 317.000000,409.051880 
	C317.000000,405.415314 317.000000,401.778778 317.000000,397.721771 
	C276.894012,409.185516 237.185562,409.139252 197.239136,397.773285 
	C197.239136,425.694275 197.239136,453.254272 197.239136,481.105804 
	C222.115768,476.963867 240.672119,462.851746 257.004333,444.107269 
	C273.102570,462.662811 291.521362,476.495850 316.562805,480.888855 
M137.000000,404.498169 
	C137.000000,409.956024 137.000000,415.413910 137.000000,422.228882 
	C147.540894,418.387787 157.271622,414.841919 166.890717,411.336731 
	C166.890717,402.228882 166.890717,393.765503 166.890717,386.045197 
	C156.786697,379.959564 147.088669,374.118469 137.000000,368.042084 
	C137.000000,380.006134 137.000000,391.752380 137.000000,404.498169 
M377.000000,390.500031 
	C377.000000,383.009705 377.000000,375.519379 377.000000,368.056030 
	C366.723389,374.236328 357.108093,380.018890 347.115509,386.028351 
	C347.115509,393.792267 347.115509,402.253967 347.115509,410.639618 
	C356.645660,415.303467 366.166199,419.567841 377.000000,421.089417 
	C377.000000,410.763306 377.000000,401.131653 377.000000,390.500031 
z"/>
<path fill="#000000" opacity="1.000000" stroke="none" 
	d="
M347.468658,513.000000 
	C347.000000,490.405670 347.000000,467.811371 347.000000,444.672211 
	C366.411194,453.428436 386.378082,453.780457 407.000000,452.728485 
	C407.000000,451.074860 407.000000,449.463623 407.000000,447.852386 
	C407.000000,414.205933 407.134979,380.558380 406.855682,346.914246 
	C406.813385,341.820343 408.658386,338.289551 411.714905,334.745667 
	C430.824829,312.588562 444.346283,287.482086 452.102722,259.190796 
	C455.718628,246.001892 457.961609,232.727966 459.146820,219.087433 
	C462.156219,184.452469 455.909149,151.637558 442.050018,119.952187 
	C430.423523,93.371040 413.383270,70.718742 391.899933,51.598507 
	C366.459290,28.956163 337.001617,13.478285 303.581909,6.033958 
	C297.911835,4.770936 292.128998,4.018733 286.414429,2.944638 
	C285.691437,2.808744 285.067200,2.147649 284.698608,1.364940 
	C360.963287,1.000000 436.926605,1.000000 512.944946,1.000000 
	C512.944946,171.547531 512.944946,342.095093 512.944946,513.000000 
	C457.979614,513.000000 402.958466,513.000000 347.468658,513.000000 
z"/>
<path fill="#000000" opacity="1.000000" stroke="none" 
	d="
M228.531342,1.000003 
	C228.347061,1.665865 227.753098,2.839361 227.032516,2.923068 
	C210.601776,4.831746 194.924118,9.512640 179.689621,15.760500 
	C159.841629,23.900419 141.824814,34.941902 125.431267,48.900219 
	C103.883018,67.247536 86.836037,89.012314 74.416389,114.294479 
	C65.893654,131.643845 59.463558,149.907135 57.148350,169.184845 
	C55.389378,183.831055 53.728485,198.689590 54.282360,213.368454 
	C55.237267,238.675644 61.240425,263.029877 71.578720,286.382019 
	C78.688103,302.440735 88.435143,316.702972 98.436447,330.906921 
	C99.097481,331.845764 100.070763,332.562805 100.886490,333.395050 
	C104.991043,337.582825 107.250069,342.071625 107.179863,348.477112 
	C106.800323,383.104248 107.000000,417.737762 107.000000,452.694611 
	C127.443481,453.829590 147.501678,453.432129 167.000000,444.689148 
	C167.000000,467.510162 167.000000,489.786407 167.000000,512.531372 
	C111.693398,513.000000 56.386787,513.000000 1.040092,513.000000 
	C1.040092,342.442505 1.040092,171.885010 1.040092,1.000000 
	C76.687248,1.000000 152.374969,1.000000 228.531342,1.000003 
z"/>
<path fill="#000000" opacity="1.000000" stroke="none" 
	d="
M204.468658,513.000000 
	C204.650528,512.334045 205.212540,511.215729 205.964584,511.068604 
	C223.411545,507.655182 239.372177,500.897675 253.458115,489.981964 
	C255.846176,488.131439 257.774200,487.780945 260.233398,489.698700 
	C274.700256,500.980225 291.009125,508.083221 309.115295,511.082672 
	C309.661774,511.173187 310.106171,511.879913 310.299072,512.649658 
	C274.979095,513.000000 239.958206,513.000000 204.468658,513.000000 
z"/>
<path fill="#000000" opacity="1.000000" stroke="none" 
	d="
M423.272461,160.647888 
	C427.828308,177.247818 429.830414,193.806625 428.908997,210.555634 
	C427.766418,231.323425 423.436615,251.389542 415.147736,270.664307 
	C405.558350,292.963257 392.016632,312.352875 374.468781,328.943146 
	C358.198578,344.325500 339.439972,355.942474 318.536987,363.968170 
	C300.075287,371.056549 281.036163,374.667938 261.120544,375.189911 
	C229.268478,376.024719 199.827026,368.383514 172.209396,352.991394 
	C156.101303,344.013885 141.781570,332.590607 129.523193,318.890503 
	C110.765167,297.926300 97.417686,273.770477 90.353889,246.481277 
	C88.009949,237.426041 87.118423,227.952698 86.091156,218.612411 
	C85.299210,211.411758 84.710236,204.085052 85.117790,196.875824 
	C86.300926,175.947632 90.435005,155.704224 98.839195,136.258438 
	C108.476685,113.959038 122.051865,94.601997 139.587906,78.015106 
	C155.848587,62.634552 174.623535,51.066608 195.523117,43.003498 
	C214.001587,35.874458 233.062012,32.355827 252.954254,31.851561 
	C292.377258,30.852190 327.469360,42.416706 359.161041,65.557091 
	C382.845154,82.850555 400.676819,104.867126 412.877014,131.337234 
	C417.139313,140.584854 419.700317,150.616608 423.272461,160.647888 
M271.037384,85.427101 
	C266.540253,77.181664 262.043121,68.936218 257.031769,59.748020 
	C253.822159,65.491661 251.144302,70.187691 248.555847,74.932495 
	C237.699493,94.832825 226.823257,114.722610 216.064056,134.675430 
	C213.446671,139.529388 210.829330,143.208694 204.212616,143.265884 
	C198.361755,143.316452 192.540924,145.528336 186.685745,146.678513 
	C175.751480,148.826401 164.809464,150.936615 153.856598,152.987381 
	C143.009140,155.018417 132.144302,156.956757 120.845154,159.016327 
	C121.924118,160.681229 122.475189,161.890808 123.337440,162.807755 
	C134.781189,174.977539 146.247025,187.126770 157.752533,199.238190 
	C165.855377,207.767731 174.080627,216.181946 182.104004,224.784943 
	C183.178986,225.937607 184.027985,227.952499 183.895142,229.473206 
	C183.100525,238.569778 182.141739,247.658890 180.947876,256.712250 
	C178.738174,273.468964 176.288162,290.193848 174.031845,306.944641 
	C173.502045,310.877930 173.345367,314.861511 172.959015,319.521729 
	C182.905121,314.883606 192.068420,310.661804 201.187622,306.346832 
	C217.596252,298.582733 233.980988,290.768036 250.369766,282.962067 
	C254.078659,281.195526 257.392731,279.659760 261.892181,281.870270 
	C284.528442,292.991333 307.345551,303.744873 330.124847,314.573486 
	C333.549744,316.201599 337.110046,317.544800 340.957428,319.167236 
	C340.957428,317.083679 341.136383,315.409180 340.928101,313.784332 
	C339.667847,303.952118 338.330017,294.129730 336.996674,284.306946 
	C335.794250,275.448669 334.497559,266.602692 333.364990,257.735626 
	C332.167816,248.362762 331.036987,238.979370 330.083496,229.579666 
	C329.938049,228.145798 330.473083,226.199356 331.426239,225.165771 
	C341.618408,214.113159 351.908539,203.149384 362.272430,192.257019 
	C371.532257,182.525024 380.936432,172.930466 390.223969,163.224579 
	C391.290588,162.109894 392.017059,160.669708 392.986511,159.256088 
	C390.863647,158.777420 389.150391,158.329025 387.413483,158.009567 
	C376.128418,155.933990 364.830780,153.926193 353.551483,151.820038 
	C337.993103,148.914856 322.431610,146.020447 306.914490,142.906921 
	C304.806519,142.483948 302.054443,141.324020 301.110779,139.652679 
	C291.072571,121.873009 281.339691,103.920944 271.037384,85.427101 
z"/>
<path fill="#000000" opacity="1.000000" stroke="none" 
	d="
M316.113068,480.940308 
	C291.521362,476.495850 273.102570,462.662811 257.004333,444.107269 
	C240.672119,462.851746 222.115768,476.963867 197.239136,481.105804 
	C197.239136,453.254272 197.239136,425.694275 197.239136,397.773285 
	C237.185562,409.139252 276.894012,409.185516 317.000000,397.721771 
	C317.000000,401.778778 317.000000,405.415314 317.000000,409.051880 
	C317.000000,431.364594 317.009155,453.677307 316.981171,475.989990 
	C316.979126,477.623108 316.708527,479.255920 316.113068,480.940308 
z"/>
<path fill="#000000" opacity="1.000000" stroke="none" 
	d="
M137.000000,403.998413 
	C137.000000,391.752380 137.000000,380.006134 137.000000,368.042084 
	C147.088669,374.118469 156.786697,379.959564 166.890717,386.045197 
	C166.890717,393.765503 166.890717,402.228882 166.890717,411.336731 
	C157.271622,414.841919 147.540894,418.387787 137.000000,422.228882 
	C137.000000,415.413910 137.000000,409.956024 137.000000,403.998413 
z"/>
<path fill="#000000" opacity="1.000000" stroke="none" 
	d="
M377.000000,391.000031 
	C377.000000,401.131653 377.000000,410.763306 377.000000,421.089417 
	C366.166199,419.567841 356.645660,415.303467 347.115509,410.639618 
	C347.115509,402.253967 347.115509,393.792267 347.115509,386.028351 
	C357.108093,380.018890 366.723389,374.236328 377.000000,368.056030 
	C377.000000,375.519379 377.000000,383.009705 377.000000,391.000031 
z"/>
<path fill="#FFFFFF" opacity="1.000000" stroke="none" 
	d="
M271.280121,85.721695 
	C281.339691,103.920944 291.072571,121.873009 301.110779,139.652679 
	C302.054443,141.324020 304.806519,142.483948 306.914490,142.906921 
	C322.431610,146.020447 337.993103,148.914856 353.551483,151.820038 
	C364.830780,153.926193 376.128418,155.933990 387.413483,158.009567 
	C389.150391,158.329025 390.863647,158.777420 392.986511,159.256088 
	C392.017059,160.669708 391.290588,162.109894 390.223969,163.224579 
	C380.936432,172.930466 371.532257,182.525024 362.272430,192.257019 
	C351.908539,203.149384 341.618408,214.113159 331.426239,225.165771 
	C330.473083,226.199356 329.938049,228.145798 330.083496,229.579666 
	C331.036987,238.979370 332.167816,248.362762 333.364990,257.735626 
	C334.497559,266.602692 335.794250,275.448669 336.996674,284.306946 
	C338.330017,294.129730 339.667847,303.952118 340.928101,313.784332 
	C341.136383,315.409180 340.957428,317.083679 340.957428,319.167236 
	C337.110046,317.544800 333.549744,316.201599 330.124847,314.573486 
	C307.345551,303.744873 284.528442,292.991333 261.892181,281.870270 
	C257.392731,279.659760 254.078659,281.195526 250.369766,282.962067 
	C233.980988,290.768036 217.596252,298.582733 201.187622,306.346832 
	C192.068420,310.661804 182.905121,314.883606 172.959015,319.521729 
	C173.345367,314.861511 173.502045,310.877930 174.031845,306.944641 
	C176.288162,290.193848 178.738174,273.468964 180.947876,256.712250 
	C182.141739,247.658890 183.100525,238.569778 183.895142,229.473206 
	C184.027985,227.952499 183.178986,225.937607 182.104004,224.784943 
	C174.080627,216.181946 165.855377,207.767731 157.752533,199.238190 
	C146.247025,187.126770 134.781189,174.977539 123.337440,162.807755 
	C122.475189,161.890808 121.924118,160.681229 120.845154,159.016327 
	C132.144302,156.956757 143.009140,155.018417 153.856598,152.987381 
	C164.809464,150.936615 175.751480,148.826401 186.685745,146.678513 
	C192.540924,145.528336 198.361755,143.316452 204.212616,143.265884 
	C210.829330,143.208694 213.446671,139.529388 216.064056,134.675430 
	C226.823257,114.722610 237.699493,94.832825 248.555847,74.932495 
	C251.144302,70.187691 253.822159,65.491661 257.031769,59.748020 
	C262.043121,68.936218 266.540253,77.181664 271.280121,85.721695 
M195.008896,192.515091 
	C201.511765,199.340683 208.217575,205.990402 214.384796,213.106873 
	C216.074142,215.056244 216.460419,218.360321 216.854691,221.126816 
	C217.114929,222.952866 216.284119,224.923676 216.006851,226.839081 
	C215.123032,232.944656 214.210999,239.047058 213.420029,245.164932 
	C212.529922,252.049500 211.759521,258.949554 210.878189,266.336182 
	C212.438858,265.850128 213.387970,265.671692 214.233673,265.273590 
	C226.859131,259.330505 239.378235,253.146133 252.160202,247.563095 
	C254.882996,246.373795 258.988190,246.332657 261.704926,247.504669 
	C272.016052,251.952957 281.995972,257.164124 292.149628,261.984955 
	C295.512268,263.581512 299.025330,264.861389 302.707092,266.384277 
	C302.871216,265.136047 303.046112,264.637512 302.982117,264.171814 
	C301.016602,249.864258 298.833252,235.581863 297.215149,221.235611 
	C296.911224,218.540894 298.065155,214.876556 299.885803,212.882797 
	C309.158356,202.728485 318.875916,192.980728 328.422638,183.076157 
	C329.401978,182.060120 330.281281,180.947708 331.867065,179.118713 
	C314.406372,175.817673 297.816040,172.681198 281.400085,169.577682 
	C274.270386,156.434494 267.170624,143.281815 259.997345,130.169342 
	C258.246796,126.969467 255.774841,127.038330 253.982727,130.313599 
	C246.812637,143.417725 239.700500,156.553589 232.599823,169.617172 
	C216.036499,172.757355 199.433273,175.905106 181.363907,179.330811 
	C186.630493,184.408569 190.571777,188.208557 195.008896,192.515091 
z"/>
<path fill="#000000" opacity="1.000000" stroke="none" 
	d="
M194.760986,192.261810 
	C190.571777,188.208557 186.630493,184.408569 181.363907,179.330811 
	C199.433273,175.905106 216.036499,172.757355 232.599823,169.617172 
	C239.700500,156.553589 246.812637,143.417725 253.982727,130.313599 
	C255.774841,127.038330 258.246796,126.969467 259.997345,130.169342 
	C267.170624,143.281815 274.270386,156.434494 281.400085,169.577682 
	C297.816040,172.681198 314.406372,175.817673 331.867065,179.118713 
	C330.281281,180.947708 329.401978,182.060120 328.422638,183.076157 
	C318.875916,192.980728 309.158356,202.728485 299.885803,212.882797 
	C298.065155,214.876556 296.911224,218.540894 297.215149,221.235611 
	C298.833252,235.581863 301.016602,249.864258 302.982117,264.171814 
	C303.046112,264.637512 302.871216,265.136047 302.707092,266.384277 
	C299.025330,264.861389 295.512268,263.581512 292.149628,261.984955 
	C281.995972,257.164124 272.016052,251.952957 261.704926,247.504669 
	C258.988190,246.332657 254.882996,246.373795 252.160202,247.563095 
	C239.378235,253.146133 226.859131,259.330505 214.233673,265.273590 
	C213.387970,265.671692 212.438858,265.850128 210.878189,266.336182 
	C211.759521,258.949554 212.529922,252.049500 213.420029,245.164932 
	C214.210999,239.047058 215.123032,232.944656 216.006851,226.839081 
	C216.284119,224.923676 217.114929,222.952866 216.854691,221.126816 
	C216.460419,218.360321 216.074142,215.056244 214.384796,213.106873 
	C208.217575,205.990402 201.511765,199.340683 194.760986,192.261810 
z"/>
</svg>