<svg version="1.1" id="Layer_1" xmlns="http://www.w3.org/2000/svg" xmlns:xlink="http://www.w3.org/1999/xlink" x="0px" y="0px"
	 width="100%" viewBox="0 0 512 512" enable-background="new 0 0 512 512" xml:space="preserve">
<path fill="#000000" opacity="1.000000" stroke="none" 
	d="
M513.000000,198.000000 
	C513.000000,303.307739 513.000000,408.115479 513.000000,512.961609 
	C342.400574,512.961609 171.801163,512.961609 1.100867,512.961609 
	C1.100867,342.442291 1.100867,171.884491 1.100867,1.163351 
	C171.666534,1.163351 342.333252,1.163351 513.000000,1.163351 
	C513.000000,66.532135 513.000000,132.016068 513.000000,198.000000 
M269.500000,149.001495 
	C298.593109,149.001495 327.686188,149.001495 356.706085,149.001495 
	C356.706085,130.016602 356.706085,111.613235 356.706085,93.288574 
	C250.014893,93.288574 143.619324,93.288574 37.293941,93.288574 
	C37.293941,111.983490 37.293941,130.386856 37.293941,149.001495 
	C114.559464,149.001495 191.529724,149.001495 269.500000,149.001495 
M252.999496,193.342285 
	C252.999496,181.264908 252.999496,169.187546 252.999496,157.317841 
	C188.597610,157.317841 124.888489,157.317841 61.290733,157.317841 
	C61.290733,218.679077 61.290733,279.722504 61.290733,340.721008 
	C98.635406,340.721008 135.689148,340.721008 172.999542,340.721008 
	C172.999542,338.638123 172.999542,336.831451 172.999542,335.024780 
	C172.999542,291.551147 172.998062,248.077499 173.001007,204.603851 
	C173.001495,197.445816 173.452835,197.001968 180.699768,197.000824 
	C203.352707,196.997284 226.005692,197.021988 248.658447,196.956512 
	C250.455704,196.951324 253.437210,198.251953 252.999496,193.342285 
M371.465576,244.999329 
	C374.572235,244.999329 377.678925,244.999329 380.711609,244.999329 
	C380.711609,231.364944 380.711609,218.295380 380.711609,205.283951 
	C314.028564,205.283951 247.633575,205.283951 181.290253,205.283951 
	C181.290253,218.638901 181.290253,231.708496 181.290253,244.999329 
	C244.545181,244.999329 307.510773,244.999329 371.465576,244.999329 
M302.500000,357.000214 
	C355.069489,357.000214 407.639008,357.000214 460.398804,357.000214 
	C460.398804,348.812317 460.398804,341.079803 460.398804,333.225586 
	C393.763367,333.225586 327.397705,333.225586 260.903442,333.225586 
	C260.903442,341.176300 260.903442,348.899658 260.903442,357.000214 
	C274.590576,357.000214 288.045288,357.000214 302.500000,357.000214 
M376.371460,196.999222 
	C377.811340,196.999222 379.251190,196.999222 380.725861,196.999222 
	C380.725861,183.412094 380.725861,170.351349 380.725861,157.266571 
	C340.737183,157.266571 301.022522,157.266571 261.277893,157.266571 
	C261.277893,170.595245 261.277893,183.656189 261.277893,196.999237 
	C299.500580,196.999237 337.446838,196.999237 376.371460,196.999222 
M88.999084,391.767944 
	C89.485420,389.060699 87.905029,388.895477 85.808975,388.962799 
	C82.519928,389.068329 80.964256,387.297852 80.990990,384.015106 
	C81.028961,379.351105 81.020790,374.686432 80.993706,370.022247 
	C80.974869,366.779510 82.453445,365.007416 85.780518,365.006531 
	C106.603378,365.000946 127.426239,365.003693 148.249100,365.004333 
	C151.613022,365.004456 153.025345,366.828766 153.004562,370.044098 
	C152.981949,373.542175 153.001083,377.040558 153.000504,380.538788 
	C152.999191,388.463531 152.970047,388.496643 145.222870,389.396484 
	C145.222870,399.804077 145.222870,410.221893 145.222870,420.773071 
	C154.513382,420.773071 163.580566,420.773071 172.776810,420.773071 
	C172.776810,396.817749 172.776810,373.089111 172.776810,349.212341 
	C135.496887,349.212341 98.439690,349.212341 61.208637,349.212341 
	C61.208637,373.152802 61.208637,396.881409 61.208637,420.787292 
	C70.484184,420.787292 79.551331,420.787292 88.999290,420.787292 
	C88.999290,411.294067 88.999290,402.007629 88.999084,391.767944 
M176.521347,477.000702 
	C228.037567,477.000702 279.553772,477.000702 331.070007,477.000702 
	C330.621155,475.958618 330.084229,475.653168 329.518066,475.418182 
	C305.867828,465.601288 282.225769,455.764496 258.540741,446.032318 
	C256.764801,445.302582 254.679794,445.044037 252.737747,445.041107 
	C215.577118,444.984619 178.416412,444.999298 141.255707,444.999329 
	C140.128571,444.999329 139.001434,444.999359 137.802780,444.999359 
	C138.852859,450.167877 140.928848,453.322510 146.606201,453.978333 
	C149.989410,454.369110 153.431595,456.568176 156.289856,458.701202 
	C162.202637,463.113770 164.523666,469.664886 165.280777,477.000702 
	C168.895248,477.000702 172.212708,477.000702 176.521347,477.000702 
M300.500000,428.996918 
	C287.672211,428.996918 274.844391,428.997131 262.016602,428.996857 
	C253.003998,428.996674 253.003693,428.996368 253.003174,420.217010 
	C253.002731,412.753967 253.003098,405.290924 253.003098,397.579651 
	C228.887573,397.579651 205.156860,397.579651 181.234528,397.579651 
	C181.234528,410.875397 181.234528,423.950439 181.234528,437.150513 
	C182.096359,437.223907 182.733032,437.325531 183.369690,437.325592 
	C256.338196,437.334167 329.306732,437.336609 402.275238,437.324493 
	C403.432434,437.324310 404.684906,437.394867 405.731537,437.002197 
	C412.919800,434.305573 420.065002,431.494080 426.508484,428.996918 
	C385.445007,428.996918 343.472504,428.996918 300.500000,428.996918 
M310.500000,268.998535 
	C293.926361,268.998535 277.352722,268.998535 260.826477,268.998535 
	C260.826477,287.970306 260.826477,306.252167 260.826477,324.632324 
	C324.802124,324.632324 388.616455,324.632324 452.454346,324.632324 
	C452.454346,306.001160 452.454346,287.739929 452.454346,268.998535 
	C405.326355,268.998535 358.413177,268.998535 310.500000,268.998535 
M300.500000,421.003967 
	C343.099060,421.003967 385.698151,421.003967 428.338074,421.003967 
	C428.338074,402.014191 428.338074,383.616180 428.338074,365.371765 
	C372.268646,365.371765 316.539337,365.371765 260.889008,365.371765 
	C260.889008,384.026001 260.889008,402.303650 260.889008,421.003967 
	C273.906372,421.003967 286.703186,421.003967 300.500000,421.003967 
M385.438873,447.816010 
	C384.101562,449.876526 381.841522,451.836578 381.604034,454.016846 
	C380.954132,459.983582 377.721924,461.132355 372.416443,461.118286 
	C363.380249,461.094299 356.873993,468.004608 357.165527,476.721954 
	C396.911469,476.721954 436.663391,476.721954 476.684265,476.721954 
	C475.407196,465.353180 470.701691,456.028229 462.472931,448.653809 
	C446.508362,434.346741 425.611389,433.188385 407.292999,445.593170 
	C404.176117,447.703857 401.746582,448.411194 398.266266,446.357605 
	C394.210297,443.964325 389.920776,444.667175 385.438873,447.816010 
M141.969299,461.287933 
	C136.456146,461.914124 133.224777,460.574158 132.232758,454.031616 
	C131.108505,446.617218 122.336517,442.683197 115.332741,446.037506 
	C111.386108,447.927582 108.706985,447.259827 105.373375,445.021942 
	C95.583153,438.449585 84.765816,436.237244 73.040108,437.898102 
	C54.508514,440.523010 37.663006,458.803253 37.536785,476.881104 
	C77.238876,476.881104 116.939018,476.881104 156.658173,476.881104 
	C156.153000,468.340790 151.796356,463.581665 141.969299,461.287933 
M252.999329,313.510345 
	C252.999329,309.408875 252.999329,305.307373 252.999329,301.286865 
	C228.691025,301.286865 204.960968,301.286865 181.289581,301.286865 
	C181.289581,314.642303 181.289581,327.709534 181.289581,340.712830 
	C205.309647,340.712830 229.039703,340.712830 252.999329,340.712830 
	C252.999329,331.788116 252.999329,323.148102 252.999329,313.510345 
M252.999542,362.508118 
	C252.999542,358.075745 252.999542,353.643341 252.999542,349.289795 
	C228.686996,349.289795 204.960663,349.289795 181.293488,349.289795 
	C181.293488,362.645905 181.293488,375.710663 181.293488,388.709717 
	C205.313965,388.709717 229.040298,388.709717 252.999542,388.709717 
	C252.999542,380.116180 252.999542,371.810516 252.999542,362.508118 
M70.500000,84.998901 
	C173.913406,84.998901 277.326813,84.998901 380.606812,84.998901 
	C380.606812,81.948692 380.606812,79.560944 380.606812,77.244385 
	C265.959564,77.244385 151.703949,77.244385 37.299393,77.244385 
	C37.299393,79.878693 37.299393,82.264145 37.299393,84.998901 
	C48.228825,84.998901 58.864414,84.998901 70.500000,84.998901 
M199.500641,292.999573 
	C217.235397,292.999573 234.970154,292.999573 252.748596,292.999573 
	C252.748596,284.755859 252.748596,277.030090 252.748596,268.999023 
	C249.043518,268.999023 245.581619,268.968231 242.120514,269.007568 
	C238.598358,269.047607 236.922714,267.377777 236.986618,263.835632 
	C237.051102,260.260254 237.000793,256.682800 237.000793,253.317810 
	C217.926544,253.317810 199.550934,253.317810 181.299973,253.317810 
	C181.299973,266.687836 181.299973,279.738708 181.299973,292.999573 
	C187.232376,292.999573 192.866821,292.999573 199.500641,292.999573 
M266.500122,260.999023 
	C336.580444,260.999023 406.660767,260.999023 476.606934,260.999023 
	C476.606934,257.948639 476.606934,255.561020 476.606934,253.244476 
	C399.292877,253.244476 322.370361,253.244476 245.299255,253.244476 
	C245.299255,255.880096 245.299255,258.264557 245.299255,260.999023 
	C252.228058,260.999023 258.864136,260.999023 266.500122,260.999023 
M241.542770,37.000694 
	C238.771332,37.000694 235.999893,37.000694 233.280365,37.000694 
	C233.280365,47.957943 233.280365,58.358295 233.280365,68.720627 
	C249.292725,68.720627 265.023834,68.720627 280.718262,68.720627 
	C280.718262,58.039253 280.718262,47.638851 280.718262,37.000694 
	C267.803741,37.000694 255.169067,37.000694 241.542770,37.000694 
M141.500000,428.998535 
	C123.939384,428.998535 106.378769,428.998535 89.113129,428.998535 
	C94.112686,430.901978 99.111397,432.960175 104.220734,434.692078 
	C107.272041,435.726318 110.489807,436.864258 113.644714,436.900024 
	C131.943420,437.107605 150.245682,437.006531 168.546722,436.991699 
	C169.984314,436.990540 171.421799,436.850647 172.696411,436.783813 
	C172.696411,433.993652 172.696411,431.589355 172.696411,428.998535 
	C162.428253,428.998535 152.464127,428.998535 141.500000,428.998535 
M112.997383,418.285400 
	C112.997383,408.577179 112.997383,398.868927 112.997383,389.380402 
	C107.219360,389.380402 102.170471,389.380402 97.370102,389.380402 
	C97.370102,400.124786 97.370102,410.486877 97.370102,420.997559 
	C101.877777,420.997559 106.022453,421.105408 110.153671,420.917572 
	C111.120651,420.873596 112.042076,419.827972 112.997383,418.285400 
M121.000778,410.476257 
	C121.000778,413.897430 121.000778,417.318604 121.000778,420.676392 
	C126.663536,420.676392 131.705414,420.676392 136.691040,420.676392 
	C136.691040,409.994049 136.691040,399.637329 136.691040,389.323608 
	C131.336380,389.323608 126.294495,389.323608 121.000778,389.323608 
	C121.000778,396.256927 121.000778,402.869232 121.000778,410.476257 
M111.500046,380.999268 
	C122.590355,380.999268 133.680664,380.999268 144.699356,380.999268 
	C144.699356,378.028717 144.699356,375.629883 144.699356,373.282166 
	C126.010750,373.282166 107.623299,373.282166 89.300369,373.282166 
	C89.300369,375.973877 89.300369,378.370148 89.300369,380.999268 
	C96.564857,380.999268 103.532486,380.999268 111.500046,380.999268 
M54.615219,435.774414 
	C59.737446,433.556580 64.859673,431.338745 69.617485,429.278717 
	C59.045738,429.278717 48.109383,429.278717 37.439171,429.278717 
	C37.439171,431.641052 37.439171,433.713165 37.439171,435.980927 
	C43.146667,435.980927 48.460938,435.980927 54.615219,435.774414 
z"/>
<path fill="#F0F0F1" opacity="1.000000" stroke="none" 
	d="
M269.000000,149.001495 
	C191.529724,149.001495 114.559464,149.001495 37.293941,149.001495 
	C37.293941,130.386856 37.293941,111.983490 37.293941,93.288574 
	C143.619324,93.288574 250.014893,93.288574 356.706085,93.288574 
	C356.706085,111.613235 356.706085,130.016602 356.706085,149.001495 
	C327.686188,149.001495 298.593109,149.001495 269.000000,149.001495 
M151.459778,111.118614 
	C150.282883,110.200615 149.195267,109.127235 147.913879,108.391106 
	C141.882523,104.926186 133.237503,106.132111 128.532654,111.002045 
	C124.296776,115.386536 123.581299,123.069077 126.895432,128.581833 
	C130.934967,135.301239 140.919373,137.542313 148.070984,133.334839 
	C155.664948,128.867126 157.176453,120.398117 151.459778,111.118614 
M114.004028,130.402679 
	C114.004028,131.859802 114.004028,133.316925 114.004028,135.061890 
	C116.039276,134.962738 117.605263,134.886444 119.183472,134.809570 
	C119.183472,125.384430 119.183472,116.313576 119.183472,107.272850 
	C117.354744,107.272850 115.792961,107.272850 113.781906,107.272850 
	C113.781906,111.130867 113.781906,114.698341 113.781906,118.050095 
	C108.919273,118.050095 104.520592,118.050095 99.804642,118.050095 
	C99.804642,114.277229 99.804642,110.841209 99.804642,107.340080 
	C97.778305,107.340080 96.094322,107.340080 94.530106,107.340080 
	C94.530106,116.749908 94.530106,125.790894 94.530106,135.088608 
	C96.471375,134.974518 98.049026,134.881805 100.056717,134.763809 
	C100.056717,130.680023 100.056717,126.948502 100.056717,123.290901 
	C104.925957,123.290901 109.333817,123.290901 114.004021,123.290901 
	C114.004021,125.518051 114.004021,127.484245 114.004028,130.402679 
M192.509430,106.555618 
	C190.237595,106.555618 187.965744,106.555618 185.556000,106.555618 
	C185.556000,116.263298 185.556000,125.334404 185.556000,134.660553 
	C187.362991,134.660553 188.926437,134.660553 190.781067,134.660553 
	C190.897690,132.080414 191.006821,129.665802 191.113678,127.301277 
	C194.808609,126.887291 198.304337,126.836769 201.622894,126.044281 
	C206.671600,124.838615 209.370499,120.731331 209.006805,115.709969 
	C208.665604,110.999580 205.511948,107.705467 200.365997,106.963448 
	C198.076172,106.633263 195.731995,106.680038 192.509430,106.555618 
M246.632538,133.198776 
	C247.310593,133.807983 248.190018,135.048523 248.629074,134.908493 
	C249.967712,134.481491 251.913849,133.761078 252.231232,132.727386 
	C253.348145,129.089645 255.671646,128.339752 259.020721,128.698395 
	C260.996216,128.909927 263.070221,128.450592 264.991486,128.834961 
	C266.360474,129.108826 268.346619,130.038681 268.675659,131.102951 
	C269.909088,135.092499 272.360992,135.760345 276.251526,134.560165 
	C272.346283,125.932732 268.530273,117.311684 264.473419,108.805519 
	C264.017212,107.848923 262.134735,106.961990 261.028625,107.084106 
	C259.715881,107.229027 257.916840,108.211342 257.383911,109.332420 
	C253.751312,116.973900 250.396454,124.747391 246.632538,133.198776 
M166.349503,111.394615 
	C170.037125,111.394615 173.724731,111.394615 178.235489,111.394615 
	C178.228592,111.412407 178.739105,110.093414 179.289642,108.671036 
	C174.480484,106.257484 169.947647,105.345406 165.034592,106.887230 
	C161.343597,108.045555 158.963058,110.215652 158.672241,114.217247 
	C158.368912,118.390869 160.747253,120.677872 164.392838,121.892128 
	C166.747086,122.676285 169.295929,122.989311 171.512009,124.034248 
	C172.921494,124.698860 173.881042,126.317711 175.042343,127.508675 
	C173.714798,128.556351 172.344238,130.531174 171.068008,130.471985 
	C167.697296,130.315613 164.366241,129.283295 161.022812,128.583405 
	C160.574356,128.489532 160.145569,128.301620 159.459518,128.075439 
	C158.937027,129.467972 158.455002,130.752625 157.388184,133.595856 
	C163.238403,134.091354 168.230331,135.026794 173.159256,134.766983 
	C176.998260,134.564621 179.793457,131.994049 180.205994,127.643501 
	C180.604034,123.445854 178.407578,121.095749 174.762299,119.814560 
	C172.119019,118.885544 169.344666,118.312698 166.738785,117.298393 
	C163.753235,116.136314 162.684723,114.317497 166.349503,111.394615 
M282.761139,135.035889 
	C288.398315,135.035889 294.035461,135.035889 299.551941,135.035889 
	C300.516785,131.184265 298.944153,130.155228 295.728943,130.313522 
	C292.289886,130.482849 288.835999,130.351685 284.936218,130.351685 
	C284.936218,122.284470 284.936218,114.696617 284.936218,106.892189 
	C282.857666,107.010353 281.260162,107.101166 279.302063,107.212486 
	C279.302063,115.799736 279.225494,124.100159 279.412354,132.394653 
	C279.432587,133.292236 280.978333,134.155441 282.761139,135.035889 
M238.055878,120.525192 
	C238.055878,117.607536 238.055878,114.689873 238.055878,111.837433 
	C247.843369,111.129501 247.843369,111.129501 246.778137,107.177551 
	C238.983566,107.177551 231.209625,107.177551 223.175659,107.177551 
	C223.261230,108.636253 223.333206,109.863022 223.423477,111.401825 
	C226.655151,111.401825 229.612534,111.401825 233.081451,111.401825 
	C233.081451,119.446373 233.081451,127.177536 233.081451,135.088455 
	C235.017624,134.963852 236.428574,134.873047 238.055878,134.768326 
	C238.055878,130.114044 238.055878,125.815483 238.055878,120.525192 
M214.071106,129.359070 
	C214.071106,131.153030 214.071106,132.946976 214.071106,134.850327 
	C216.110016,134.850327 217.684814,134.850327 219.394836,134.850327 
	C219.394836,125.495163 219.394836,116.406258 219.394836,107.227417 
	C217.555664,107.227417 215.981979,107.227417 214.071106,107.227417 
	C214.071106,114.459961 214.071106,121.427032 214.071106,129.359070 
z"/>
<path fill="#E6E7E8" opacity="1.000000" stroke="none" 
	d="
M252.999268,193.827072 
	C253.437210,198.251953 250.455704,196.951324 248.658447,196.956512 
	C226.005692,197.021988 203.352707,196.997284 180.699768,197.000824 
	C173.452835,197.001968 173.001495,197.445816 173.001007,204.603851 
	C172.998062,248.077499 172.999542,291.551147 172.999542,335.024780 
	C172.999542,336.831451 172.999542,338.638123 172.999542,340.721008 
	C135.689148,340.721008 98.635406,340.721008 61.290733,340.721008 
	C61.290733,279.722504 61.290733,218.679077 61.290733,157.317841 
	C124.888489,157.317841 188.597610,157.317841 252.999496,157.317841 
	C252.999496,169.187546 252.999496,181.264908 252.999268,193.827072 
M88.571709,196.996902 
	C87.405571,196.996902 86.239441,196.996323 85.073303,196.997025 
	C77.234215,197.001724 76.997566,197.240097 76.997368,205.227112 
	C76.996330,245.375488 76.994377,285.523865 76.999298,325.672241 
	C77.000145,332.534241 77.477264,332.999542 84.464287,333.001068 
	C108.953133,333.006317 133.441971,333.008484 157.930817,332.999329 
	C164.240265,332.996979 164.995209,332.292145 164.996948,326.256378 
	C165.008728,285.441650 165.008194,244.626892 164.997574,203.812149 
	C164.995987,197.694595 164.277023,197.003738 158.019623,197.000946 
	C135.196686,196.990753 112.373756,196.996902 88.571709,196.996902 
M232.041595,165.000977 
	C219.887924,165.000504 207.734222,164.983612 195.580597,165.006714 
	C189.793045,165.017731 189.032639,165.817368 189.003387,171.718948 
	C188.983597,175.714584 189.061890,179.711624 188.981949,183.705750 
	C188.912094,187.196030 190.422836,189.008423 193.999832,189.004395 
	C206.652954,188.990158 219.306122,188.988815 231.959229,189.005920 
	C235.193893,189.010284 236.977264,187.548035 236.990158,184.226151 
	C237.008896,179.398087 237.342468,174.530975 236.808914,169.762527 
	C236.618240,168.058380 234.295868,166.592758 232.041595,165.000977 
M147.522247,164.999542 
	C144.361023,165.000015 141.199600,165.022659 138.038635,164.994812 
	C134.807770,164.966339 133.019684,166.432129 133.008713,169.759506 
	C132.992798,174.584442 133.005295,179.409470 133.004135,184.234467 
	C133.003326,187.587433 134.808777,189.006897 138.023529,189.003845 
	C150.668396,188.991821 163.313278,188.986786 175.958115,189.006683 
	C179.530716,189.012299 181.062195,187.209991 181.013199,183.733200 
	C180.954559,179.574539 180.818207,175.404343 181.047791,171.257538 
	C181.316879,166.397156 179.105133,164.818893 174.469437,164.936539 
	C165.823257,165.155991 157.167526,164.999542 147.522247,164.999542 
M120.041542,188.998871 
	C123.302536,189.023773 124.992706,187.439117 124.995461,184.145020 
	C124.999504,179.317490 125.019600,174.489777 124.983681,169.662506 
	C124.961273,166.650894 123.434990,165.015320 120.368446,165.012054 
	C107.550476,164.998383 94.732475,165.006958 81.914490,164.999115 
	C78.638680,164.997101 76.997040,166.602081 77.000694,169.887772 
	C77.005501,174.215927 77.165253,178.552139 76.954391,182.870026 
	C76.732452,187.414703 78.684105,189.113281 83.163223,189.054245 
	C95.146812,188.896317 107.133850,189.000397 120.041542,188.998871 
z"/>
<path fill="#F1F1F2" opacity="1.000000" stroke="none" 
	d="
M370.970978,244.999329 
	C307.510773,244.999329 244.545181,244.999329 181.290253,244.999329 
	C181.290253,231.708496 181.290253,218.638901 181.290253,205.283951 
	C247.633575,205.283951 314.028564,205.283951 380.711609,205.283951 
	C380.711609,218.295380 380.711609,231.364944 380.711609,244.999329 
	C377.678925,244.999329 374.572235,244.999329 370.970978,244.999329 
z"/>
<path fill="#E6E7E8" opacity="1.000000" stroke="none" 
	d="
M302.000000,357.000214 
	C288.045288,357.000214 274.590576,357.000214 260.903442,357.000214 
	C260.903442,348.899658 260.903442,341.176300 260.903442,333.225586 
	C327.397705,333.225586 393.763367,333.225586 460.398804,333.225586 
	C460.398804,341.079803 460.398804,348.812317 460.398804,357.000214 
	C407.639008,357.000214 355.069489,357.000214 302.000000,357.000214 
z"/>
<path fill="#D0D2D3" opacity="1.000000" stroke="none" 
	d="
M375.882263,196.999237 
	C337.446838,196.999237 299.500580,196.999237 261.277893,196.999237 
	C261.277893,183.656189 261.277893,170.595245 261.277893,157.266571 
	C301.022522,157.266571 340.737183,157.266571 380.725861,157.266571 
	C380.725861,170.351349 380.725861,183.412094 380.725861,196.999222 
	C379.251190,196.999222 377.811340,196.999222 375.882263,196.999237 
z"/>
<path fill="#F1F1F2" opacity="1.000000" stroke="none" 
	d="
M88.999191,392.244568 
	C88.999290,402.007629 88.999290,411.294067 88.999290,420.787292 
	C79.551331,420.787292 70.484184,420.787292 61.208637,420.787292 
	C61.208637,396.881409 61.208637,373.152802 61.208637,349.212341 
	C98.439690,349.212341 135.496887,349.212341 172.776810,349.212341 
	C172.776810,373.089111 172.776810,396.817749 172.776810,420.773071 
	C163.580566,420.773071 154.513382,420.773071 145.222870,420.773071 
	C145.222870,410.221893 145.222870,399.804077 145.222870,389.396484 
	C152.970047,388.496643 152.999191,388.463531 153.000504,380.538788 
	C153.001083,377.040558 152.981949,373.542175 153.004562,370.044098 
	C153.025345,366.828766 151.613022,365.004456 148.249100,365.004333 
	C127.426239,365.003693 106.603378,365.000946 85.780518,365.006531 
	C82.453445,365.007416 80.974869,366.779510 80.993706,370.022247 
	C81.020790,374.686432 81.028961,379.351105 80.990990,384.015106 
	C80.964256,387.297852 82.519928,389.068329 85.808975,388.962799 
	C87.905029,388.895477 89.485420,389.060699 88.999191,392.244568 
z"/>
<path fill="#A5A7AA" opacity="1.000000" stroke="none" 
	d="
M176.025757,477.000702 
	C172.212708,477.000702 168.895248,477.000702 165.280777,477.000702 
	C164.523666,469.664886 162.202637,463.113770 156.289856,458.701202 
	C153.431595,456.568176 149.989410,454.369110 146.606201,453.978333 
	C140.928848,453.322510 138.852859,450.167877 137.802780,444.999359 
	C139.001434,444.999359 140.128571,444.999329 141.255707,444.999329 
	C178.416412,444.999298 215.577118,444.984619 252.737747,445.041107 
	C254.679794,445.044037 256.764801,445.302582 258.540741,446.032318 
	C282.225769,455.764496 305.867828,465.601288 329.518066,475.418182 
	C330.084229,475.653168 330.621155,475.958618 331.070007,477.000702 
	C279.553772,477.000702 228.037567,477.000702 176.025757,477.000702 
z"/>
<path fill="#EFEFF0" opacity="1.000000" stroke="none" 
	d="
M301.000000,428.996918 
	C343.472504,428.996918 385.445007,428.996918 426.508484,428.996918 
	C420.065002,431.494080 412.919800,434.305573 405.731537,437.002197 
	C404.684906,437.394867 403.432434,437.324310 402.275238,437.324493 
	C329.306732,437.336609 256.338196,437.334167 183.369690,437.325592 
	C182.733032,437.325531 182.096359,437.223907 181.234528,437.150513 
	C181.234528,423.950439 181.234528,410.875397 181.234528,397.579651 
	C205.156860,397.579651 228.887573,397.579651 253.003098,397.579651 
	C253.003098,405.290924 253.002731,412.753967 253.003174,420.217010 
	C253.003693,428.996368 253.003998,428.996674 262.016602,428.996857 
	C274.844391,428.997131 287.672211,428.996918 301.000000,428.996918 
z"/>
<path fill="#F0F0F1" opacity="1.000000" stroke="none" 
	d="
M311.000000,268.998535 
	C358.413177,268.998535 405.326355,268.998535 452.454346,268.998535 
	C452.454346,287.739929 452.454346,306.001160 452.454346,324.632324 
	C388.616455,324.632324 324.802124,324.632324 260.826477,324.632324 
	C260.826477,306.252167 260.826477,287.970306 260.826477,268.998535 
	C277.352722,268.998535 293.926361,268.998535 311.000000,268.998535 
M419.499969,276.999054 
	C374.524445,276.999054 329.548889,276.997620 284.573364,277.000549 
	C277.412994,277.001007 277.003632,277.423553 277.000061,284.725739 
	C276.995758,293.554260 277.085541,302.384003 276.959900,311.210754 
	C276.903625,315.163452 278.401764,317.033295 282.504852,317.029785 
	C334.809662,316.985168 387.114532,316.984283 439.419342,317.031830 
	C443.491516,317.035522 445.081146,315.241241 445.035675,311.267181 
	C444.927094,301.773621 444.904877,292.276520 445.043701,282.783752 
	C445.107178,278.441498 443.192352,276.836151 438.988617,276.954468 
	C432.830200,277.127777 426.663239,276.999054 419.499969,276.999054 
z"/>
<path fill="#CED0D1" opacity="1.000000" stroke="none" 
	d="
M300.000000,421.003967 
	C286.703186,421.003967 273.906372,421.003967 260.889008,421.003967 
	C260.889008,402.303650 260.889008,384.026001 260.889008,365.371765 
	C316.539337,365.371765 372.268646,365.371765 428.338074,365.371765 
	C428.338074,383.616180 428.338074,402.014191 428.338074,421.003967 
	C385.698151,421.003967 343.099060,421.003967 300.000000,421.003967 
M284.734802,373.001068 
	C277.382935,373.048676 277.007690,373.410797 277.002594,380.583557 
	C276.996307,389.414001 277.109650,398.246368 276.954529,407.074097 
	C276.879456,411.345154 278.618469,413.046631 282.885193,413.039948 
	C326.037720,412.972260 369.190399,412.967407 412.342865,413.047119 
	C416.619659,413.055023 418.381378,411.392456 418.317871,407.134064 
	C418.186157,398.305573 418.286469,389.473724 418.276306,380.643280 
	C418.267944,373.373352 417.895142,373.002716 410.640869,373.002289 
	C368.987762,372.999847 327.334686,373.001099 284.734802,373.001068 
z"/>
<path fill="#61BA46" opacity="1.000000" stroke="none" 
	d="
M385.726074,447.563934 
	C389.920776,444.667175 394.210297,443.964325 398.266266,446.357605 
	C401.746582,448.411194 404.176117,447.703857 407.292999,445.593170 
	C425.611389,433.188385 446.508362,434.346741 462.472931,448.653809 
	C470.701691,456.028229 475.407196,465.353180 476.684265,476.721954 
	C436.663391,476.721954 396.911469,476.721954 357.165527,476.721954 
	C356.873993,468.004608 363.380249,461.094299 372.416443,461.118286 
	C377.721924,461.132355 380.954132,459.983582 381.604034,454.016846 
	C381.841522,451.836578 384.101562,449.876526 385.726074,447.563934 
z"/>
<path fill="#61BA46" opacity="1.000000" stroke="none" 
	d="
M142.381363,461.355530 
	C151.796356,463.581665 156.153000,468.340790 156.658173,476.881104 
	C116.939018,476.881104 77.238876,476.881104 37.536785,476.881104 
	C37.663006,458.803253 54.508514,440.523010 73.040108,437.898102 
	C84.765816,436.237244 95.583153,438.449585 105.373375,445.021942 
	C108.706985,447.259827 111.386108,447.927582 115.332741,446.037506 
	C122.336517,442.683197 131.108505,446.617218 132.232758,454.031616 
	C133.224777,460.574158 136.456146,461.914124 142.381363,461.355530 
z"/>
<path fill="#F1F1F2" opacity="1.000000" stroke="none" 
	d="
M252.999329,314.009216 
	C252.999329,323.148102 252.999329,331.788116 252.999329,340.712830 
	C229.039703,340.712830 205.309647,340.712830 181.289581,340.712830 
	C181.289581,327.709534 181.289581,314.642303 181.289581,301.286865 
	C204.960968,301.286865 228.691025,301.286865 252.999329,301.286865 
	C252.999329,305.307373 252.999329,309.408875 252.999329,314.009216 
z"/>
<path fill="#E6E7E8" opacity="1.000000" stroke="none" 
	d="
M252.999542,363.006470 
	C252.999542,371.810516 252.999542,380.116180 252.999542,388.709717 
	C229.040298,388.709717 205.313965,388.709717 181.293488,388.709717 
	C181.293488,375.710663 181.293488,362.645905 181.293488,349.289795 
	C204.960663,349.289795 228.686996,349.289795 252.999542,349.289795 
	C252.999542,353.643341 252.999542,358.075745 252.999542,363.006470 
z"/>
<path fill="#929497" opacity="1.000000" stroke="none" 
	d="
M70.000000,84.998901 
	C58.864414,84.998901 48.228825,84.998901 37.299393,84.998901 
	C37.299393,82.264145 37.299393,79.878693 37.299393,77.244385 
	C151.703949,77.244385 265.959564,77.244385 380.606812,77.244385 
	C380.606812,79.560944 380.606812,81.948692 380.606812,84.998901 
	C277.326813,84.998901 173.913406,84.998901 70.000000,84.998901 
z"/>
<path fill="#E6E7E8" opacity="1.000000" stroke="none" 
	d="
M199.000946,292.999573 
	C192.866821,292.999573 187.232376,292.999573 181.299973,292.999573 
	C181.299973,279.738708 181.299973,266.687836 181.299973,253.317810 
	C199.550934,253.317810 217.926544,253.317810 237.000793,253.317810 
	C237.000793,256.682800 237.051102,260.260254 236.986618,263.835632 
	C236.922714,267.377777 238.598358,269.047607 242.120514,269.007568 
	C245.581619,268.968231 249.043518,268.999023 252.748596,268.999023 
	C252.748596,277.030090 252.748596,284.755859 252.748596,292.999573 
	C234.970154,292.999573 217.235397,292.999573 199.000946,292.999573 
z"/>
<path fill="#929497" opacity="1.000000" stroke="none" 
	d="
M266.000153,260.999023 
	C258.864136,260.999023 252.228058,260.999023 245.299255,260.999023 
	C245.299255,258.264557 245.299255,255.880096 245.299255,253.244476 
	C322.370361,253.244476 399.292877,253.244476 476.606934,253.244476 
	C476.606934,255.561020 476.606934,257.948639 476.606934,260.999023 
	C406.660767,260.999023 336.580444,260.999023 266.000153,260.999023 
z"/>
<path fill="#F1F1F2" opacity="1.000000" stroke="none" 
	d="
M242.038574,37.000694 
	C255.169067,37.000694 267.803741,37.000694 280.718262,37.000694 
	C280.718262,47.638851 280.718262,58.039253 280.718262,68.720627 
	C265.023834,68.720627 249.292725,68.720627 233.280365,68.720627 
	C233.280365,58.358295 233.280365,47.957943 233.280365,37.000694 
	C235.999893,37.000694 238.771332,37.000694 242.038574,37.000694 
M257.401123,64.933601 
	C259.107880,62.528889 260.814606,60.124176 263.030853,57.001606 
	C264.764069,56.879066 269.139160,57.609364 268.603638,53.075493 
	C268.359375,51.007435 264.561066,49.359158 262.400787,47.542393 
	C260.652069,45.448814 258.819702,43.255142 256.987335,41.061470 
	C255.161316,43.267376 253.335312,45.473278 251.743607,47.396114 
	C249.409348,49.371521 247.235428,51.211224 245.061523,53.050926 
	C247.287521,54.866844 249.513535,56.682762 252.236679,58.904236 
	C253.334686,60.420876 254.968216,62.677208 257.401123,64.933601 
z"/>
<path fill="#F0F0F1" opacity="1.000000" stroke="none" 
	d="
M142.000000,428.998535 
	C152.464127,428.998535 162.428253,428.998535 172.696411,428.998535 
	C172.696411,431.589355 172.696411,433.993652 172.696411,436.783813 
	C171.421799,436.850647 169.984314,436.990540 168.546722,436.991699 
	C150.245682,437.006531 131.943420,437.107605 113.644714,436.900024 
	C110.489807,436.864258 107.272041,435.726318 104.220734,434.692078 
	C99.111397,432.960175 94.112686,430.901978 89.113129,428.998535 
	C106.378769,428.998535 123.939384,428.998535 142.000000,428.998535 
z"/>
<path fill="#00ADEE" opacity="1.000000" stroke="none" 
	d="
M112.990921,418.764282 
	C112.042076,419.827972 111.120651,420.873596 110.153671,420.917572 
	C106.022453,421.105408 101.877777,420.997559 97.370102,420.997559 
	C97.370102,410.486877 97.370102,400.124786 97.370102,389.380402 
	C102.170471,389.380402 107.219360,389.380402 112.997383,389.380402 
	C112.997383,398.868927 112.997383,408.577179 112.990921,418.764282 
z"/>
<path fill="#00ADEE" opacity="1.000000" stroke="none" 
	d="
M121.000778,409.978912 
	C121.000778,402.869232 121.000778,396.256927 121.000778,389.323608 
	C126.294495,389.323608 131.336380,389.323608 136.691040,389.323608 
	C136.691040,399.637329 136.691040,409.994049 136.691040,420.676392 
	C131.705414,420.676392 126.663536,420.676392 121.000778,420.676392 
	C121.000778,417.318604 121.000778,413.897430 121.000778,409.978912 
z"/>
<path fill="#D0D2D3" opacity="1.000000" stroke="none" 
	d="
M111.000084,380.999268 
	C103.532486,380.999268 96.564857,380.999268 89.300369,380.999268 
	C89.300369,378.370148 89.300369,375.973877 89.300369,373.282166 
	C107.623299,373.282166 126.010750,373.282166 144.699356,373.282166 
	C144.699356,375.629883 144.699356,378.028717 144.699356,380.999268 
	C133.680664,380.999268 122.590355,380.999268 111.000084,380.999268 
z"/>
<path fill="#EFEFF0" opacity="1.000000" stroke="none" 
	d="
M54.195213,435.877686 
	C48.460938,435.980927 43.146667,435.980927 37.439171,435.980927 
	C37.439171,433.713165 37.439171,431.641052 37.439171,429.278717 
	C48.109383,429.278717 59.045738,429.278717 69.617485,429.278717 
	C64.859673,431.338745 59.737446,433.556580 54.195213,435.877686 
z"/>
<path fill="#0A0E12" opacity="1.000000" stroke="none" 
	d="
M151.696869,111.404594 
	C157.176453,120.398117 155.664948,128.867126 148.070984,133.334839 
	C140.919373,137.542313 130.934967,135.301239 126.895432,128.581833 
	C123.581299,123.069077 124.296776,115.386536 128.532654,111.002045 
	C133.237503,106.132111 141.882523,104.926186 147.913879,108.391106 
	C149.195267,109.127235 150.282883,110.200615 151.696869,111.404594 
M131.021988,116.799988 
	C129.165543,121.136024 129.683563,125.552208 133.481445,127.984856 
	C136.184662,129.716354 140.315659,130.263306 143.587875,129.793976 
	C147.557693,129.224579 149.376892,125.559586 149.611282,121.603111 
	C149.870682,117.224434 148.103867,113.815353 143.922165,112.031410 
	C139.211166,110.021660 135.257675,111.349823 131.021988,116.799988 
z"/>
<path fill="#0A0E12" opacity="1.000000" stroke="none" 
	d="
M114.004028,129.926559 
	C114.004021,127.484245 114.004021,125.518051 114.004021,123.290901 
	C109.333817,123.290901 104.925957,123.290901 100.056717,123.290901 
	C100.056717,126.948502 100.056717,130.680023 100.056717,134.763809 
	C98.049026,134.881805 96.471375,134.974518 94.530106,135.088608 
	C94.530106,125.790894 94.530106,116.749908 94.530106,107.340080 
	C96.094322,107.340080 97.778305,107.340080 99.804642,107.340080 
	C99.804642,110.841209 99.804642,114.277229 99.804642,118.050095 
	C104.520592,118.050095 108.919273,118.050095 113.781906,118.050095 
	C113.781906,114.698341 113.781906,111.130867 113.781906,107.272850 
	C115.792961,107.272850 117.354744,107.272850 119.183472,107.272850 
	C119.183472,116.313576 119.183472,125.384430 119.183472,134.809570 
	C117.605263,134.886444 116.039276,134.962738 114.004028,135.061890 
	C114.004028,133.316925 114.004028,131.859802 114.004028,129.926559 
z"/>
<path fill="#0C1318" opacity="1.000000" stroke="none" 
	d="
M192.960953,106.555672 
	C195.731995,106.680038 198.076172,106.633263 200.365997,106.963448 
	C205.511948,107.705467 208.665604,110.999580 209.006805,115.709969 
	C209.370499,120.731331 206.671600,124.838615 201.622894,126.044281 
	C198.304337,126.836769 194.808609,126.887291 191.113678,127.301277 
	C191.006821,129.665802 190.897690,132.080414 190.781067,134.660553 
	C188.926437,134.660553 187.362991,134.660553 185.556000,134.660553 
	C185.556000,125.334404 185.556000,116.263298 185.556000,106.555618 
	C187.965744,106.555618 190.237595,106.555618 192.960953,106.555672 
M199.761017,122.038658 
	C202.802856,120.896469 204.657196,118.812965 203.362411,115.559837 
	C200.980377,109.574936 195.707016,112.076424 191.221802,111.535019 
	C191.221802,115.301445 191.221802,118.707001 191.221802,122.183113 
	C193.956696,122.183113 196.428009,122.183113 199.761017,122.038658 
z"/>
<path fill="#0A0E12" opacity="1.000000" stroke="none" 
	d="
M246.792252,132.838531 
	C250.396454,124.747391 253.751312,116.973900 257.383911,109.332420 
	C257.916840,108.211342 259.715881,107.229027 261.028625,107.084106 
	C262.134735,106.961990 264.017212,107.848923 264.473419,108.805519 
	C268.530273,117.311684 272.346283,125.932732 276.251526,134.560165 
	C272.360992,135.760345 269.909088,135.092499 268.675659,131.102951 
	C268.346619,130.038681 266.360474,129.108826 264.991486,128.834961 
	C263.070221,128.450592 260.996216,128.909927 259.020721,128.698395 
	C255.671646,128.339752 253.348145,129.089645 252.231232,132.727386 
	C251.913849,133.761078 249.967712,134.481491 248.629074,134.908493 
	C248.190018,135.048523 247.310593,133.807983 246.792252,132.838531 
M259.131775,116.619057 
	C258.122284,119.000191 257.112823,121.381317 255.998062,124.010780 
	C259.358429,124.010780 262.295166,124.010780 265.827942,124.010780 
	C264.208984,120.315506 262.751129,116.987953 261.028961,113.057159 
	C260.225891,114.546577 259.854095,115.236160 259.131775,116.619057 
z"/>
<path fill="#0A0E12" opacity="1.000000" stroke="none" 
	d="
M166.009552,111.620811 
	C162.684723,114.317497 163.753235,116.136314 166.738785,117.298393 
	C169.344666,118.312698 172.119019,118.885544 174.762299,119.814560 
	C178.407578,121.095749 180.604034,123.445854 180.205994,127.643501 
	C179.793457,131.994049 176.998260,134.564621 173.159256,134.766983 
	C168.230331,135.026794 163.238403,134.091354 157.388184,133.595856 
	C158.455002,130.752625 158.937027,129.467972 159.459518,128.075439 
	C160.145569,128.301620 160.574356,128.489532 161.022812,128.583405 
	C164.366241,129.283295 167.697296,130.315613 171.068008,130.471985 
	C172.344238,130.531174 173.714798,128.556351 175.042343,127.508667 
	C173.881042,126.317711 172.921494,124.698860 171.512009,124.034248 
	C169.295929,122.989311 166.747086,122.676285 164.392838,121.892128 
	C160.747253,120.677872 158.368912,118.390869 158.672241,114.217247 
	C158.963058,110.215652 161.343597,108.045555 165.034592,106.887230 
	C169.947647,105.345406 174.480484,106.257484 179.289642,108.671036 
	C178.739105,110.093414 178.228592,111.412407 178.235489,111.394615 
	C173.724731,111.394615 170.037125,111.394615 166.009552,111.620811 
z"/>
<path fill="#0C1318" opacity="1.000000" stroke="none" 
	d="
M282.288818,135.035248 
	C280.978333,134.155441 279.432587,133.292236 279.412354,132.394653 
	C279.225494,124.100159 279.302063,115.799736 279.302063,107.212486 
	C281.260162,107.101166 282.857666,107.010353 284.936218,106.892189 
	C284.936218,114.696617 284.936218,122.284470 284.936218,130.351685 
	C288.835999,130.351685 292.289886,130.482849 295.728943,130.313522 
	C298.944153,130.155228 300.516785,131.184265 299.551941,135.035889 
	C294.035461,135.035889 288.398315,135.035889 282.288818,135.035248 
z"/>
<path fill="#000203" opacity="1.000000" stroke="none" 
	d="
M238.055878,121.021057 
	C238.055878,125.815483 238.055878,130.114044 238.055878,134.768326 
	C236.428574,134.873047 235.017624,134.963852 233.081451,135.088455 
	C233.081451,127.177536 233.081451,119.446373 233.081451,111.401825 
	C229.612534,111.401825 226.655151,111.401825 223.423477,111.401825 
	C223.333206,109.863022 223.261230,108.636253 223.175659,107.177551 
	C231.209625,107.177551 238.983566,107.177551 246.778137,107.177551 
	C247.843369,111.129501 247.843369,111.129501 238.055878,111.837433 
	C238.055878,114.689873 238.055878,117.607536 238.055878,121.021057 
z"/>
<path fill="#0C1318" opacity="1.000000" stroke="none" 
	d="
M214.071106,128.876587 
	C214.071106,121.427032 214.071106,114.459961 214.071106,107.227417 
	C215.981979,107.227417 217.555664,107.227417 219.394836,107.227417 
	C219.394836,116.406258 219.394836,125.495163 219.394836,134.850327 
	C217.684814,134.850327 216.110016,134.850327 214.071106,134.850327 
	C214.071106,132.946976 214.071106,131.153030 214.071106,128.876587 
z"/>
<path fill="#000203" opacity="1.000000" stroke="none" 
	d="
M89.061264,196.996902 
	C112.373756,196.996902 135.196686,196.990753 158.019623,197.000946 
	C164.277023,197.003738 164.995987,197.694595 164.997574,203.812149 
	C165.008194,244.626892 165.008728,285.441650 164.996948,326.256378 
	C164.995209,332.292145 164.240265,332.996979 157.930817,332.999329 
	C133.441971,333.008484 108.953133,333.006317 84.464287,333.001068 
	C77.477264,332.999542 77.000145,332.534241 76.999298,325.672241 
	C76.994377,285.523865 76.996330,245.375488 76.997368,205.227112 
	C76.997566,197.240097 77.234215,197.001724 85.073303,196.997025 
	C86.239441,196.996323 87.405571,196.996902 89.061264,196.996902 
M155.247894,324.988373 
	C155.828552,324.373199 156.904099,323.766113 156.914261,323.141663 
	C157.032410,315.881683 156.989838,308.619080 156.989838,301.254028 
	C150.559479,301.254028 144.658585,301.254028 138.578751,301.254028 
	C138.578751,309.229156 138.578751,316.944183 138.578751,325.001923 
	C144.022949,325.001923 149.156281,325.001923 155.247894,324.988373 
M89.635483,325.003815 
	C94.222801,325.003815 98.810120,325.003815 103.339996,325.003815 
	C103.339996,316.614594 103.339996,308.913391 103.339996,301.330963 
	C97.033546,301.330963 91.128525,301.330963 84.997704,301.330963 
	C84.997704,308.465454 85.145340,315.272095 84.931877,322.067383 
	C84.833527,325.198364 86.554573,325.143677 89.635483,325.003815 
M139.894882,269.027008 
	C139.392014,269.382874 138.454361,269.733826 138.450317,270.095276 
	C138.365494,277.661987 138.386261,285.229950 138.386261,292.665344 
	C144.971741,292.665344 150.878845,292.665344 156.638504,292.665344 
	C156.638504,284.601837 156.638504,276.881317 156.638504,268.999786 
	C151.125412,268.999786 145.976791,268.999786 139.894882,269.027008 
M87.706856,268.998108 
	C86.807747,269.632141 85.143723,270.246490 85.126831,270.903198 
	C84.940277,278.157166 85.009521,285.417725 85.009521,292.730530 
	C91.468773,292.730530 97.368393,292.730530 103.409630,292.730530 
	C103.409630,284.739166 103.409630,277.024750 103.409630,268.996338 
	C98.284142,268.996338 93.478226,268.996338 87.706856,268.998108 
M156.886536,237.799606 
	C150.768372,237.446228 144.650223,237.092834 138.544373,236.740158 
	C138.544373,245.404877 138.544373,252.990265 138.544373,260.782776 
	C144.728256,260.782776 150.631958,260.782776 156.988419,260.782776 
	C156.988419,253.298889 156.988419,246.026596 156.886536,237.799606 
M101.172890,236.999741 
	C95.902016,236.999741 90.631149,236.999741 85.289436,236.999741 
	C85.289436,245.249008 85.289436,252.966812 85.289436,260.718506 
	C91.486526,260.718506 97.387215,260.718506 103.717567,260.718506 
	C103.717567,253.322968 103.762085,246.203262 103.647156,239.086151 
	C103.635941,238.391586 102.641960,237.712921 101.172890,236.999741 
M89.635498,229.003876 
	C94.222816,229.003876 98.810135,229.003876 103.339996,229.003876 
	C103.339996,220.614609 103.339996,212.913376 103.339996,205.330933 
	C97.033554,205.330933 91.128532,205.330933 84.997704,205.330933 
	C84.997704,212.465454 85.145348,219.272110 84.931877,226.067398 
	C84.833519,229.198425 86.554665,229.143616 89.635498,229.003876 
M149.457321,204.996109 
	C145.857834,204.996109 142.258347,204.996109 138.616394,204.996109 
	C138.616394,213.329086 138.616394,221.044189 138.616394,228.701843 
	C144.883591,228.701843 150.793900,228.701843 156.678528,228.701843 
	C156.678528,220.679581 156.678528,212.963776 156.678528,204.996109 
	C154.379807,204.996109 152.404556,204.996109 149.457321,204.996109 
M111.737328,274.578491 
	C111.737328,280.644470 111.737328,286.710480 111.737328,292.751709 
	C118.277100,292.751709 124.038116,292.751709 129.969849,292.751709 
	C129.969849,284.803711 129.969849,277.100586 129.969849,269.328064 
	C123.780212,269.328064 117.887512,269.328064 111.737297,269.328064 
	C111.737297,270.965546 111.737297,272.280884 111.737328,274.578491 
M111.737404,241.596222 
	C111.737404,247.883331 111.737404,254.170441 111.737404,260.723816 
	C118.024086,260.723816 123.916588,260.723816 129.961792,260.723816 
	C129.961792,252.791367 129.961792,245.087830 129.961792,237.011719 
	C124.541351,237.011719 119.410965,237.120987 114.288246,236.970184 
	C111.281944,236.881699 111.775650,238.843430 111.737404,241.596222 
M130.257233,303.639954 
	C129.581589,302.765991 128.934418,301.161865 128.225754,301.134247 
	C122.801941,300.922729 117.366158,301.018127 111.955795,301.018127 
	C111.955795,309.284729 111.955795,316.886322 111.955795,324.730225 
	C118.066780,324.730225 123.958939,324.730225 130.262039,324.730225 
	C130.262039,317.855011 130.262039,311.237457 130.257233,303.639954 
M111.737312,211.559357 
	C111.737312,217.294144 111.737312,223.028946 111.737312,228.756836 
	C118.263611,228.756836 124.024803,228.756836 129.976379,228.756836 
	C129.976379,220.814423 129.976379,213.111206 129.976379,205.322784 
	C123.793266,205.322784 117.900421,205.322784 111.737213,205.322784 
	C111.737213,207.285522 111.737213,208.931976 111.737312,211.559357 
z"/>
<path fill="#000000" opacity="1.000000" stroke="none" 
	d="
M232.494019,165.009613 
	C234.295868,166.592758 236.618240,168.058380 236.808914,169.762527 
	C237.342468,174.530975 237.008896,179.398087 236.990158,184.226151 
	C236.977264,187.548035 235.193893,189.010284 231.959229,189.005920 
	C219.306122,188.988815 206.652954,188.990158 193.999832,189.004395 
	C190.422836,189.008423 188.912094,187.196030 188.981949,183.705750 
	C189.061890,179.711624 188.983597,175.714584 189.003387,171.718948 
	C189.032639,165.817368 189.793045,165.017731 195.580597,165.006714 
	C207.734222,164.983612 219.887924,165.000504 232.494019,165.009613 
M224.350464,180.999222 
	C225.793686,180.923950 227.236893,180.848663 228.704315,180.772125 
	C228.704315,178.072372 228.704315,175.688843 228.704315,173.272125 
	C218.047623,173.272125 207.687698,173.272125 197.299713,173.272125 
	C197.299713,175.934921 197.299713,178.318695 197.299713,180.999252 
	C206.189545,180.999252 214.783325,180.999252 224.350464,180.999222 
z"/>
<path fill="#000000" opacity="1.000000" stroke="none" 
	d="
M148.019012,164.999542 
	C157.167526,164.999542 165.823257,165.155991 174.469437,164.936539 
	C179.105133,164.818893 181.316879,166.397156 181.047791,171.257538 
	C180.818207,175.404343 180.954559,179.574539 181.013199,183.733200 
	C181.062195,187.209991 179.530716,189.012299 175.958115,189.006683 
	C163.313278,188.986786 150.668396,188.991821 138.023529,189.003845 
	C134.808777,189.006897 133.003326,187.587433 133.004135,184.234467 
	C133.005295,179.409470 132.992798,174.584442 133.008713,169.759506 
	C133.019684,166.432129 134.807770,164.966339 138.038635,164.994812 
	C141.199600,165.022659 144.361023,165.000015 148.019012,164.999542 
M159.491974,173.000748 
	C153.417023,173.000748 147.342056,173.000748 141.323456,173.000748 
	C141.323456,175.979492 141.323456,178.363708 141.323456,180.706635 
	C152.006439,180.706635 162.364578,180.706635 172.676941,180.706635 
	C172.676941,178.021210 172.676941,175.637009 172.676941,173.000748 
	C168.401062,173.000748 164.444672,173.000748 159.491974,173.000748 
z"/>
<path fill="#000000" opacity="1.000000" stroke="none" 
	d="
M119.580536,188.999634 
	C107.133850,189.000397 95.146812,188.896317 83.163223,189.054245 
	C78.684105,189.113281 76.732452,187.414703 76.954391,182.870026 
	C77.165253,178.552139 77.005501,174.215927 77.000694,169.887772 
	C76.997040,166.602081 78.638680,164.997101 81.914490,164.999115 
	C94.732475,165.006958 107.550476,164.998383 120.368446,165.012054 
	C123.434990,165.015320 124.961273,166.650894 124.983681,169.662506 
	C125.019600,174.489777 124.999504,179.317490 124.995461,184.145020 
	C124.992706,187.439117 123.302536,189.023773 119.580536,188.999634 
M86.790375,173.013748 
	C85.973557,175.437073 85.156731,177.860397 84.177757,180.764771 
	C95.861168,180.764771 106.223206,180.764771 116.741318,180.764771 
	C116.741318,178.143234 116.741318,175.759949 116.741318,173.002426 
	C106.905289,173.002426 97.321831,173.002426 86.790375,173.013748 
z"/>
<path fill="#000203" opacity="1.000000" stroke="none" 
	d="
M419.999939,276.999054 
	C426.663239,276.999054 432.830200,277.127777 438.988617,276.954468 
	C443.192352,276.836151 445.107178,278.441498 445.043701,282.783752 
	C444.904877,292.276520 444.927094,301.773621 445.035675,311.267181 
	C445.081146,315.241241 443.491516,317.035522 439.419342,317.031830 
	C387.114532,316.984283 334.809662,316.985168 282.504852,317.029785 
	C278.401764,317.033295 276.903625,315.163452 276.959900,311.210754 
	C277.085541,302.384003 276.995758,293.554260 277.000061,284.725739 
	C277.003632,277.423553 277.412994,277.001007 284.573364,277.000549 
	C329.548889,276.997620 374.524445,276.999054 419.999939,276.999054 
M357.003845,300.454407 
	C357.003845,295.372406 357.003845,290.290405 357.003845,285.329346 
	C350.422333,285.329346 344.527008,285.329346 338.647552,285.329346 
	C338.647552,293.371796 338.647552,301.076019 338.647552,308.679260 
	C344.941803,308.679260 350.846985,308.679260 357.003845,308.679260 
	C357.003845,306.049255 357.003845,303.741699 357.003845,300.454407 
M418.264374,301.403015 
	C418.264374,303.837799 418.264374,306.272583 418.264374,308.725830 
	C424.838135,308.725830 430.746033,308.725830 436.702698,308.725830 
	C436.702698,300.728851 436.702698,293.013550 436.702698,285.286713 
	C430.498505,285.286713 424.600586,285.286713 418.264496,285.286713 
	C418.264496,290.521667 418.264496,295.476685 418.264374,301.403015 
M366.752106,285.011597 
	C366.171478,285.626770 365.095886,286.233887 365.085724,286.858307 
	C364.967560,294.118286 365.010162,301.380890 365.010162,308.745972 
	C371.440491,308.745972 377.341400,308.745972 383.421265,308.745972 
	C383.421265,300.770844 383.421265,293.055847 383.421265,284.998047 
	C377.977051,284.998047 372.843719,284.998047 366.752106,285.011597 
M298.340576,309.003845 
	C299.961884,309.003845 301.583191,309.003845 303.440887,309.003845 
	C303.440887,300.821686 303.440887,293.107025 303.440887,285.234070 
	C297.239349,285.234070 291.334137,285.234070 285.258667,285.234070 
	C285.258667,293.189178 285.258667,300.904572 285.258667,309.003845 
	C289.467468,309.003845 293.425293,309.003845 298.340576,309.003845 
M311.737305,298.489471 
	C311.737305,301.905396 311.737305,305.321320 311.737305,308.606995 
	C318.338837,308.606995 324.215851,308.606995 330.002380,308.606995 
	C330.002380,300.626251 330.002380,293.035828 330.002380,285.301086 
	C323.847748,285.301086 317.955750,285.301086 311.737183,285.301086 
	C311.737183,289.558929 311.737183,293.526917 311.737305,298.489471 
M400.508484,308.994568 
	C403.627716,308.994568 406.746948,308.994568 409.944519,308.994568 
	C409.944519,300.763245 409.944519,293.059509 409.944519,285.347168 
	C403.725861,285.347168 397.831726,285.347168 391.961182,285.347168 
	C391.961182,293.292816 391.961182,300.894592 391.961182,308.994568 
	C394.628998,308.994568 397.080627,308.994568 400.508484,308.994568 
z"/>
<path fill="#000203" opacity="1.000000" stroke="none" 
	d="
M285.208191,373.001068 
	C327.334686,373.001099 368.987762,372.999847 410.640869,373.002289 
	C417.895142,373.002716 418.267944,373.373352 418.276306,380.643280 
	C418.286469,389.473724 418.186157,398.305573 418.317871,407.134064 
	C418.381378,411.392456 416.619659,413.055023 412.342865,413.047119 
	C369.190399,412.967407 326.037720,412.972260 282.885193,413.039948 
	C278.618469,413.046631 276.879456,411.345154 276.954529,407.074097 
	C277.109650,398.246368 276.996307,389.414001 277.002594,380.583557 
	C277.007690,373.410797 277.382935,373.048676 285.208191,373.001068 
M364.996185,385.641357 
	C364.996185,392.048126 364.996185,398.454926 364.996185,404.633850 
	C371.642609,404.633850 377.539001,404.633850 383.487885,404.633850 
	C383.487885,396.677338 383.487885,389.093414 383.487885,381.001984 
	C377.975372,381.001984 372.690460,380.832947 367.437561,381.166901 
	C366.553009,381.223114 365.806580,383.451782 364.996185,385.641357 
M357.003845,390.531921 
	C357.003845,387.434998 357.003845,384.338043 357.003845,381.303528 
	C350.468170,381.303528 344.571503,381.303528 338.615662,381.303528 
	C338.615662,389.329163 338.615662,397.043274 338.615662,404.703674 
	C344.881226,404.703674 350.790741,404.703674 357.003845,404.703674 
	C357.003845,400.110168 357.003845,395.813507 357.003845,390.531921 
M299.295410,405.003845 
	C300.706207,404.890869 302.117004,404.777924 303.454224,404.670868 
	C303.454224,396.591827 303.454224,389.006226 303.454224,381.218994 
	C297.268524,381.218994 291.364563,381.218994 285.243683,381.218994 
	C285.243683,389.157867 285.243683,396.873474 285.243683,405.003845 
	C289.765381,405.003845 294.052124,405.003845 299.295410,405.003845 
M314.646759,381.007324 
	C313.682465,381.758789 311.904694,382.485413 311.880859,383.265594 
	C311.664398,390.358093 311.753876,397.459900 311.753876,404.696960 
	C318.155975,404.696960 324.048584,404.696960 329.898560,404.696960 
	C329.898560,396.688690 329.898560,388.983093 329.898560,381.005707 
	C324.899628,381.005707 320.262115,381.005707 314.646759,381.007324 
M403.451996,404.994568 
	C405.571503,404.994568 407.691010,404.994568 409.965942,404.994568 
	C409.965942,396.797028 409.965942,389.094055 409.965942,381.330017 
	C403.771729,381.330017 397.878418,381.330017 391.938171,381.330017 
	C391.938171,389.257294 391.938171,396.858490 391.938171,404.994568 
	C395.568329,404.994568 399.018036,404.994568 403.451996,404.994568 
z"/>
<path fill="#EC2028" opacity="1.000000" stroke="none" 
	d="
M257.001434,64.933571 
	C254.968216,62.677208 253.334686,60.420876 252.236679,58.904236 
	C249.513535,56.682762 247.287521,54.866844 245.061523,53.050926 
	C247.235428,51.211224 249.409348,49.371521 251.743607,47.396114 
	C253.335312,45.473278 255.161316,43.267376 256.987335,41.061470 
	C258.819702,43.255142 260.652069,45.448814 262.400787,47.542393 
	C264.561066,49.359158 268.359375,51.007435 268.603638,53.075493 
	C269.139160,57.609364 264.764069,56.879066 263.030853,57.001606 
	C260.814606,60.124176 259.107880,62.528889 257.001434,64.933571 
z"/>
<path fill="#EFEFF0" opacity="1.000000" stroke="none" 
	d="
M131.183411,116.449997 
	C135.257675,111.349823 139.211166,110.021660 143.922165,112.031410 
	C148.103867,113.815353 149.870682,117.224434 149.611282,121.603111 
	C149.376892,125.559586 147.557693,129.224579 143.587875,129.793976 
	C140.315659,130.263306 136.184662,129.716354 133.481445,127.984856 
	C129.683563,125.552208 129.165543,121.136024 131.183411,116.449997 
z"/>
<path fill="#E6E7E8" opacity="1.000000" stroke="none" 
	d="
M199.330170,122.110886 
	C196.428009,122.183113 193.956696,122.183113 191.221802,122.183113 
	C191.221802,118.707001 191.221802,115.301445 191.221802,111.535019 
	C195.707016,112.076424 200.980377,109.574936 203.362411,115.559837 
	C204.657196,118.812965 202.802856,120.896469 199.330170,122.110886 
z"/>
<path fill="#E6E7E8" opacity="1.000000" stroke="none" 
	d="
M259.307037,116.272400 
	C259.854095,115.236160 260.225891,114.546577 261.028961,113.057159 
	C262.751129,116.987953 264.208984,120.315506 265.827942,124.010780 
	C262.295166,124.010780 259.358429,124.010780 255.998062,124.010780 
	C257.112823,121.381317 258.122284,119.000191 259.307037,116.272400 
z"/>
<path fill="#00AAE9" opacity="1.000000" stroke="none" 
	d="
M154.768768,324.995148 
	C149.156281,325.001923 144.022949,325.001923 138.578751,325.001923 
	C138.578751,316.944183 138.578751,309.229156 138.578751,301.254028 
	C144.658585,301.254028 150.559479,301.254028 156.989838,301.254028 
	C156.989838,308.619080 157.032410,315.881683 156.914261,323.141663 
	C156.904099,323.766113 155.828552,324.373199 154.768768,324.995148 
z"/>
<path fill="#00AAE9" opacity="1.000000" stroke="none" 
	d="
M89.153862,325.003723 
	C86.554573,325.143677 84.833527,325.198364 84.931877,322.067383 
	C85.145340,315.272095 84.997704,308.465454 84.997704,301.330963 
	C91.128525,301.330963 97.033546,301.330963 103.339996,301.330963 
	C103.339996,308.913391 103.339996,316.614594 103.339996,325.003815 
	C98.810120,325.003815 94.222801,325.003815 89.153862,325.003723 
z"/>
<path fill="#00AAE9" opacity="1.000000" stroke="none" 
	d="
M140.361511,269.013397 
	C145.976791,268.999786 151.125412,268.999786 156.638504,268.999786 
	C156.638504,276.881317 156.638504,284.601837 156.638504,292.665344 
	C150.878845,292.665344 144.971741,292.665344 138.386261,292.665344 
	C138.386261,285.229950 138.365494,277.661987 138.450317,270.095276 
	C138.454361,269.733826 139.392014,269.382874 140.361511,269.013397 
z"/>
<path fill="#00AAE9" opacity="1.000000" stroke="none" 
	d="
M88.189583,268.997223 
	C93.478226,268.996338 98.284142,268.996338 103.409630,268.996338 
	C103.409630,277.024750 103.409630,284.739166 103.409630,292.730530 
	C97.368393,292.730530 91.468773,292.730530 85.009521,292.730530 
	C85.009521,285.417725 84.940277,278.157166 85.126831,270.903198 
	C85.143723,270.246490 86.807747,269.632141 88.189583,268.997223 
z"/>
<path fill="#00AAE9" opacity="1.000000" stroke="none" 
	d="
M156.937469,238.276962 
	C156.988419,246.026596 156.988419,253.298889 156.988419,260.782776 
	C150.631958,260.782776 144.728256,260.782776 138.544373,260.782776 
	C138.544373,252.990265 138.544373,245.404877 138.544373,236.740158 
	C144.650223,237.092834 150.768372,237.446228 156.937469,238.276962 
z"/>
<path fill="#00AAE9" opacity="1.000000" stroke="none" 
	d="
M101.638527,237.013306 
	C102.641960,237.712921 103.635941,238.391586 103.647156,239.086151 
	C103.762085,246.203262 103.717567,253.322968 103.717567,260.718506 
	C97.387215,260.718506 91.486526,260.718506 85.289436,260.718506 
	C85.289436,252.966812 85.289436,245.249008 85.289436,236.999741 
	C90.631149,236.999741 95.902016,236.999741 101.638527,237.013306 
z"/>
<path fill="#00AAE9" opacity="1.000000" stroke="none" 
	d="
M89.153885,229.003784 
	C86.554665,229.143616 84.833519,229.198425 84.931877,226.067398 
	C85.145348,219.272110 84.997704,212.465454 84.997704,205.330933 
	C91.128532,205.330933 97.033554,205.330933 103.339996,205.330933 
	C103.339996,212.913376 103.339996,220.614609 103.339996,229.003876 
	C98.810135,229.003876 94.222816,229.003876 89.153885,229.003784 
z"/>
<path fill="#00AAE9" opacity="1.000000" stroke="none" 
	d="
M149.943298,204.996109 
	C152.404556,204.996109 154.379807,204.996109 156.678528,204.996109 
	C156.678528,212.963776 156.678528,220.679581 156.678528,228.701843 
	C150.793900,228.701843 144.883591,228.701843 138.616394,228.701843 
	C138.616394,221.044189 138.616394,213.329086 138.616394,204.996109 
	C142.258347,204.996109 145.857834,204.996109 149.943298,204.996109 
z"/>
<path fill="#00ADEE" opacity="1.000000" stroke="none" 
	d="
M111.737312,274.087372 
	C111.737297,272.280884 111.737297,270.965546 111.737297,269.328064 
	C117.887512,269.328064 123.780212,269.328064 129.969849,269.328064 
	C129.969849,277.100586 129.969849,284.803711 129.969849,292.751709 
	C124.038116,292.751709 118.277100,292.751709 111.737328,292.751709 
	C111.737328,286.710480 111.737328,280.644470 111.737312,274.087372 
z"/>
<path fill="#00ADEE" opacity="1.000000" stroke="none" 
	d="
M111.737686,241.108002 
	C111.775650,238.843430 111.281944,236.881699 114.288246,236.970184 
	C119.410965,237.120987 124.541351,237.011719 129.961792,237.011719 
	C129.961792,245.087830 129.961792,252.791367 129.961792,260.723816 
	C123.916588,260.723816 118.024086,260.723816 111.737404,260.723816 
	C111.737404,254.170441 111.737404,247.883331 111.737686,241.108002 
z"/>
<path fill="#00ADEE" opacity="1.000000" stroke="none" 
	d="
M130.259644,304.129944 
	C130.262039,311.237457 130.262039,317.855011 130.262039,324.730225 
	C123.958939,324.730225 118.066780,324.730225 111.955795,324.730225 
	C111.955795,316.886322 111.955795,309.284729 111.955795,301.018127 
	C117.366158,301.018127 122.801941,300.922729 128.225754,301.134247 
	C128.934418,301.161865 129.581589,302.765991 130.259644,304.129944 
z"/>
<path fill="#00ADEE" opacity="1.000000" stroke="none" 
	d="
M111.737259,211.068893 
	C111.737213,208.931976 111.737213,207.285522 111.737213,205.322784 
	C117.900421,205.322784 123.793266,205.322784 129.976379,205.322784 
	C129.976379,213.111206 129.976379,220.814423 129.976379,228.756836 
	C124.024803,228.756836 118.263611,228.756836 111.737312,228.756836 
	C111.737312,223.028946 111.737312,217.294144 111.737259,211.068893 
z"/>
<path fill="#00ADEE" opacity="1.000000" stroke="none" 
	d="
M223.863785,180.999237 
	C214.783325,180.999252 206.189545,180.999252 197.299713,180.999252 
	C197.299713,178.318695 197.299713,175.934921 197.299713,173.272125 
	C207.687698,173.272125 218.047623,173.272125 228.704315,173.272125 
	C228.704315,175.688843 228.704315,178.072372 228.704315,180.772125 
	C227.236893,180.848663 225.793686,180.923950 223.863785,180.999237 
z"/>
<path fill="#00ADEE" opacity="1.000000" stroke="none" 
	d="
M159.990143,173.000748 
	C164.444672,173.000748 168.401062,173.000748 172.676941,173.000748 
	C172.676941,175.637009 172.676941,178.021210 172.676941,180.706635 
	C162.364578,180.706635 152.006439,180.706635 141.323456,180.706635 
	C141.323456,178.363708 141.323456,175.979492 141.323456,173.000748 
	C147.342056,173.000748 153.417023,173.000748 159.990143,173.000748 
z"/>
<path fill="#00ADEE" opacity="1.000000" stroke="none" 
	d="
M87.264374,173.008087 
	C97.321831,173.002426 106.905289,173.002426 116.741318,173.002426 
	C116.741318,175.759949 116.741318,178.143234 116.741318,180.764771 
	C106.223206,180.764771 95.861168,180.764771 84.177757,180.764771 
	C85.156731,177.860397 85.973557,175.437073 87.264374,173.008087 
z"/>
<path fill="#00AAE9" opacity="1.000000" stroke="none" 
	d="
M357.003845,300.944275 
	C357.003845,303.741699 357.003845,306.049255 357.003845,308.679260 
	C350.846985,308.679260 344.941803,308.679260 338.647552,308.679260 
	C338.647552,301.076019 338.647552,293.371796 338.647552,285.329346 
	C344.527008,285.329346 350.422333,285.329346 357.003845,285.329346 
	C357.003845,290.290405 357.003845,295.372406 357.003845,300.944275 
z"/>
<path fill="#00AAE9" opacity="1.000000" stroke="none" 
	d="
M418.264435,300.917358 
	C418.264496,295.476685 418.264496,290.521667 418.264496,285.286713 
	C424.600586,285.286713 430.498505,285.286713 436.702698,285.286713 
	C436.702698,293.013550 436.702698,300.728851 436.702698,308.725830 
	C430.746033,308.725830 424.838135,308.725830 418.264374,308.725830 
	C418.264374,306.272583 418.264374,303.837799 418.264435,300.917358 
z"/>
<path fill="#00AAE9" opacity="1.000000" stroke="none" 
	d="
M367.231262,285.004822 
	C372.843719,284.998047 377.977051,284.998047 383.421265,284.998047 
	C383.421265,293.055847 383.421265,300.770844 383.421265,308.745972 
	C377.341400,308.745972 371.440491,308.745972 365.010162,308.745972 
	C365.010162,301.380890 364.967560,294.118286 365.085724,286.858307 
	C365.095886,286.233887 366.171478,285.626770 367.231262,285.004822 
z"/>
<path fill="#00AAE9" opacity="1.000000" stroke="none" 
	d="
M297.861847,309.003845 
	C293.425293,309.003845 289.467468,309.003845 285.258667,309.003845 
	C285.258667,300.904572 285.258667,293.189178 285.258667,285.234070 
	C291.334137,285.234070 297.239349,285.234070 303.440887,285.234070 
	C303.440887,293.107025 303.440887,300.821686 303.440887,309.003845 
	C301.583191,309.003845 299.961884,309.003845 297.861847,309.003845 
z"/>
<path fill="#00ADEE" opacity="1.000000" stroke="none" 
	d="
M311.737244,297.992188 
	C311.737183,293.526917 311.737183,289.558929 311.737183,285.301086 
	C317.955750,285.301086 323.847748,285.301086 330.002380,285.301086 
	C330.002380,293.035828 330.002380,300.626251 330.002380,308.606995 
	C324.215851,308.606995 318.338837,308.606995 311.737305,308.606995 
	C311.737305,305.321320 311.737305,301.905396 311.737244,297.992188 
z"/>
<path fill="#00ADEE" opacity="1.000000" stroke="none" 
	d="
M400.020386,308.994568 
	C397.080627,308.994568 394.628998,308.994568 391.961182,308.994568 
	C391.961182,300.894592 391.961182,293.292816 391.961182,285.347168 
	C397.831726,285.347168 403.725861,285.347168 409.944519,285.347168 
	C409.944519,293.059509 409.944519,300.763245 409.944519,308.994568 
	C406.746948,308.994568 403.627716,308.994568 400.020386,308.994568 
z"/>
<path fill="#00AAE9" opacity="1.000000" stroke="none" 
	d="
M364.996277,385.159027 
	C365.806580,383.451782 366.553009,381.223114 367.437561,381.166901 
	C372.690460,380.832947 377.975372,381.001984 383.487885,381.001984 
	C383.487885,389.093414 383.487885,396.677338 383.487885,404.633850 
	C377.539001,404.633850 371.642609,404.633850 364.996185,404.633850 
	C364.996185,398.454926 364.996185,392.048126 364.996277,385.159027 
z"/>
<path fill="#00AAE9" opacity="1.000000" stroke="none" 
	d="
M357.003845,391.024414 
	C357.003845,395.813507 357.003845,400.110168 357.003845,404.703674 
	C350.790741,404.703674 344.881226,404.703674 338.615662,404.703674 
	C338.615662,397.043274 338.615662,389.329163 338.615662,381.303528 
	C344.571503,381.303528 350.468170,381.303528 357.003845,381.303528 
	C357.003845,384.338043 357.003845,387.434998 357.003845,391.024414 
z"/>
<path fill="#00AAE9" opacity="1.000000" stroke="none" 
	d="
M298.817139,405.003845 
	C294.052124,405.003845 289.765381,405.003845 285.243683,405.003845 
	C285.243683,396.873474 285.243683,389.157867 285.243683,381.218994 
	C291.364563,381.218994 297.268524,381.218994 303.454224,381.218994 
	C303.454224,389.006226 303.454224,396.591827 303.454224,404.670868 
	C302.117004,404.777924 300.706207,404.890869 298.817139,405.003845 
z"/>
<path fill="#00ADEE" opacity="1.000000" stroke="none" 
	d="
M315.135681,381.006531 
	C320.262115,381.005707 324.899628,381.005707 329.898560,381.005707 
	C329.898560,388.983093 329.898560,396.688690 329.898560,404.696960 
	C324.048584,404.696960 318.155975,404.696960 311.753876,404.696960 
	C311.753876,397.459900 311.664398,390.358093 311.880859,383.265594 
	C311.904694,382.485413 313.682465,381.758789 315.135681,381.006531 
z"/>
<path fill="#00ADEE" opacity="1.000000" stroke="none" 
	d="
M402.959839,404.994568 
	C399.018036,404.994568 395.568329,404.994568 391.938171,404.994568 
	C391.938171,396.858490 391.938171,389.257294 391.938171,381.330017 
	C397.878418,381.330017 403.771729,381.330017 409.965942,381.330017 
	C409.965942,389.094055 409.965942,396.797028 409.965942,404.994568 
	C407.691010,404.994568 405.571503,404.994568 402.959839,404.994568 
z"/>
</svg>