<svg version="1.1" id="Layer_1" xmlns="http://www.w3.org/2000/svg" xmlns:xlink="http://www.w3.org/1999/xlink" x="0px" y="0px"
	 width="100%" viewBox="0 0 512 512" enable-background="new 0 0 512 512" xml:space="preserve">
<path fill="#000000" opacity="1.000000" stroke="none" 
	d="
M220.000000,513.000000 
	C147.037018,513.000000 74.074036,513.000000 1.055529,513.000000 
	C1.055529,342.456909 1.055529,171.913803 1.055529,1.000000 
	C44.686863,1.000000 88.374771,1.000000 132.833618,1.328482 
	C133.265717,2.019586 132.983582,2.611006 132.579697,2.711107 
	C124.190933,4.790244 116.892281,8.771874 110.146355,14.230585 
	C95.332214,26.217995 88.427185,41.807735 88.022858,60.548058 
	C87.847488,68.676041 87.935486,76.809692 87.599121,85.073334 
	C74.142960,97.754982 61.471684,110.789680 51.078262,125.741562 
	C35.769463,147.764664 23.882553,171.521393 16.259668,197.344757 
	C9.882539,218.947983 6.371641,240.982346 6.071465,263.482361 
	C5.961374,271.734406 6.506744,280.007874 7.048879,288.252106 
	C7.510993,295.279449 7.602615,302.472748 9.256196,309.251617 
	C13.055060,324.825134 16.516174,340.657349 22.340734,355.511597 
	C28.347956,370.831665 36.992119,385.117706 44.714569,400.172363 
	C52.278900,410.334656 59.611259,420.180756 67.054840,430.345459 
	C74.096634,437.598816 80.761871,444.828247 88.038643,451.378357 
	C94.269592,456.987152 101.201118,461.817627 107.995941,467.305664 
	C108.877235,468.012451 109.593307,468.392365 110.292389,468.801300 
	C121.731071,475.491943 133.167603,482.186249 144.827820,489.202667 
	C151.350311,492.055206 157.649612,494.584747 164.120987,497.453857 
	C164.784424,497.863861 165.309235,497.846008 165.762329,498.017548 
	C182.832733,504.480347 200.331345,509.188110 218.536301,511.094482 
	C219.084686,511.151917 219.514771,512.339355 220.000000,513.000000 
z"/>
<path fill="#ECECF1" opacity="1.000000" stroke="none" 
	d="
M148.000000,1.000001 
	C221.687561,1.000000 295.375122,1.000000 369.222107,1.324666 
	C369.714600,2.017335 369.989990,2.620912 370.389191,2.718628 
	C378.798981,4.777062 386.101349,8.780210 392.856750,14.238671 
	C407.355469,25.953819 414.381927,41.165596 414.960083,59.527618 
	C415.226593,67.990913 415.061951,76.467796 414.932861,85.388153 
	C414.838226,105.226723 414.903473,124.615654 414.857727,144.448792 
	C414.724426,145.890442 414.687561,146.887848 414.681976,147.885406 
	C414.471100,185.517334 388.835510,210.980728 351.166199,211.005081 
	C336.529938,211.014542 321.893738,211.087585 306.771515,211.092789 
	C277.162048,211.069382 248.038559,211.084839 218.455383,211.068573 
	C210.587433,211.079315 203.179169,211.121765 195.319260,211.112549 
	C180.589691,210.983643 166.311783,210.906418 151.764648,210.603745 
	C134.779083,206.012573 128.414566,192.668823 128.068390,183.362564 
	C127.778427,175.567276 128.069794,167.750366 128.435623,160.006073 
	C129.320953,160.417480 130.045074,160.641342 130.403107,161.132248 
	C141.625793,176.519577 157.364929,182.851669 175.757843,182.923309 
	C226.250656,183.120026 276.744843,183.030304 327.238190,182.925354 
	C331.844513,182.915787 336.534058,182.379303 341.040009,181.412064 
	C365.022949,176.263840 381.891205,157.324097 382.824646,129.912994 
	C383.372803,113.816345 382.837189,97.637756 381.904144,81.547340 
	C380.786926,62.279991 370.180817,48.877094 353.602020,39.827332 
	C344.700378,34.968254 334.825165,34.204094 325.070435,34.117882 
	C293.076996,33.835129 261.078949,33.896133 229.083801,34.053703 
	C208.956665,34.152821 188.831223,34.642910 168.705627,34.991901 
	C153.076263,35.262924 141.350723,43.097538 131.369522,54.322067 
	C130.436127,55.371723 129.199493,56.151714 128.071381,56.585716 
	C128.025345,48.120380 128.065887,40.125690 127.985313,32.132229 
	C127.857300,19.433071 133.518906,10.241149 144.555099,4.141410 
	C145.878036,3.410224 146.860001,2.062148 148.000000,1.000001 
z"/>
<path fill="#000000" opacity="1.000000" stroke="none" 
	d="
M415.092773,84.938515 
	C415.061951,76.467796 415.226593,67.990913 414.960083,59.527618 
	C414.381927,41.165596 407.355469,25.953819 392.856750,14.238671 
	C386.101349,8.780210 378.798981,4.777062 370.389191,2.718628 
	C369.989990,2.620912 369.714600,2.017335 369.690765,1.324666 
	C417.638702,1.000000 465.277435,1.000000 512.942261,1.000000 
	C512.942261,171.666672 512.942261,342.333344 512.942261,513.000000 
	C482.902069,513.000000 452.919708,513.000000 422.275818,512.615784 
	C422.279175,511.828400 422.896851,511.283661 423.616150,511.043671 
	C431.732300,508.335754 440.306976,506.557556 447.871918,502.762482 
	C456.084473,498.642456 463.478119,492.821045 471.016937,487.444366 
	C480.635925,480.584106 487.322540,471.151459 493.454956,460.876709 
	C504.865631,439.846100 510.138947,417.953186 507.117645,394.127686 
	C504.656433,374.719177 497.557068,357.483246 485.902710,341.601685 
	C487.511627,335.417480 489.592133,329.710907 490.482025,323.824341 
	C492.922272,307.682190 495.335999,291.507294 496.805786,275.259003 
	C497.573822,266.768768 496.796051,258.047882 495.892181,249.518524 
	C494.534515,236.707520 493.344788,223.769577 490.486755,211.250168 
	C485.114197,187.715866 476.035919,165.467041 463.873749,144.553925 
	C450.803680,122.079704 434.398560,102.318375 415.092773,84.938515 
z"/>
<path fill="#ECECF1" opacity="1.000000" stroke="none" 
	d="
M220.468658,513.000000 
	C219.514771,512.339355 219.084686,511.151917 218.536301,511.094482 
	C200.331345,509.188110 182.832733,504.480347 165.762329,498.017548 
	C165.309235,497.846008 164.784424,497.863861 164.140900,496.978271 
	C163.993607,434.547577 163.998627,372.932037 164.003204,311.316498 
	C164.004135,298.795349 164.003326,298.795319 176.684952,299.003143 
	C189.324432,299.210297 200.388992,307.302979 203.396194,319.030701 
	C204.454208,323.156799 204.900146,327.546051 204.913025,331.817261 
	C205.027512,369.785431 204.961426,407.754150 204.996292,445.722626 
	C205.006989,457.364441 215.791061,468.744751 227.421814,468.929718 
	C243.404526,469.183899 259.396332,469.151031 275.380341,468.942474 
	C286.995514,468.790924 297.854706,457.424866 298.048187,445.885193 
	C298.114105,441.953552 298.553345,438.028168 298.946533,434.452484 
	C303.617035,450.307953 310.575623,464.629578 321.636169,476.470825 
	C328.160645,483.455841 335.784760,489.413727 342.580444,496.017975 
	C323.773102,503.641724 304.706116,508.771149 284.895203,511.077972 
	C284.198334,511.159119 283.628845,512.334595 283.000000,513.000000 
	C262.312439,513.000000 241.624878,513.000000 220.468658,513.000000 
z"/>
<path fill="#5067D1" opacity="1.000000" stroke="none" 
	d="
M342.914368,495.833527 
	C335.784760,489.413727 328.160645,483.455841 321.636169,476.470825 
	C310.575623,464.629578 303.617035,450.307953 298.961853,434.055054 
	C294.275726,415.508545 294.788757,397.710266 298.953674,379.557129 
	C299.696198,377.317596 300.302704,375.425995 300.945099,373.546661 
	C309.246521,349.260071 324.254913,330.298248 346.051758,317.132416 
	C345.715149,318.631775 345.548859,319.816132 345.041168,320.829498 
	C334.307678,342.253265 330.704712,364.842743 335.203888,388.339844 
	C336.757660,396.454620 340.510651,404.148315 343.201477,412.428131 
	C333.327759,441.094818 350.077423,466.269043 372.910980,473.704254 
	C385.893341,477.931610 398.447784,476.305664 411.052917,470.964355 
	C430.737854,476.908051 450.102875,476.385254 469.231232,470.659271 
	C477.428467,468.205475 485.190857,464.299164 493.150818,461.052826 
	C487.322540,471.151459 480.635925,480.584106 471.016937,487.444366 
	C463.478119,492.821045 456.084473,498.642456 447.871918,502.762482 
	C440.306976,506.557556 431.732300,508.335754 423.616150,511.043671 
	C422.896851,511.283661 422.279175,511.828400 421.807159,512.615784 
	C408.645782,513.000000 395.291534,513.000000 381.661133,512.615845 
	C380.723724,511.828796 380.105835,511.187927 379.394836,511.058411 
	C366.120392,508.639618 353.999481,503.484192 342.914368,495.833527 
z"/>
<path fill="#D4D3D9" opacity="1.000000" stroke="none" 
	d="
M128.103760,159.943024 
	C128.069794,167.750366 127.778427,175.567276 128.068390,183.362564 
	C128.414566,192.668823 134.779083,206.012573 151.307297,210.673508 
	C124.446640,211.004044 105.168861,199.104187 93.547874,175.073730 
	C88.810432,165.277435 88.399452,154.619919 88.095734,143.537552 
	C88.220581,135.781235 88.339249,128.487762 88.294197,121.195297 
	C88.219528,109.110115 88.039497,97.025581 87.903854,84.940773 
	C87.935486,76.809692 87.847488,68.676041 88.022858,60.548058 
	C88.427185,41.807735 95.332214,26.217995 110.146355,14.230585 
	C116.892281,8.771874 124.190933,4.790244 132.579697,2.711107 
	C132.983582,2.611006 133.265717,2.019586 133.302277,1.328482 
	C137.689255,1.000000 142.378510,1.000000 147.533875,1.000001 
	C146.860001,2.062148 145.878036,3.410224 144.555099,4.141410 
	C133.518906,10.241149 127.857300,19.433071 127.985313,32.132229 
	C128.065887,40.125690 128.025345,48.120380 128.040192,56.958797 
	C127.239090,59.795097 126.275459,61.739086 125.665909,63.788387 
	C124.018478,69.327126 121.469879,74.853676 121.164734,80.487221 
	C120.292648,96.587875 120.213142,112.738609 120.145264,128.871017 
	C120.126625,133.298233 120.783592,137.856049 121.950974,142.129852 
	C123.602631,148.176636 126.015976,154.015366 128.103760,159.943024 
z"/>
<path fill="#000000" opacity="1.000000" stroke="none" 
	d="
M342.580444,496.017975 
	C353.999481,503.484192 366.120392,508.639618 379.394836,511.058411 
	C380.105835,511.187927 380.723724,511.828796 381.192474,512.615845 
	C348.645782,513.000000 316.291534,513.000000 283.468628,513.000000 
	C283.628845,512.334595 284.198334,511.159119 284.895203,511.077972 
	C304.706116,508.771149 323.773102,503.641724 342.580444,496.017975 
z"/>
<path fill="#D4D4DA" opacity="1.000000" stroke="none" 
	d="
M298.834351,379.910797 
	C294.788757,397.710266 294.275726,415.508545 298.837280,433.702515 
	C298.553345,438.028168 298.114105,441.953552 298.048187,445.885193 
	C297.854706,457.424866 286.995514,468.790924 275.380341,468.942474 
	C259.396332,469.151031 243.404526,469.183899 227.421814,468.929718 
	C215.791061,468.744751 205.006989,457.364441 204.996292,445.722626 
	C204.961426,407.754150 205.027512,369.785431 204.913025,331.817261 
	C204.900146,327.546051 204.454208,323.156799 203.396194,319.030701 
	C200.388992,307.302979 189.324432,299.210297 176.684952,299.003143 
	C164.003326,298.795319 164.004135,298.795349 164.003204,311.316498 
	C163.998627,372.932037 163.993607,434.547577 163.968826,496.638733 
	C157.649612,494.584747 151.350311,492.055206 144.859818,488.747742 
	C144.674591,473.821625 144.729324,459.673187 144.665436,445.525269 
	C144.634705,438.719666 144.380157,431.915039 144.401413,424.661072 
	C144.601959,395.817535 144.628036,367.422943 144.748535,338.572388 
	C144.822922,329.124969 144.802902,320.133453 144.837189,310.673523 
	C144.603394,302.445801 144.068542,294.685669 144.093277,286.927368 
	C144.120667,278.336853 144.593185,269.744659 145.014450,261.160217 
	C145.150803,258.381714 145.737183,255.625320 146.333435,252.556366 
	C150.892853,244.368652 157.570831,240.677734 166.556717,240.984711 
	C171.025131,241.137360 175.499786,241.106903 179.720337,241.386627 
	C170.325043,243.994385 165.530014,250.257996 164.210205,259.276093 
	C163.708359,262.705261 163.961945,266.259094 164.025131,269.753326 
	C164.105881,274.218231 162.684097,280.228455 164.989319,282.697693 
	C167.188553,285.053345 173.341705,283.720062 177.756973,284.003967 
	C192.178925,284.931366 203.943497,290.669006 212.276337,302.826080 
	C218.273102,311.574951 219.866425,321.533142 219.912643,331.722748 
	C220.080307,368.703552 219.973206,405.685577 219.984436,442.667145 
	C219.986832,450.527405 223.303741,453.941650 231.162338,453.980011 
	C244.655289,454.045929 258.148956,454.038300 271.641998,453.983429 
	C279.783203,453.950317 283.015533,450.599701 283.017456,442.361938 
	C283.026093,405.713531 282.965363,369.064972 283.086761,332.416962 
	C283.103699,327.307678 283.467285,322.084351 284.572174,317.114258 
	C288.872925,297.768890 306.147308,284.124084 326.043213,284.014435 
	C336.704132,283.955688 347.365753,284.018860 358.027710,284.490479 
	C358.018036,289.636780 358.007660,294.319611 357.528778,299.001923 
	C346.764954,299.001343 336.464478,298.817047 326.177032,299.102203 
	C322.624786,299.200684 318.903625,299.965393 315.605957,301.288818 
	C302.834961,306.414093 298.251556,316.939301 298.070160,329.808044 
	C297.857178,344.915985 297.995911,360.029266 298.055603,375.139954 
	C298.061890,376.731262 298.562866,378.320557 298.834351,379.910797 
z"/>
<path fill="#FF4343" opacity="1.000000" stroke="none" 
	d="
M87.599113,85.073334 
	C88.039497,97.025581 88.219528,109.110115 88.294197,121.195297 
	C88.339249,128.487762 88.220581,135.781235 87.746460,143.575897 
	C85.771332,145.941147 83.981453,147.653763 82.718262,149.692673 
	C73.866592,163.980133 66.514977,178.958069 61.389114,195.035995 
	C56.187218,211.352417 52.656536,227.927872 51.871960,245.365265 
	C45.846176,250.673615 44.143387,257.226044 44.416595,264.783081 
	C38.050396,269.479309 32.870216,274.731323 30.129379,282.439697 
	C24.346794,299.650970 30.148296,317.304260 44.080818,325.555359 
	C44.321663,350.569122 44.402122,375.212646 44.482586,399.856171 
	C36.992119,385.117706 28.347956,370.831665 22.340734,355.511597 
	C16.516174,340.657349 13.055060,324.825134 9.256196,309.251617 
	C7.602615,302.472748 7.510993,295.279449 7.048879,288.252106 
	C6.506744,280.007874 5.961374,271.734406 6.071465,263.482361 
	C6.371641,240.982346 9.882539,218.947983 16.259668,197.344757 
	C23.882553,171.521393 35.769463,147.764664 51.078262,125.741562 
	C61.471684,110.789680 74.142960,97.754982 87.599113,85.073334 
z"/>
<path fill="#ECECF1" opacity="1.000000" stroke="none" 
	d="
M107.822807,466.992340 
	C101.201118,461.817627 94.269592,456.987152 88.038643,451.378357 
	C80.761871,444.828247 74.096634,437.598816 67.357208,430.051941 
	C67.706100,427.470123 68.000710,425.500519 68.001656,423.530823 
	C68.026779,371.121979 68.072746,318.713013 67.982986,266.304321 
	C67.962509,254.349426 72.006332,245.291397 84.463760,241.106262 
	C93.934586,240.212433 100.960960,243.584259 106.154175,251.443817 
	C106.885628,255.014709 107.950340,258.223572 108.005867,261.449799 
	C108.296761,278.350006 108.331909,295.254578 108.356033,312.604126 
	C108.362617,322.082733 108.469116,331.114868 108.484161,340.595642 
	C108.487106,360.067932 108.581497,379.091553 108.557320,398.559875 
	C108.409584,419.704651 108.394371,440.404816 108.328575,461.104858 
	C108.322334,463.067841 107.998955,465.029877 107.822807,466.992340 
z"/>
<path fill="#D4D4DA" opacity="1.000000" stroke="none" 
	d="
M84.020775,241.162643 
	C72.006332,245.291397 67.962509,254.349426 67.982986,266.304321 
	C68.072746,318.713013 68.026779,371.121979 68.001656,423.530823 
	C68.000710,425.500519 67.706100,427.470123 67.245979,429.733276 
	C59.611259,420.180756 52.278900,410.334656 44.714561,400.172363 
	C44.402122,375.212646 44.321663,350.569122 44.353767,325.222443 
	C44.560482,315.715179 44.654633,306.911041 44.818214,297.632294 
	C44.828335,286.310394 44.769024,275.463165 44.709717,264.615906 
	C44.143387,257.226044 45.846176,250.673615 52.206047,245.237610 
	C56.391754,243.553894 60.013138,241.509659 63.779480,241.193741 
	C70.480301,240.631714 77.268898,241.116013 84.020775,241.162643 
z"/>
<path fill="#FF4343" opacity="1.000000" stroke="none" 
	d="
M107.995941,467.305664 
	C107.998955,465.029877 108.322334,463.067841 108.328575,461.104858 
	C108.394371,440.404816 108.409584,419.704651 108.846619,398.616882 
	C113.435966,401.917542 117.407433,405.884399 121.846413,409.231110 
	C129.147217,414.735474 136.750946,419.838043 144.226959,425.109985 
	C144.380157,431.915039 144.634705,438.719666 144.665436,445.525269 
	C144.729324,459.673187 144.674591,473.821625 144.636627,488.424774 
	C133.167603,482.186249 121.731071,475.491943 110.292389,468.801300 
	C109.593307,468.392365 108.877235,468.012451 107.995941,467.305664 
z"/>
<path fill="#FDFEFF" opacity="1.000000" stroke="none" 
	d="
M128.435623,160.006073 
	C126.015976,154.015366 123.602631,148.176636 121.950974,142.129852 
	C120.783592,137.856049 120.126625,133.298233 120.145264,128.871017 
	C120.213142,112.738609 120.292648,96.587875 121.164734,80.487221 
	C121.469879,74.853676 124.018478,69.327126 125.665909,63.788387 
	C126.275459,61.739086 127.239090,59.795097 128.072449,57.429993 
	C129.199493,56.151714 130.436127,55.371723 131.369522,54.322067 
	C141.350723,43.097538 153.076263,35.262924 168.705627,34.991901 
	C188.831223,34.642910 208.956665,34.152821 229.083801,34.053703 
	C261.078949,33.896133 293.076996,33.835129 325.070435,34.117882 
	C334.825165,34.204094 344.700378,34.968254 353.602020,39.827332 
	C370.180817,48.877094 380.786926,62.279991 381.904144,81.547340 
	C382.837189,97.637756 383.372803,113.816345 382.824646,129.912994 
	C381.891205,157.324097 365.022949,176.263840 341.040009,181.412064 
	C336.534058,182.379303 331.844513,182.915787 327.238190,182.925354 
	C276.744843,183.030304 226.250656,183.120026 175.757843,182.923309 
	C157.364929,182.851669 141.625793,176.519577 130.403107,161.132248 
	C130.045074,160.641342 129.320953,160.417480 128.435623,160.006073 
M177.064713,167.661224 
	C178.225906,167.708725 179.387100,167.797592 180.548294,167.797745 
	C227.531097,167.803741 274.513916,167.821472 321.496674,167.769974 
	C326.145721,167.764877 330.812195,167.513596 335.439911,167.062271 
	C351.668335,165.479660 366.011047,151.602295 366.958527,135.268250 
	C367.892670,119.164963 368.056519,102.974251 367.641998,86.845451 
	C367.015717,62.477509 347.674377,48.601704 327.534454,49.582790 
	C309.583649,50.457241 291.556519,49.749794 273.563141,49.770123 
	C241.412796,49.806442 209.262482,49.865101 176.182526,49.710018 
	C152.847931,47.774597 136.280182,65.352104 135.706863,83.543961 
	C135.151810,101.155930 134.835434,118.882980 136.207260,136.419220 
	C137.715729,155.702148 157.761063,170.096939 177.064713,167.661224 
z"/>
<path fill="#FF4343" opacity="1.000000" stroke="none" 
	d="
M414.932861,85.388153 
	C434.398560,102.318375 450.803680,122.079704 463.873749,144.553925 
	C476.035919,165.467041 485.114197,187.715866 490.486755,211.250168 
	C493.344788,223.769577 494.534515,236.707520 495.892181,249.518524 
	C496.796051,258.047882 497.573822,266.768768 496.805786,275.259003 
	C495.335999,291.507294 492.922272,307.682190 490.482025,323.824341 
	C489.592133,329.710907 487.511627,335.417480 485.592438,341.492188 
	C478.226257,334.893250 471.242004,328.008331 464.542511,320.958923 
	C475.577515,309.480103 478.278595,294.639435 472.006897,280.607239 
	C467.420929,275.081604 462.906708,269.901794 458.383301,264.287476 
	C458.953827,256.393097 456.408234,250.167511 450.975769,244.628510 
	C450.671326,240.712753 450.390167,237.251801 450.031067,233.798935 
	C447.027679,204.920990 437.311890,178.310364 422.584534,153.457260 
	C420.542877,150.011887 417.531311,147.141281 414.968750,144.004593 
	C414.903473,124.615654 414.838226,105.226723 414.932861,85.388153 
z"/>
<path fill="#FF5757" opacity="1.000000" stroke="none" 
	d="
M414.857727,144.448792 
	C417.531311,147.141281 420.542877,150.011887 422.584534,153.457260 
	C437.311890,178.310364 447.027679,204.920990 450.031067,233.798935 
	C450.390167,237.251801 450.671326,240.712753 450.639832,244.504364 
	C445.349640,241.385849 439.849701,240.447922 433.511139,241.134369 
	C427.931702,241.036423 422.799561,241.242294 417.695801,240.951340 
	C408.823242,240.445511 401.957611,243.727478 396.522461,251.038177 
	C383.077637,250.730057 370.085602,250.336121 357.848480,255.907440 
	C353.713562,245.349976 347.413422,241.030060 336.442535,241.004425 
	C324.312653,240.976074 312.182678,240.972458 300.065308,240.605957 
	C305.802704,231.367828 307.980957,221.607437 307.257507,211.131653 
	C321.893738,211.087585 336.529938,211.014542 351.166199,211.005081 
	C388.835510,210.980728 414.471100,185.517334 414.681976,147.885406 
	C414.687561,146.887848 414.724426,145.890442 414.857727,144.448792 
z"/>
<path fill="#FF5757" opacity="1.000000" stroke="none" 
	d="
M84.463760,241.106262 
	C77.268898,241.116013 70.480301,240.631714 63.779480,241.193741 
	C60.013138,241.509659 56.391754,243.553894 52.370972,244.947128 
	C52.656536,227.927872 56.187218,211.352417 61.389114,195.035995 
	C66.514977,178.958069 73.866592,163.980133 82.718262,149.692673 
	C83.981453,147.653763 85.771332,145.941147 87.666725,144.039185 
	C88.399452,154.619919 88.810432,165.277435 93.547874,175.073730 
	C105.168861,199.104187 124.446640,211.004044 151.576538,210.898956 
	C166.311783,210.906418 180.589691,210.983643 195.336090,211.565186 
	C194.767975,222.536804 197.973694,231.948090 202.515411,240.946533 
	C194.688599,241.041626 187.330109,241.100449 179.971619,241.159271 
	C175.499786,241.106903 171.025131,241.137360 166.556717,240.984711 
	C157.570831,240.677734 150.892853,244.368652 145.899704,252.410553 
	C132.174072,252.074738 119.097946,251.582275 106.021812,251.089798 
	C100.960960,243.584259 93.934586,240.212433 84.463760,241.106262 
z"/>
<path fill="#D4D4DA" opacity="1.000000" stroke="none" 
	d="
M306.771515,211.092804 
	C307.980957,221.607437 305.802704,231.367828 299.593811,240.624176 
	C274.723022,240.977844 250.336288,240.961212 225.916595,240.594208 
	C220.095718,231.357864 218.117188,221.561020 218.915070,211.100281 
	C248.038559,211.084839 277.162048,211.069382 306.771515,211.092804 
z"/>
<path fill="#BABAC0" opacity="1.000000" stroke="none" 
	d="
M218.455383,211.068573 
	C218.117188,221.561020 220.095718,231.357864 225.453461,240.614288 
	C217.676758,240.959885 210.330261,240.935059 202.983749,240.910248 
	C197.973694,231.948090 194.767975,222.536804 195.787750,211.616852 
	C203.179169,211.121765 210.587433,211.079315 218.455383,211.068573 
z"/>
<path fill="#6D80D9" opacity="1.000000" stroke="none" 
	d="
M464.257782,321.123413 
	C471.242004,328.008331 478.226257,334.893250 485.520813,341.887634 
	C497.557068,357.483246 504.656433,374.719177 507.117645,394.127686 
	C510.138947,417.953186 504.865631,439.846100 493.454956,460.876709 
	C485.190857,464.299164 477.428467,468.205475 469.231232,470.659271 
	C450.102875,476.385254 430.737854,476.908051 411.276001,470.703552 
	C419.881104,465.287415 426.695679,458.448456 431.044800,449.322968 
	C434.018463,443.083496 430.284912,436.306000 424.305939,437.640503 
	C421.598053,438.244873 418.744690,441.104889 417.238129,443.688507 
	C410.114380,455.905273 398.137207,462.235229 383.854828,460.298950 
	C383.382751,459.413727 383.062744,458.812500 382.581696,458.398254 
	C374.737122,451.643616 366.885773,444.896545 358.987823,438.204559 
	C358.302765,437.624115 357.279816,437.442413 356.244934,436.737244 
	C353.610870,422.886749 357.839935,411.995667 368.740906,403.610962 
	C373.389832,400.035126 374.251038,395.792175 371.377289,392.083771 
	C368.513031,388.387604 364.460419,388.287079 359.527588,391.724854 
	C352.103760,396.898712 347.268463,404.132538 343.259064,412.034363 
	C340.510651,404.148315 336.757660,396.454620 335.203888,388.339844 
	C330.704712,364.842743 334.307678,342.253265 345.041168,320.829498 
	C345.548859,319.816132 345.715149,318.631775 346.270081,316.884674 
	C350.381683,313.868134 354.263641,311.493958 358.538330,309.114441 
	C360.682190,308.675110 362.425385,308.205383 364.185822,307.813019 
	C374.451965,305.525055 384.722168,303.255280 395.459290,301.009033 
	C403.295197,301.337799 410.662750,301.636871 418.378906,302.105286 
	C432.797394,304.772491 445.831024,309.999268 458.305725,317.466278 
	C460.424103,318.843964 462.340942,319.983673 464.257782,321.123413 
M449.249451,420.185516 
	C444.787720,416.470184 439.501007,415.328217 433.875336,415.311676 
	C425.382568,415.286652 416.889252,415.353302 408.396881,415.287323 
	C398.347015,415.209229 393.785431,409.464203 395.743164,399.178375 
	C397.181244,399.558716 398.617310,399.892120 400.025299,400.318329 
	C410.049988,403.353058 419.996002,406.696655 430.141296,409.249512 
	C432.660522,409.883484 436.725677,408.816193 438.413574,406.990204 
	C439.926971,405.352997 440.136627,401.132080 439.092896,398.909760 
	C438.111633,396.820435 434.916626,395.311676 432.389069,394.487061 
	C421.328278,390.878479 410.185791,387.508118 399.003967,384.291016 
	C396.116394,383.460236 394.930786,382.263550 395.008606,379.152740 
	C395.081421,376.241577 395.699646,374.359497 398.420319,372.701385 
	C407.522583,367.153961 407.599670,358.062561 407.234070,348.837677 
	C406.910950,340.684662 403.104523,334.703033 395.737396,331.615845 
	C388.044403,328.392120 380.456055,329.023407 373.702911,334.574158 
	C366.590210,340.420380 366.671265,348.415070 366.948669,356.526550 
	C367.202362,363.943787 370.337219,369.757416 376.841553,373.296082 
	C379.498444,374.741516 380.185944,376.414734 380.143433,379.182556 
	C380.013062,387.673279 379.950806,396.171021 380.147125,404.659454 
	C380.455658,417.998108 390.451660,429.097351 403.660645,430.062988 
	C413.602203,430.789764 423.619263,430.490082 433.602875,430.634308 
	C440.224854,430.729950 441.235657,431.683075 441.278320,438.121490 
	C441.312531,443.283600 441.286224,448.446106 441.286285,453.608429 
	C441.286499,469.074799 443.278351,470.954376 458.539307,469.889496 
	C458.871368,469.866333 459.208099,469.882996 459.536316,469.836365 
	C463.731079,469.240448 466.985779,465.996002 466.725281,462.206848 
	C466.439575,458.050842 464.079987,455.523438 459.837769,454.933533 
	C458.895172,454.802460 457.962677,454.598907 456.612274,454.353699 
	C456.612274,448.831512 456.619690,443.531464 456.610474,438.231445 
	C456.598755,431.501160 455.070343,425.353302 449.249451,420.185516 
z"/>
<path fill="#FCFDFE" opacity="1.000000" stroke="none" 
	d="
M343.201477,412.428131 
	C347.268463,404.132538 352.103760,396.898712 359.527588,391.724854 
	C364.460419,388.287079 368.513031,388.387604 371.377289,392.083771 
	C374.251038,395.792175 373.389832,400.035126 368.740906,403.610962 
	C357.839935,411.995667 353.610870,422.886749 356.333527,437.121460 
	C360.955383,451.141266 370.084686,458.731232 383.931976,460.669983 
	C398.137207,462.235229 410.114380,455.905273 417.238129,443.688507 
	C418.744690,441.104889 421.598053,438.244873 424.305939,437.640503 
	C430.284912,436.306000 434.018463,443.083496 431.044800,449.322968 
	C426.695679,458.448456 419.881104,465.287415 410.911621,470.521545 
	C398.447784,476.305664 385.893341,477.931610 372.910980,473.704254 
	C350.077423,466.269043 333.327759,441.094818 343.201477,412.428131 
z"/>
<path fill="#EBEBF0" opacity="1.000000" stroke="none" 
	d="
M358.145599,309.119781 
	C354.263641,311.493958 350.381683,313.868134 346.281372,316.490051 
	C324.254913,330.298248 309.246521,349.260071 300.945099,373.546661 
	C300.302704,375.425995 299.696198,377.317596 298.953674,379.557129 
	C298.562866,378.320557 298.061890,376.731262 298.055603,375.139954 
	C297.995911,360.029266 297.857178,344.915985 298.070160,329.808044 
	C298.251556,316.939301 302.834961,306.414093 315.605957,301.288818 
	C318.903625,299.965393 322.624786,299.200684 326.177032,299.102203 
	C336.464478,298.817047 346.764954,299.001343 357.536530,299.458130 
	C358.057037,302.983154 358.101318,306.051483 358.145599,309.119781 
z"/>
<path fill="#ECECF1" opacity="1.000000" stroke="none" 
	d="
M202.515411,240.946533 
	C210.330261,240.935059 217.676758,240.959885 225.486420,240.964645 
	C250.336288,240.961212 274.723022,240.977844 299.581268,240.976257 
	C312.182678,240.972458 324.312653,240.976074 336.442535,241.004425 
	C347.413422,241.030060 353.713562,245.349976 357.854523,256.353271 
	C357.991211,266.105804 358.009125,275.066437 358.027039,284.027039 
	C347.365753,284.018860 336.704132,283.955688 326.043213,284.014435 
	C306.147308,284.124084 288.872925,297.768890 284.572174,317.114258 
	C283.467285,322.084351 283.103699,327.307678 283.086761,332.416962 
	C282.965363,369.064972 283.026093,405.713531 283.017456,442.361938 
	C283.015533,450.599701 279.783203,453.950317 271.641998,453.983429 
	C258.148956,454.038300 244.655289,454.045929 231.162338,453.980011 
	C223.303741,453.941650 219.986832,450.527405 219.984436,442.667145 
	C219.973206,405.685577 220.080307,368.703552 219.912643,331.722748 
	C219.866425,321.533142 218.273102,311.574951 212.276337,302.826080 
	C203.943497,290.669006 192.178925,284.931366 177.756973,284.003967 
	C173.341705,283.720062 167.188553,285.053345 164.989319,282.697693 
	C162.684097,280.228455 164.105881,274.218231 164.025131,269.753326 
	C163.961945,266.259094 163.708359,262.705261 164.210205,259.276093 
	C165.530014,250.257996 170.325043,243.994385 179.720337,241.386627 
	C187.330109,241.100449 194.688599,241.041626 202.515411,240.946533 
M234.040283,267.143005 
	C230.240097,268.247070 228.936615,270.960754 228.975861,274.699066 
	C229.043777,281.170624 228.884628,287.646576 229.069702,294.113556 
	C229.117752,295.792633 229.595932,298.139160 230.745438,298.955353 
	C232.703049,300.345276 235.566589,301.803986 237.658325,301.365936 
	C241.417419,300.578735 243.838364,297.497589 243.942078,293.379272 
	C244.088287,287.574432 244.045456,281.762695 243.975266,275.955170 
	C243.899628,269.696442 241.156189,267.073212 234.040283,267.143005 
M259.007751,286.442261 
	C259.017914,288.936890 258.848511,291.448212 259.078430,293.922424 
	C259.466888,298.102448 263.769623,302.144989 267.314209,301.918152 
	C271.095398,301.676178 273.923309,298.165039 273.986237,293.370850 
	C274.066956,287.218079 274.059509,281.062836 273.990417,274.909821 
	C273.930084,269.537323 271.875580,267.230988 267.162018,266.988922 
	C262.709381,266.760254 259.349335,269.731323 259.067596,274.491577 
	C258.851746,278.138123 259.013794,281.807068 259.007751,286.442261 
z"/>
<path fill="#FF5859" opacity="1.000000" stroke="none" 
	d="
M144.401413,424.661072 
	C136.750946,419.838043 129.147217,414.735474 121.846413,409.231110 
	C117.407433,405.884399 113.435966,401.917542 108.965195,398.172241 
	C108.581497,379.091553 108.487106,360.067932 108.900490,340.552429 
	C121.156891,339.716461 132.905502,339.372375 144.654114,339.028320 
	C144.628036,367.422943 144.601959,395.817535 144.401413,424.661072 
z"/>
<path fill="#BEB8BE" opacity="1.000000" stroke="none" 
	d="
M106.154175,251.443817 
	C119.097946,251.582275 132.174072,252.074738 145.683960,252.713013 
	C145.737183,255.625320 145.150803,258.381714 145.014450,261.160217 
	C144.593185,269.744659 144.120667,278.336853 144.093277,286.927368 
	C144.068542,294.685669 144.603394,302.445801 144.433807,310.634277 
	C139.891006,311.380371 135.810120,311.878815 131.719772,311.975189 
	C123.968033,312.157837 116.210861,312.109863 108.455948,312.157654 
	C108.331909,295.254578 108.296761,278.350006 108.005867,261.449799 
	C107.950340,258.223572 106.885628,255.014709 106.154175,251.443817 
z"/>
<path fill="#BABAC0" opacity="1.000000" stroke="none" 
	d="
M358.027710,284.490479 
	C358.009125,275.066437 357.991211,266.105804 357.967285,256.699371 
	C370.085602,250.336121 383.077637,250.730057 396.368805,251.386703 
	C396.114075,254.797928 395.094788,257.833160 395.054657,260.881256 
	C394.878754,274.245239 394.986267,287.612946 394.990997,300.979309 
	C384.722168,303.255280 374.451965,305.525055 364.185822,307.813019 
	C362.425385,308.205383 360.682190,308.675110 358.538330,309.114441 
	C358.101318,306.051483 358.057037,302.983154 358.005005,299.458649 
	C358.007660,294.319611 358.018036,289.636780 358.027710,284.490479 
z"/>
<path fill="#A1A1A7" opacity="1.000000" stroke="none" 
	d="
M108.356033,312.604126 
	C116.210861,312.109863 123.968033,312.157837 131.719772,311.975189 
	C135.810120,311.878815 139.891006,311.380371 144.379532,311.102722 
	C144.802902,320.133453 144.822922,329.124969 144.748535,338.572388 
	C132.905502,339.372375 121.156891,339.716461 108.991943,340.103760 
	C108.469116,331.114868 108.362617,322.082733 108.356033,312.604126 
z"/>
<path fill="#A2A0A6" opacity="1.000000" stroke="none" 
	d="
M44.748791,298.106934 
	C44.654633,306.911041 44.560482,315.715179 44.193382,324.852203 
	C30.148296,317.304260 24.346794,299.650970 30.350422,282.670715 
	C35.386719,287.721802 40.067757,292.914368 44.748791,298.106934 
z"/>
<path fill="#C5B0B5" opacity="1.000000" stroke="none" 
	d="
M44.818222,297.632294 
	C40.067757,292.914368 35.386719,287.721802 30.484638,282.298218 
	C32.870216,274.731323 38.050396,269.479309 44.416595,264.783081 
	C44.769024,275.463165 44.828335,286.310394 44.818222,297.632294 
z"/>
<path fill="#65DCFC" opacity="1.000000" stroke="none" 
	d="
M177.112152,49.914421 
	C209.262482,49.865101 241.412796,49.806442 273.563141,49.770123 
	C291.556519,49.749794 309.583649,50.457241 327.534454,49.582790 
	C347.674377,48.601704 367.015717,62.477509 367.641998,86.845451 
	C368.056519,102.974251 367.892670,119.164963 366.958527,135.268250 
	C366.011047,151.602295 351.668335,165.479660 335.439911,167.062271 
	C330.812195,167.513596 326.145721,167.764877 321.496674,167.769974 
	C274.513916,167.821472 227.531097,167.803741 180.548294,167.797745 
	C179.387100,167.797592 178.225906,167.708725 176.555389,167.113281 
	C162.523621,155.515930 157.174805,141.132706 157.920105,123.889992 
	C158.407700,112.609360 158.191803,101.287025 157.969742,89.989685 
	C157.642868,73.359695 163.894608,60.007347 177.112152,49.914421 
M227.936386,140.525604 
	C242.268204,152.426193 261.983765,152.511948 274.862213,140.729691 
	C279.409302,136.569672 280.031860,132.783905 276.777527,129.083145 
	C273.507599,125.364670 269.905945,125.471161 265.024872,129.430618 
	C256.721893,136.165848 246.283234,136.170792 237.988739,129.443405 
	C233.184525,125.546898 229.929062,125.336105 226.575729,128.704483 
	C223.188156,132.107254 223.427170,135.371353 227.936386,140.525604 
M177.516693,84.164658 
	C174.278915,88.844704 174.297058,92.139755 177.577576,95.225052 
	C180.640594,98.105789 184.344025,97.828468 188.773254,94.386673 
	C198.010895,87.208427 206.850266,87.228622 215.994019,94.448853 
	C220.439774,97.959358 225.039902,97.944832 227.891739,94.411278 
	C230.660294,90.980911 229.893112,86.992867 225.709167,83.065582 
	C212.680374,70.836044 193.384216,71.073021 177.516693,84.164658 
M307.733337,90.410950 
	C310.217377,92.041336 312.744995,93.609695 315.175446,95.316406 
	C318.966766,97.978745 323.266083,97.741226 325.954468,94.612038 
	C328.722382,91.390282 328.382996,87.314331 325.061310,83.885521 
	C312.615692,71.038559 289.647339,70.878365 276.723572,83.548393 
	C272.740875,87.452919 272.210022,91.024902 275.096619,94.496468 
	C277.900543,97.868607 282.687866,98.090714 286.604401,94.681351 
	C292.629578,89.436363 299.347839,87.872253 307.733337,90.410950 
z"/>
<path fill="#03D2FC" opacity="1.000000" stroke="none" 
	d="
M176.647339,49.812222 
	C163.894608,60.007347 157.642868,73.359695 157.969742,89.989685 
	C158.191803,101.287025 158.407700,112.609360 157.920105,123.889992 
	C157.174805,141.132706 162.523621,155.515930 176.290253,166.828979 
	C157.761063,170.096939 137.715729,155.702148 136.207260,136.419220 
	C134.835434,118.882980 135.151810,101.155930 135.706863,83.543961 
	C136.280182,65.352104 152.847931,47.774597 176.647339,49.812222 
z"/>
<path fill="#ECEBF1" opacity="1.000000" stroke="none" 
	d="
M458.104248,317.228302 
	C445.831024,309.999268 432.797394,304.772491 418.376160,301.642212 
	C418.023468,289.237915 418.230316,277.461304 417.962738,265.695496 
	C417.690308,253.716782 422.441223,245.326050 433.971222,241.214569 
	C439.849701,240.447922 445.349640,241.385849 450.627014,244.962921 
	C456.408234,250.167511 458.953827,256.393097 458.283325,264.765625 
	C458.267151,276.505859 458.341858,287.333496 458.344788,298.612549 
	C458.216705,305.118744 458.160492,311.173523 458.104248,317.228302 
z"/>
<path fill="#A2A0A6" opacity="1.000000" stroke="none" 
	d="
M458.305725,317.466278 
	C458.160492,311.173523 458.216705,305.118744 458.638184,298.507568 
	C464.419708,293.098877 470.636932,288.862640 472.078644,280.953064 
	C478.278595,294.639435 475.577515,309.480103 464.542511,320.958923 
	C462.340942,319.983673 460.424103,318.843964 458.305725,317.466278 
z"/>
<path fill="#BEBBC1" opacity="1.000000" stroke="none" 
	d="
M472.006897,280.607239 
	C470.636932,288.862640 464.419708,293.098877 458.710022,298.056122 
	C458.341858,287.333496 458.267151,276.505859 458.292450,265.200104 
	C462.906708,269.901794 467.420929,275.081604 472.006897,280.607239 
z"/>
<path fill="#D4D4DA" opacity="1.000000" stroke="none" 
	d="
M433.511139,241.134369 
	C422.441223,245.326050 417.690308,253.716782 417.962738,265.695496 
	C418.230316,277.461304 418.023468,289.237915 418.027588,301.472839 
	C410.662750,301.636871 403.295197,301.337799 395.459290,301.009033 
	C394.986267,287.612946 394.878754,274.245239 395.054657,260.881256 
	C395.094788,257.833160 396.114075,254.797928 396.836365,251.408234 
	C401.957611,243.727478 408.823242,240.445511 417.695801,240.951340 
	C422.799561,241.242294 427.931702,241.036423 433.511139,241.134369 
z"/>
<path fill="#FCFDFE" opacity="1.000000" stroke="none" 
	d="
M449.526123,420.420959 
	C455.070343,425.353302 456.598755,431.501160 456.610474,438.231445 
	C456.619690,443.531464 456.612274,448.831512 456.612274,454.353699 
	C457.962677,454.598907 458.895172,454.802460 459.837769,454.933533 
	C464.079987,455.523438 466.439575,458.050842 466.725281,462.206848 
	C466.985779,465.996002 463.731079,469.240448 459.536316,469.836365 
	C459.208099,469.882996 458.871368,469.866333 458.539307,469.889496 
	C443.278351,470.954376 441.286499,469.074799 441.286285,453.608429 
	C441.286224,448.446106 441.312531,443.283600 441.278320,438.121490 
	C441.235657,431.683075 440.224854,430.729950 433.602875,430.634308 
	C423.619263,430.490082 413.602203,430.789764 403.660645,430.062988 
	C390.451660,429.097351 380.455658,417.998108 380.147125,404.659454 
	C379.950806,396.171021 380.013062,387.673279 380.143433,379.182556 
	C380.185944,376.414734 379.498444,374.741516 376.841553,373.296082 
	C370.337219,369.757416 367.202362,363.943787 366.948669,356.526550 
	C366.671265,348.415070 366.590210,340.420380 373.702911,334.574158 
	C380.456055,329.023407 388.044403,328.392120 395.737396,331.615845 
	C403.104523,334.703033 406.910950,340.684662 407.234070,348.837677 
	C407.599670,358.062561 407.522583,367.153961 398.420319,372.701385 
	C395.699646,374.359497 395.081421,376.241577 395.008606,379.152740 
	C394.930786,382.263550 396.116394,383.460236 399.003967,384.291016 
	C410.185791,387.508118 421.328278,390.878479 432.389069,394.487061 
	C434.916626,395.311676 438.111633,396.820435 439.092896,398.909760 
	C440.136627,401.132080 439.926971,405.352997 438.413574,406.990204 
	C436.725677,408.816193 432.660522,409.883484 430.141296,409.249512 
	C419.996002,406.696655 410.049988,403.353058 400.025299,400.318329 
	C398.617310,399.892120 397.181244,399.558716 395.743164,399.178375 
	C393.785431,409.464203 398.347015,415.209229 408.396881,415.287323 
	C416.889252,415.353302 425.382568,415.286652 433.875336,415.311676 
	C439.501007,415.328217 444.787720,416.470184 449.526123,420.420959 
M383.501129,346.017212 
	C383.064606,349.983368 382.066864,353.992981 382.369263,357.901978 
	C382.610840,361.024628 389.038391,362.605194 390.259888,359.848816 
	C391.852448,356.255035 392.275757,351.614563 391.602020,347.699921 
	C390.980652,344.089752 387.198944,344.578674 383.501129,346.017212 
z"/>
<path fill="#546AD2" opacity="1.000000" stroke="none" 
	d="
M383.854828,460.298950 
	C370.084686,458.731232 360.955383,451.141266 356.502441,437.459717 
	C357.279816,437.442413 358.302765,437.624115 358.987823,438.204559 
	C366.885773,444.896545 374.737122,451.643616 382.581696,458.398254 
	C383.062744,458.812500 383.382751,459.413727 383.854828,460.298950 
z"/>
<path fill="#D4D4DA" opacity="1.000000" stroke="none" 
	d="
M234.441010,267.085052 
	C241.156189,267.073212 243.899628,269.696442 243.975266,275.955170 
	C244.045456,281.762695 244.088287,287.574432 243.942078,293.379272 
	C243.838364,297.497589 241.417419,300.578735 237.658325,301.365936 
	C235.566589,301.803986 232.703049,300.345276 230.745438,298.955353 
	C229.595932,298.139160 229.117752,295.792633 229.069702,294.113556 
	C228.884628,287.646576 229.043777,281.170624 228.975861,274.699066 
	C228.936615,270.960754 230.240097,268.247070 234.441010,267.085052 
z"/>
<path fill="#D4D4DA" opacity="1.000000" stroke="none" 
	d="
M259.007751,285.954163 
	C259.013794,281.807068 258.851746,278.138123 259.067596,274.491577 
	C259.349335,269.731323 262.709381,266.760254 267.162018,266.988922 
	C271.875580,267.230988 273.930084,269.537323 273.990417,274.909821 
	C274.059509,281.062836 274.066956,287.218079 273.986237,293.370850 
	C273.923309,298.165039 271.095398,301.676178 267.314209,301.918152 
	C263.769623,302.144989 259.466888,298.102448 259.078430,293.922424 
	C258.848511,291.448212 259.017914,288.936890 259.007751,285.954163 
z"/>
<path fill="#FCFEFF" opacity="1.000000" stroke="none" 
	d="
M227.670380,140.273102 
	C223.427170,135.371353 223.188156,132.107254 226.575729,128.704483 
	C229.929062,125.336105 233.184525,125.546898 237.988739,129.443405 
	C246.283234,136.170792 256.721893,136.165848 265.024872,129.430618 
	C269.905945,125.471161 273.507599,125.364670 276.777527,129.083145 
	C280.031860,132.783905 279.409302,136.569672 274.862213,140.729691 
	C261.983765,152.511948 242.268204,152.426193 227.670380,140.273102 
z"/>
<path fill="#FCFEFF" opacity="1.000000" stroke="none" 
	d="
M177.781769,83.907799 
	C193.384216,71.073021 212.680374,70.836044 225.709167,83.065582 
	C229.893112,86.992867 230.660294,90.980911 227.891739,94.411278 
	C225.039902,97.944832 220.439774,97.959358 215.994019,94.448853 
	C206.850266,87.228622 198.010895,87.208427 188.773254,94.386673 
	C184.344025,97.828468 180.640594,98.105789 177.577576,95.225052 
	C174.297058,92.139755 174.278915,88.844704 177.781769,83.907799 
z"/>
<path fill="#FCFEFF" opacity="1.000000" stroke="none" 
	d="
M307.358521,90.277451 
	C299.347839,87.872253 292.629578,89.436363 286.604401,94.681351 
	C282.687866,98.090714 277.900543,97.868607 275.096619,94.496468 
	C272.210022,91.024902 272.740875,87.452919 276.723572,83.548393 
	C289.647339,70.878365 312.615692,71.038559 325.061310,83.885521 
	C328.382996,87.314331 328.722382,91.390282 325.954468,94.612038 
	C323.266083,97.741226 318.966766,97.978745 315.175446,95.316406 
	C312.744995,93.609695 310.217377,92.041336 307.358521,90.277451 
z"/>
<path fill="#6F81DA" opacity="1.000000" stroke="none" 
	d="
M383.840759,345.762817 
	C387.198944,344.578674 390.980652,344.089752 391.602020,347.699921 
	C392.275757,351.614563 391.852448,356.255035 390.259888,359.848816 
	C389.038391,362.605194 382.610840,361.024628 382.369263,357.901978 
	C382.066864,353.992981 383.064606,349.983368 383.840759,345.762817 
z"/>
</svg>