<svg version="1.1" id="Layer_1" xmlns="http://www.w3.org/2000/svg" xmlns:xlink="http://www.w3.org/1999/xlink" x="0px" y="0px"
	 width="100%" viewBox="0 0 512 512" enable-background="new 0 0 512 512" xml:space="preserve">
<path fill="#000000" opacity="1.000000" stroke="none" 
	d="
M292.000000,513.000000 
	C194.690292,513.000000 97.880577,513.000000 1.035435,513.000000 
	C1.035435,342.398590 1.035435,171.797195 1.035435,1.097890 
	C171.559723,1.097890 342.119537,1.097890 512.839661,1.097890 
	C512.839661,171.666550 512.839661,342.333252 512.839661,513.000000 
	C439.463837,513.000000 365.981903,513.000000 292.000000,513.000000 
M257.023102,256.006378 
	C257.056580,250.358780 257.090088,244.711182 257.923370,239.006805 
	C268.338196,236.813354 277.322418,231.649292 284.878754,224.469147 
	C298.322784,211.694427 305.755524,196.067047 305.891571,177.016830 
	C315.228241,176.912506 320.995148,171.028778 320.999451,161.598999 
	C321.002045,155.954865 321.000732,150.310730 320.999756,144.666595 
	C320.998047,134.642105 315.275726,128.991837 305.044464,128.073502 
	C305.029633,125.074196 305.143341,122.067772 304.977783,119.076805 
	C304.256439,106.042976 306.974060,92.804520 302.661926,79.968567 
	C302.389526,79.157654 302.938812,78.081474 303.066711,77.123466 
	C303.718079,72.246162 304.845703,67.373505 304.909271,62.487526 
	C305.112823,46.851078 291.171997,33.017647 275.551056,33.006172 
	C248.389038,32.986217 221.214493,33.494190 194.069809,32.808037 
	C178.725677,32.420177 165.385986,42.224918 161.388489,56.984264 
	C160.662735,59.663853 158.861725,62.245525 157.001373,64.390381 
	C149.714417,72.791748 145.099625,82.215637 145.010361,93.518990 
	C144.916946,105.348045 144.905411,117.177750 144.039993,129.001221 
	C134.956390,129.057495 129.010468,134.981110 129.001053,143.991943 
	C128.995331,149.468491 128.999985,154.945038 129.000031,160.421585 
	C129.000122,171.350540 134.102478,176.697723 144.993301,178.029892 
	C145.007507,181.350052 144.423019,184.805222 145.136154,187.967789 
	C148.879349,204.567780 156.264999,219.283539 170.747849,228.923325 
	C177.418686,233.363419 185.458038,235.747467 192.982773,239.985977 
	C192.930786,245.628204 192.878784,251.270432 191.912994,256.973114 
	C171.436035,256.982056 150.953232,257.289459 130.484314,256.888153 
	C118.192024,256.647156 106.788292,259.068573 96.309708,265.360046 
	C76.927551,276.997314 65.433701,294.094269 65.183617,316.782013 
	C64.605637,369.216705 65.000023,421.662048 65.000046,474.103088 
	C65.000046,476.211029 65.000053,478.318970 65.000053,480.852692 
	C86.752556,480.852692 107.846138,480.852692 129.838226,480.945923 
	C132.245621,480.914856 134.653015,480.883789 137.985123,480.953918 
	C174.977142,480.969299 211.969162,481.005341 248.961182,480.992096 
	C270.287781,480.984467 291.614380,480.897278 313.839539,480.939453 
	C316.246002,480.908356 318.652466,480.877258 321.983337,480.952057 
	C342.823059,480.952057 363.662781,480.952057 384.845215,480.952057 
	C384.845215,466.862549 384.845215,453.460754 384.938660,439.176605 
	C384.984711,436.827087 385.030762,434.477570 385.917114,432.022156 
	C392.850677,430.340942 399.966095,429.190155 406.686096,426.886017 
	C434.595428,417.316498 455.147461,398.893402 468.916016,373.041809 
	C480.392395,351.493835 483.247101,328.346344 480.031097,304.293488 
	C476.754700,279.789276 466.017914,258.906311 448.806396,241.475006 
	C438.171936,230.704697 425.608429,222.611740 411.489410,216.682480 
	C393.345581,209.062973 374.400482,207.547211 355.375092,209.323318 
	C339.459869,210.809097 324.318359,216.152283 310.503265,224.776749 
	C296.821625,233.317902 285.151276,243.847198 275.253265,257.101746 
	C269.226471,257.041656 263.199677,256.981567 257.023102,256.006378 
z"/>
<path fill="#0A5078" opacity="1.000000" stroke="none" 
	d="
M128.939713,480.852692 
	C107.846138,480.852692 86.752556,480.852692 65.000053,480.852692 
	C65.000053,478.318970 65.000046,476.211029 65.000046,474.103088 
	C65.000023,421.662048 64.605637,369.216705 65.183617,316.782013 
	C65.433701,294.094269 76.927551,276.997314 96.309708,265.360046 
	C106.788292,259.068573 118.192024,256.647156 130.484314,256.888153 
	C150.953232,257.289459 171.436035,256.982056 192.440720,257.153198 
	C192.968445,257.333313 193.129608,257.746857 193.072662,258.240601 
	C193.057449,279.144897 193.099197,299.555481 193.075867,320.410522 
	C193.073914,323.251160 193.137039,325.647308 193.121307,328.503540 
	C193.029205,345.082550 192.788773,361.205597 193.078369,377.319122 
	C193.289703,389.076904 198.396317,398.356628 209.082886,404.574646 
	C220.005737,410.552063 230.623734,410.829407 241.473083,404.249451 
	C252.024948,397.558167 256.937225,388.099487 256.996857,376.037506 
	C257.067719,361.710022 257.104858,347.382416 257.412659,333.327850 
	C258.053650,336.113159 258.438568,338.625488 258.605469,341.445099 
	C258.275238,343.064362 257.751831,344.504456 258.114532,345.668427 
	C261.707062,357.197937 264.288635,369.228394 269.402039,380.056610 
	C278.149841,398.581146 292.221100,412.890167 309.425537,424.131836 
	C311.224823,425.307526 312.806610,428.289825 312.840485,430.459717 
	C313.102661,447.251556 312.958984,464.049713 312.940979,480.845917 
	C291.614380,480.897278 270.287781,480.984467 248.961182,480.992096 
	C211.969162,481.005341 174.977142,480.969299 137.505005,480.446686 
	C137.016602,435.125183 137.026215,390.310883 136.962997,345.496704 
	C136.958374,342.221039 138.205505,337.384918 133.041855,337.338165 
	C127.843925,337.291168 129.040222,342.126526 129.034988,345.411011 
	C128.963028,390.558167 128.959808,435.705444 128.939713,480.852692 
z"/>
<path fill="#00A0C8" opacity="1.000000" stroke="none" 
	d="
M258.823486,341.137787 
	C258.438568,338.625488 258.053650,336.113159 257.348877,332.916382 
	C256.952515,330.850800 256.875977,329.469757 256.871887,327.638977 
	C256.915497,324.787140 256.886627,322.385010 256.916992,319.525604 
	C257.040466,315.349304 257.104767,311.630249 257.410889,307.627441 
	C260.545166,296.987732 262.936218,286.454742 266.507965,276.338593 
	C268.857300,269.684601 272.909180,263.631744 276.198639,257.309692 
	C285.151276,243.847198 296.821625,233.317902 310.503265,224.776749 
	C324.318359,216.152283 339.459869,210.809097 355.375092,209.323318 
	C374.400482,207.547211 393.345581,209.062973 411.489410,216.682480 
	C425.608429,222.611740 438.171936,230.704697 448.806396,241.475006 
	C466.017914,258.906311 476.754700,279.789276 480.031097,304.293488 
	C483.247101,328.346344 480.392395,351.493835 468.916016,373.041809 
	C455.147461,398.893402 434.595428,417.316498 406.686096,426.886017 
	C399.966095,429.190155 392.850677,430.340942 385.052551,432.024811 
	C373.398438,431.922180 362.396454,433.155518 351.855865,431.482117 
	C303.836487,423.858734 268.581665,389.182922 258.823486,341.137787 
M305.039124,373.650116 
	C304.896210,387.161499 310.597748,392.996735 323.966339,392.998627 
	C353.798462,393.002808 383.630585,393.001434 413.462708,392.999359 
	C427.740784,392.998352 433.430054,387.052765 432.842957,371.822144 
	C432.889069,338.669495 433.033722,305.516479 432.913116,272.364441 
	C432.882355,263.910309 425.966400,257.212341 417.489288,257.069702 
	C406.667786,256.887634 395.839417,257.114746 384.085083,257.025330 
	C373.718658,257.072052 363.352234,257.118744 352.060394,257.019531 
	C341.897186,257.013336 331.733307,256.931610 321.570953,257.022675 
	C311.871887,257.109558 305.052399,263.696472 305.037262,273.276947 
	C304.984924,306.430603 305.080536,339.584534 305.039124,373.650116 
z"/>
<path fill="#F0C8A0" opacity="1.000000" stroke="none" 
	d="
M305.063416,177.122879 
	C305.755524,196.067047 298.322784,211.694427 284.878754,224.469147 
	C277.322418,231.649292 268.338196,236.813354 257.116455,239.079803 
	C235.161118,242.113358 214.016861,242.101593 192.876846,239.063782 
	C185.458038,235.747467 177.418686,233.363419 170.747849,228.923325 
	C156.264999,219.283539 148.879349,204.567780 145.136154,187.967789 
	C144.423019,184.805222 145.007507,181.350052 144.981628,177.100266 
	C144.992722,165.753296 145.015503,155.335968 145.430328,144.942017 
	C155.940475,143.373978 160.941330,137.575226 160.995743,127.333260 
	C161.020477,122.676163 161.000198,118.018837 161.000244,113.361610 
	C161.000305,107.952583 161.000275,102.543556 161.000275,97.361511 
	C204.113998,97.361511 246.440094,97.361511 289.000732,97.361511 
	C289.000732,107.852997 288.944183,117.985344 289.016907,128.116760 
	C289.087463,137.945236 295.061981,144.172592 304.972992,145.391922 
	C305.010559,156.284515 305.036987,166.703690 305.063416,177.122879 
z"/>
<path fill="#0A5078" opacity="1.000000" stroke="none" 
	d="
M304.961853,144.918518 
	C295.061981,144.172592 289.087463,137.945236 289.016907,128.116760 
	C288.944183,117.985344 289.000732,107.852997 289.000732,97.361511 
	C246.440094,97.361511 204.113998,97.361511 161.000275,97.361511 
	C161.000275,102.543556 161.000305,107.952583 161.000244,113.361610 
	C161.000198,118.018837 161.020477,122.676163 160.995743,127.333260 
	C160.941330,137.575226 155.940475,143.373978 145.415253,144.480225 
	C144.958115,138.999100 144.908096,134.003128 144.858078,129.007172 
	C144.905411,117.177750 144.916946,105.348045 145.010361,93.518990 
	C145.099625,82.215637 149.714417,72.791748 157.001373,64.390381 
	C158.861725,62.245525 160.662735,59.663853 161.388489,56.984264 
	C165.385986,42.224918 178.725677,32.420177 194.069809,32.808037 
	C221.214493,33.494190 248.389038,32.986217 275.551056,33.006172 
	C291.171997,33.017647 305.112823,46.851078 304.909271,62.487526 
	C304.845703,67.373505 303.718079,72.246162 303.066711,77.123466 
	C302.938812,78.081474 302.389526,79.157654 302.661926,79.968567 
	C306.974060,92.804520 304.256439,106.042976 304.977783,119.076805 
	C305.143341,122.067772 305.029633,125.074196 305.036194,129.004822 
	C305.005890,134.930252 304.983887,139.924393 304.961853,144.918518 
z"/>
<path fill="#0A5078" opacity="1.000000" stroke="none" 
	d="
M384.845215,440.058960 
	C384.845215,453.460754 384.845215,466.862549 384.845215,480.952057 
	C363.662781,480.952057 342.823059,480.952057 321.505005,480.442932 
	C321.026672,463.772552 321.026672,447.611328 321.026672,430.769379 
	C327.649933,433.091522 333.018951,435.237244 338.541687,436.859650 
	C353.718750,441.318268 369.198761,442.054718 384.845215,440.058960 
z"/>
<path fill="#D2AA82" opacity="1.000000" stroke="none" 
	d="
M192.929810,239.524887 
	C214.016861,242.101593 235.161118,242.113358 256.716553,239.108185 
	C257.090088,244.711182 257.056580,250.358780 257.026459,256.679321 
	C257.029816,257.352234 256.866730,257.775848 256.546021,257.891235 
	C245.856674,268.138367 235.488037,278.270142 224.624466,288.885529 
	C219.442902,283.535339 214.812515,278.575989 209.985046,273.816559 
	C204.457916,268.367310 198.755722,263.095673 193.129608,257.746857 
	C193.129608,257.746857 192.968445,257.333313 192.897614,257.122986 
	C192.878784,251.270432 192.930786,245.628204 192.929810,239.524887 
z"/>
<path fill="#00345C" opacity="1.000000" stroke="none" 
	d="
M384.891937,439.617798 
	C369.198761,442.054718 353.718750,441.318268 338.541687,436.859650 
	C333.018951,435.237244 327.649933,433.091522 321.026672,430.769379 
	C321.026672,447.611328 321.026672,463.772552 321.042786,480.390015 
	C318.652466,480.877258 316.246002,480.908356 313.390259,480.892700 
	C312.958984,464.049713 313.102661,447.251556 312.840485,430.459717 
	C312.806610,428.289825 311.224823,425.307526 309.425537,424.131836 
	C292.221100,412.890167 278.149841,398.581146 269.402039,380.056610 
	C264.288635,369.228394 261.707062,357.197937 258.114532,345.668427 
	C257.751831,344.504456 258.275238,343.064362 258.605469,341.445099 
	C268.581665,389.182922 303.836487,423.858734 351.855865,431.482117 
	C362.396454,433.155518 373.398438,431.922180 384.632385,432.077759 
	C385.030762,434.477570 384.984711,436.827087 384.891937,439.617798 
z"/>
<path fill="#00325A" opacity="1.000000" stroke="none" 
	d="
M129.388977,480.899292 
	C128.959808,435.705444 128.963028,390.558167 129.034988,345.411011 
	C129.040222,342.126526 127.843925,337.291168 133.041855,337.338165 
	C138.205505,337.384918 136.958374,342.221039 136.962997,345.496704 
	C137.026215,390.310883 137.016602,435.125183 137.042664,480.396088 
	C134.653015,480.883789 132.245621,480.914856 129.388977,480.899292 
z"/>
<path fill="#D2AA82" opacity="1.000000" stroke="none" 
	d="
M304.972992,145.391922 
	C304.983887,139.924393 305.005890,134.930252 305.085022,129.471619 
	C315.275726,128.991837 320.998047,134.642105 320.999756,144.666595 
	C321.000732,150.310730 321.002045,155.954865 320.999451,161.598999 
	C320.995148,171.028778 315.228241,176.912506 305.477509,177.069855 
	C305.036987,166.703690 305.010559,156.284515 304.972992,145.391922 
z"/>
<path fill="#D2AA82" opacity="1.000000" stroke="none" 
	d="
M144.449036,129.004196 
	C144.908096,134.003128 144.958115,138.999100 145.023224,144.456848 
	C145.015503,155.335968 144.992722,165.753296 144.953293,176.646790 
	C134.102478,176.697723 129.000122,171.350540 129.000031,160.421585 
	C128.999985,154.945038 128.995331,149.468491 129.001053,143.991943 
	C129.010468,134.981110 134.956390,129.057495 144.449036,129.004196 
z"/>
<path fill="#0A5179" opacity="1.000000" stroke="none" 
	d="
M256.866730,257.775848 
	C256.866730,257.775848 257.029816,257.352234 257.101349,257.136841 
	C263.199677,256.981567 269.226471,257.041656 275.725952,257.205719 
	C272.909180,263.631744 268.857300,269.684601 266.507965,276.338593 
	C262.936218,286.454742 260.545166,296.987732 257.341919,307.170776 
	C256.976410,290.590515 256.921570,274.183197 256.866730,257.775848 
z"/>
<path fill="#C80A50" opacity="1.000000" stroke="none" 
	d="
M241.141068,404.361664 
	C230.623734,410.829407 220.005737,410.552063 209.143478,404.086975 
	C208.939056,373.565033 208.897766,343.792847 208.923737,313.698486 
	C209.032959,312.940704 209.074905,312.505096 209.446655,311.992188 
	C213.756943,308.190643 217.934021,304.650391 221.651199,300.679657 
	C224.281250,297.870178 225.942139,298.215790 228.473007,300.794952 
	C232.378983,304.775391 236.721649,308.327332 240.935883,312.383545 
	C241.041779,313.137573 241.090897,313.569031 241.079681,314.465698 
	C241.059921,344.741119 241.100494,374.551392 241.141068,404.361664 
z"/>
<path fill="#F0EFEE" opacity="1.000000" stroke="none" 
	d="
M256.546021,257.891235 
	C256.921570,274.183197 256.976410,290.590515 257.100159,307.454529 
	C257.104767,311.630249 257.040466,315.349304 256.635315,319.362274 
	C251.268265,315.086426 246.242065,310.516663 241.104874,305.621429 
	C236.403931,300.576080 231.901764,295.763916 227.135117,291.229797 
	C226.366837,290.499023 223.802948,290.374237 223.117645,291.043304 
	C218.187729,295.856445 213.528412,300.946747 208.460815,306.027740 
	C203.139221,310.726257 198.140091,315.346161 193.140945,319.966034 
	C193.099197,299.555481 193.057449,279.144897 193.072662,258.240601 
	C198.755722,263.095673 204.457916,268.367310 209.985046,273.816559 
	C214.812515,278.575989 219.442902,283.535339 224.624466,288.885529 
	C235.488037,278.270142 245.856674,268.138367 256.546021,257.891235 
z"/>
<path fill="#EFEFEF" opacity="1.000000" stroke="none" 
	d="
M241.473083,404.249451 
	C241.100494,374.551392 241.059921,344.741119 241.408142,314.529236 
	C246.797775,318.781311 251.798615,323.434998 256.799438,328.088684 
	C256.875977,329.469757 256.952515,330.850800 257.092834,332.643372 
	C257.104858,347.382416 257.067719,361.710022 256.996857,376.037506 
	C256.937225,388.099487 252.024948,397.558167 241.473083,404.249451 
z"/>
<path fill="#EFEFEF" opacity="1.000000" stroke="none" 
	d="
M208.856476,314.020630 
	C208.897766,343.792847 208.939056,373.565033 208.919739,403.824890 
	C198.396317,398.356628 193.289703,389.076904 193.078369,377.319122 
	C192.788773,361.205597 193.029205,345.082550 193.445206,328.428528 
	C198.850784,323.269226 203.853638,318.644928 208.856476,314.020630 
z"/>
<path fill="#D5D5D5" opacity="1.000000" stroke="none" 
	d="
M208.923752,313.698486 
	C203.853638,318.644928 198.850784,323.269226 193.524048,327.968506 
	C193.137039,325.647308 193.073914,323.251160 193.075867,320.410522 
	C198.140091,315.346161 203.139221,310.726257 208.533707,306.459229 
	C208.991669,308.564545 209.054260,310.317017 209.116852,312.069458 
	C209.074905,312.505096 209.032959,312.940704 208.923752,313.698486 
z"/>
<path fill="#FAB400" opacity="1.000000" stroke="none" 
	d="
M385.014008,257.165497 
	C395.839417,257.114746 406.667786,256.887634 417.489288,257.069702 
	C425.966400,257.212341 432.882355,263.910309 432.913116,272.364441 
	C433.033722,305.516479 432.889069,338.669495 432.621277,372.540955 
	C429.196960,381.564667 424.283783,384.985535 415.327942,384.991547 
	C385.041626,385.011810 354.753662,384.819946 324.470032,385.104980 
	C314.939026,385.194672 308.535065,381.614075 305.119812,372.738342 
	C305.080536,339.584534 304.984924,306.430603 305.037262,273.276947 
	C305.052399,263.696472 311.871887,257.109558 321.570953,257.022675 
	C331.733307,256.931610 341.897186,257.013336 352.526123,257.537720 
	C353.023254,272.178009 353.847015,273.001129 367.948059,273.001221 
	C368.280670,273.001221 368.613312,273.001251 368.945923,273.001251 
	C384.512482,273.001251 384.952972,272.567108 385.014008,257.165497 
M378.323669,357.161530 
	C381.536255,358.906738 384.651489,360.872253 387.984558,362.344757 
	C392.803040,364.473602 395.630280,362.259827 394.796265,357.195038 
	C394.015167,352.451782 393.188721,347.711609 392.201416,343.008026 
	C391.261627,338.530670 391.559540,334.838409 395.663635,331.650665 
	C399.576202,328.611664 402.913910,324.795532 406.289764,321.123779 
	C407.397369,319.919098 408.846375,317.482727 408.363495,316.686310 
	C407.389099,315.079315 405.332062,313.531647 403.482727,313.165253 
	C398.130981,312.104980 392.578308,312.001556 387.274689,310.782135 
	C384.886139,310.232971 382.162720,308.384277 380.882935,306.323212 
	C377.912781,301.540039 375.865906,296.193390 373.144257,291.240295 
	C372.294403,289.693604 370.320465,287.523560 369.149475,287.688354 
	C367.438843,287.929077 365.448242,289.720825 364.530518,291.379120 
	C361.959869,296.024231 359.711517,300.870117 357.659302,305.772156 
	C356.172028,309.324768 353.685638,310.704010 350.016724,311.038574 
	C344.740662,311.519653 339.456451,312.152954 334.264038,313.171570 
	C332.545227,313.508759 330.490479,314.934326 329.744202,316.436127 
	C329.252747,317.425079 330.465149,319.773773 331.539642,320.935486 
	C335.378448,325.085968 339.399628,329.079559 343.522858,332.950378 
	C345.743195,335.034790 346.923035,337.005310 346.126190,340.290863 
	C344.838837,345.598816 343.919739,351.020416 343.266296,356.444733 
	C343.035370,358.361664 343.414062,361.295685 344.650421,362.183655 
	C345.918457,363.094391 348.755554,362.522217 350.586700,361.795105 
	C353.970245,360.451569 357.346405,358.844147 360.320557,356.766724 
	C366.242889,352.629822 371.890564,352.483978 378.323669,357.161530 
z"/>
<path fill="#0182AA" opacity="1.000000" stroke="none" 
	d="
M305.079468,373.194214 
	C308.535065,381.614075 314.939026,385.194672 324.470032,385.104980 
	C354.753662,384.819946 385.041626,385.011810 415.327942,384.991547 
	C424.283783,384.985535 429.196960,381.564667 432.636566,372.992462 
	C433.430054,387.052765 427.740784,392.998352 413.462708,392.999359 
	C383.630585,393.001434 353.798462,393.002808 323.966339,392.998627 
	C310.597748,392.996735 304.896210,387.161499 305.079468,373.194214 
z"/>
<path fill="#BF7900" opacity="1.000000" stroke="none" 
	d="
M384.549561,257.095398 
	C384.952972,272.567108 384.512482,273.001251 368.945923,273.001251 
	C368.613312,273.001251 368.280670,273.001221 367.948059,273.001221 
	C353.847015,273.001129 353.023254,272.178009 352.988831,257.610687 
	C363.352234,257.118744 373.718658,257.072052 384.549561,257.095398 
z"/>
<path fill="#D4D4D4" opacity="1.000000" stroke="none" 
	d="
M256.871918,327.638977 
	C251.798615,323.434998 246.797775,318.781311 241.468475,314.064087 
	C241.090897,313.569031 241.041779,313.137573 241.002472,311.947754 
	C241.080139,309.441925 241.147995,307.694397 241.215866,305.946899 
	C246.242065,310.516663 251.268265,315.086426 256.576111,319.819519 
	C256.886627,322.385010 256.915497,324.787140 256.871918,327.638977 
z"/>
<path fill="#A50D34" opacity="1.000000" stroke="none" 
	d="
M241.104874,305.621429 
	C241.147995,307.694397 241.080139,309.441925 240.945679,311.625244 
	C236.721649,308.327332 232.378983,304.775391 228.473007,300.794952 
	C225.942139,298.215790 224.281250,297.870178 221.651199,300.679657 
	C217.934021,304.650391 213.756943,308.190643 209.446655,311.992188 
	C209.054260,310.317017 208.991669,308.564545 208.856171,306.380615 
	C213.528412,300.946747 218.187729,295.856445 223.117645,291.043304 
	C223.802948,290.374237 226.366837,290.499023 227.135117,291.229797 
	C231.901764,295.763916 236.403931,300.576080 241.104874,305.621429 
z"/>
<path fill="#DC9600" opacity="1.000000" stroke="none" 
	d="
M377.987549,356.998718 
	C371.890564,352.483978 366.242889,352.629822 360.320557,356.766724 
	C357.346405,358.844147 353.970245,360.451569 350.586700,361.795105 
	C348.755554,362.522217 345.918457,363.094391 344.650421,362.183655 
	C343.414062,361.295685 343.035370,358.361664 343.266296,356.444733 
	C343.919739,351.020416 344.838837,345.598816 346.126190,340.290863 
	C346.923035,337.005310 345.743195,335.034790 343.522858,332.950378 
	C339.399628,329.079559 335.378448,325.085968 331.539642,320.935486 
	C330.465149,319.773773 329.252747,317.425079 329.744202,316.436127 
	C330.490479,314.934326 332.545227,313.508759 334.264038,313.171570 
	C339.456451,312.152954 344.740662,311.519653 350.016724,311.038574 
	C353.685638,310.704010 356.172028,309.324768 357.659302,305.772156 
	C359.711517,300.870117 361.959869,296.024231 364.530518,291.379120 
	C365.448242,289.720825 367.438843,287.929077 369.149475,287.688354 
	C370.320465,287.523560 372.294403,289.693604 373.144257,291.240295 
	C375.865906,296.193390 377.912781,301.540039 380.882935,306.323212 
	C382.162720,308.384277 384.886139,310.232971 387.274689,310.782135 
	C392.578308,312.001556 398.130981,312.104980 403.482727,313.165253 
	C405.332062,313.531647 407.389099,315.079315 408.363495,316.686310 
	C408.846375,317.482727 407.397369,319.919098 406.289764,321.123779 
	C402.913910,324.795532 399.576202,328.611664 395.663635,331.650665 
	C391.559540,334.838409 391.261627,338.530670 392.201416,343.008026 
	C393.188721,347.711609 394.015167,352.451782 394.796265,357.195038 
	C395.630280,362.259827 392.803040,364.473602 387.984558,362.344757 
	C384.651489,360.872253 381.536255,358.906738 377.987549,356.998718 
z"/>
</svg>