<svg version="1.1" id="Layer_1" xmlns="http://www.w3.org/2000/svg" xmlns:xlink="http://www.w3.org/1999/xlink" x="0px" y="0px"
	 width="100%" viewBox="0 0 512 512" enable-background="new 0 0 512 512" xml:space="preserve">
<path fill="#FFFFFF" opacity="1.000000" stroke="none" 
	d="
M269.000000,1.000000 
	C350.291412,1.000000 431.582794,1.000000 512.937134,1.000000 
	C512.937134,171.666656 512.937134,342.333344 512.937134,513.000000 
	C482.239075,513.000000 451.588196,513.000000 420.616943,512.694031 
	C425.819611,509.593719 427.899475,504.597992 427.927307,498.929962 
	C428.044098,475.138184 427.896149,451.345123 427.827576,427.111359 
	C427.872772,398.351654 427.977875,370.033051 427.951141,341.714569 
	C427.947266,337.616821 427.660309,333.454193 426.907776,329.433258 
	C423.147430,309.341339 412.265625,293.576324 393.878845,285.315063 
	C369.457916,274.342621 344.039185,265.590942 318.858063,255.564209 
	C310.483093,252.153229 302.299225,249.063095 294.072388,245.507812 
	C294.046478,235.367355 294.063538,225.692062 294.381592,215.872162 
	C296.477783,214.295593 298.343597,212.943085 300.056793,211.419006 
	C313.058563,199.852524 320.041412,185.213455 322.496582,168.036804 
	C330.076172,167.792282 336.539917,165.676392 342.388977,160.893982 
	C353.765045,149.981979 354.297974,134.614792 343.932434,125.319504 
	C343.973724,111.206848 343.931366,97.547516 344.017487,83.888992 
	C344.088104,72.685425 341.014008,62.215389 336.542053,52.138580 
	C330.706940,38.990189 321.976685,27.929157 310.587006,19.197338 
	C298.336853,9.805864 284.748352,3.256197 269.034546,1.660631 
	C268.988800,1.443551 269.000000,1.000000 269.000000,1.000000 
z"/>
<path fill="#FFFFFF" opacity="1.000000" stroke="none" 
	d="
M94.000000,513.000000 
	C63.016018,513.000000 32.032036,513.000000 1.024027,513.000000 
	C1.024027,342.437531 1.024027,171.875076 1.024027,1.000000 
	C81.353958,1.000000 161.708313,1.000000 242.363937,1.372617 
	C240.869202,1.957692 239.027420,1.983473 237.284241,2.411172 
	C217.548660,7.253413 200.756393,16.722214 187.683990,32.714432 
	C176.713821,46.134861 169.838577,61.322342 168.264481,78.335060 
	C166.893433,93.153038 167.466354,108.150879 166.996735,123.360359 
	C159.328140,131.260712 159.044556,144.530045 165.046707,152.642288 
	C171.329117,161.133347 180.032974,164.211426 189.997101,165.490356 
	C190.613312,177.280716 193.350708,188.250580 200.168930,197.268356 
	C205.916534,204.870132 213.412201,211.150208 220.082611,218.480515 
	C219.977631,227.957489 219.924118,236.969269 219.535690,246.133881 
	C211.117096,249.486588 203.033417,252.686462 194.573074,255.944214 
	C176.452530,262.960815 158.708633,269.919556 140.580292,276.932159 
	C124.694473,282.061127 110.043175,288.453979 99.596710,301.858612 
	C92.605446,310.829620 87.352409,320.804901 87.185822,332.123291 
	C86.724815,363.444580 87.115898,394.778412 87.111450,426.565765 
	C87.034706,450.827454 87.283195,474.635773 86.826111,498.430511 
	C86.699234,505.034882 88.886398,509.480743 94.000000,513.000000 
z"/>
<path fill="#00C3FF" opacity="1.000000" stroke="none" 
	d="
M140.964737,276.878296 
	C158.708633,269.919556 176.452530,262.960815 194.593201,256.333313 
	C196.924347,264.670898 200.907700,271.789001 207.434860,276.505127 
	C235.248306,296.601501 264.848511,298.710327 295.575592,283.656403 
	C307.336365,277.894562 316.241699,269.380463 319.049194,255.885071 
	C344.039185,265.590942 369.457916,274.342621 393.878845,285.315063 
	C412.265625,293.576324 423.147430,309.341339 426.907776,329.433258 
	C427.660309,333.454193 427.947266,337.616821 427.951141,341.714569 
	C427.977875,370.033051 427.872772,398.351654 427.550476,426.894806 
	C420.166351,426.860718 413.041809,426.602020 405.463562,426.245728 
	C396.544250,426.134613 388.078033,426.053558 379.613159,426.125122 
	C369.711975,426.208862 365.008087,430.968567 365.002411,440.791412 
	C364.988495,464.860931 364.999207,488.930481 365.000000,513.000000 
	C293.312439,513.000000 221.624878,513.000000 149.473724,512.531372 
	C149.010376,488.247437 149.046158,464.432129 148.992996,440.617004 
	C148.972290,431.339386 144.644012,426.768616 135.389450,426.403137 
	C129.571182,426.173370 123.734840,426.401337 117.934715,426.313965 
	C117.962822,426.203949 117.998657,425.979736 117.999763,425.512543 
	C118.000725,392.251038 117.962082,359.456635 118.016060,326.662415 
	C118.044601,309.323242 123.311615,294.092407 136.372284,282.067444 
	C138.062698,280.511078 139.441559,278.616302 140.964737,276.878296 
M330.638519,402.774353 
	C340.538757,394.840393 348.946411,385.896210 351.543457,372.828949 
	C353.636627,362.297028 350.060089,353.576294 341.821136,349.444733 
	C335.470947,346.260315 324.351166,346.415527 318.082977,355.927246 
	C316.381439,358.509247 314.468506,358.434021 312.054871,356.180725 
	C304.334412,345.501678 291.153168,344.339325 282.642975,353.502502 
	C277.153961,359.412689 276.822754,366.563171 278.595886,373.606750 
	C283.323761,392.388000 297.120850,403.220215 313.414459,411.541229 
	C314.383179,412.035950 316.156738,411.864563 317.129120,411.285980 
	C321.510956,408.678925 325.738861,405.813110 330.638519,402.774353 
z"/>
<path fill="#53596E" opacity="1.000000" stroke="none" 
	d="
M167.180313,123.069244 
	C167.466354,108.150879 166.893433,93.153038 168.264481,78.335060 
	C169.838577,61.322342 176.713821,46.134861 187.683990,32.714432 
	C200.756393,16.722214 217.548660,7.253413 237.284241,2.411172 
	C239.027420,1.983473 240.869202,1.957692 242.832596,1.372617 
	C251.354233,1.000000 259.708466,1.000000 268.531342,1.000000 
	C269.000000,1.000000 268.988800,1.443551 268.826965,1.971508 
	C267.287048,3.015897 265.938721,3.638867 264.526520,4.033063 
	C234.746338,12.346061 214.740967,31.189753 203.837326,60.012188 
	C198.473495,74.190804 198.899475,88.946190 198.529938,103.762108 
	C191.332626,104.319420 190.240524,105.670219 189.543472,113.955894 
	C187.338272,114.230827 185.366531,114.072395 183.802505,114.795654 
	C178.187256,117.392372 172.709839,120.287132 167.180313,123.069244 
z"/>
<path fill="#E4966F" opacity="1.000000" stroke="none" 
	d="
M365.468658,513.000000 
	C364.999207,488.930481 364.988495,464.860931 365.002411,440.791412 
	C365.008087,430.968567 369.711975,426.208862 379.613159,426.125122 
	C388.078033,426.053558 396.544250,426.134613 405.228210,426.458679 
	C399.570892,429.391571 396.788452,433.509338 396.876923,440.348938 
	C397.190063,464.562439 396.999603,488.782440 397.000000,513.000000 
	C386.645782,513.000000 376.291534,513.000000 365.468658,513.000000 
z"/>
<path fill="#E4966F" opacity="1.000000" stroke="none" 
	d="
M94.468658,513.000000 
	C88.886398,509.480743 86.699234,505.034882 86.826111,498.430511 
	C87.283195,474.635773 87.034706,450.827454 87.566383,426.564331 
	C98.052895,426.062866 108.025780,426.021301 117.998657,425.979736 
	C117.998657,425.979736 117.962822,426.203949 117.967110,426.753174 
	C117.980942,450.856171 117.985985,474.409943 118.003922,497.963715 
	C118.007393,502.518829 118.576447,506.839813 122.442696,510.041595 
	C123.235031,510.697784 123.494759,511.997131 124.000000,513.000000 
	C114.312439,513.000000 104.624878,513.000000 94.468658,513.000000 
z"/>
<path fill="#F0A479" opacity="1.000000" stroke="none" 
	d="
M397.468628,513.000000 
	C396.999603,488.782440 397.190063,464.562439 396.876923,440.348938 
	C396.788452,433.509338 399.570892,429.391571 405.681946,426.556274 
	C413.041809,426.602020 420.166351,426.860718 427.568024,427.335968 
	C427.896149,451.345123 428.044098,475.138184 427.927307,498.929962 
	C427.899475,504.597992 425.819611,509.593719 420.148285,512.694031 
	C412.645752,513.000000 405.291504,513.000000 397.468628,513.000000 
z"/>
<path fill="#F0A479" opacity="1.000000" stroke="none" 
	d="
M124.468643,513.000000 
	C123.494759,511.997131 123.235031,510.697784 122.442696,510.041595 
	C118.576447,506.839813 118.007393,502.518829 118.003922,497.963715 
	C117.985985,474.409943 117.980942,450.856171 117.939003,426.863190 
	C123.734840,426.401337 129.571182,426.173370 135.389450,426.403137 
	C144.644012,426.768616 148.972290,431.339386 148.992996,440.617004 
	C149.046158,464.432129 149.010376,488.247437 149.005066,512.531372 
	C140.979095,513.000000 132.958206,513.000000 124.468643,513.000000 
z"/>
<path fill="#F7B594" opacity="1.000000" stroke="none" 
	d="
M322.072205,168.067337 
	C320.041412,185.213455 313.058563,199.852524 300.056793,211.419006 
	C298.343597,212.943085 296.477783,214.295593 294.020264,215.900116 
	C289.540710,218.062057 285.765778,220.138443 281.896179,222.020096 
	C276.373566,224.705566 270.851257,225.736542 264.703583,223.398911 
	C236.134094,212.535629 221.789185,189.210815 221.093918,160.192749 
	C220.640106,141.252518 221.023407,122.292229 221.464081,103.264191 
	C226.000778,102.604408 230.136139,102.184296 234.204254,101.410690 
	C254.183975,97.611313 272.732635,90.105148 289.945984,79.343094 
	C294.034973,76.786606 297.197662,77.054199 300.451050,80.640381 
	C306.372711,87.167763 312.702698,93.337181 318.400635,100.047951 
	C320.276520,102.257271 321.098724,105.599533 321.718872,108.566666 
	C322.286987,111.284889 321.932739,114.195869 321.980469,117.488770 
	C321.975128,131.671890 321.968414,145.388138 321.977753,159.104401 
	C321.979767,162.092056 322.039215,165.079697 322.072205,168.067337 
z"/>
<path fill="#707487" opacity="1.000000" stroke="none" 
	d="
M321.984894,117.021919 
	C321.932739,114.195869 322.286987,111.284889 321.718872,108.566666 
	C321.098724,105.599533 320.276520,102.257271 318.400635,100.047951 
	C312.702698,93.337181 306.372711,87.167763 300.451050,80.640381 
	C297.197662,77.054199 294.034973,76.786606 289.945984,79.343094 
	C272.732635,90.105148 254.183975,97.611313 234.204254,101.410690 
	C230.136139,102.184296 226.000778,102.604408 221.037842,103.167831 
	C213.097610,103.329544 206.015945,103.510887 198.934280,103.692223 
	C198.899475,88.946190 198.473495,74.190804 203.837326,60.012188 
	C214.740967,31.189753 234.746338,12.346061 264.526520,4.033063 
	C265.938721,3.638867 267.287048,3.015897 268.872681,2.188588 
	C284.748352,3.256197 298.336853,9.805864 310.587006,19.197338 
	C321.976685,27.929157 330.706940,38.990189 336.542053,52.138580 
	C341.014008,62.215389 344.088104,72.685425 344.017487,83.888992 
	C343.931366,97.547516 343.973724,111.206848 343.665344,125.217636 
	C342.607605,124.958710 341.845032,124.347977 340.899963,123.456139 
	C335.257172,118.737526 328.995331,116.740181 321.984894,117.021919 
z"/>
<path fill="#F0A479" opacity="1.000000" stroke="none" 
	d="
M198.529938,103.762108 
	C206.015945,103.510887 213.097610,103.329544 220.605499,103.244560 
	C221.023407,122.292229 220.640106,141.252518 221.093918,160.192749 
	C221.789185,189.210815 236.134094,212.535629 264.703583,223.398911 
	C270.851257,225.736542 276.373566,224.705566 281.896179,222.020096 
	C285.765778,220.138443 289.540710,218.062057 293.719238,216.044708 
	C294.063538,225.692062 294.046478,235.367355 293.896790,245.800568 
	C282.374817,259.586273 268.266663,265.699371 250.901459,262.928650 
	C250.941345,250.753265 250.941345,239.076645 250.941345,228.761368 
	C239.941544,224.924469 230.037827,221.469894 220.134094,218.015320 
	C213.412201,211.150208 205.916534,204.870132 200.168930,197.268356 
	C193.350708,188.250580 190.613312,177.280716 190.002106,165.041962 
	C190.524918,159.550812 189.229904,155.841080 186.204453,152.023010 
	C180.283890,144.551346 179.867188,133.914795 185.688293,127.317276 
	C189.401245,123.109093 190.476654,119.010429 189.963974,113.927010 
	C190.240524,105.670219 191.332626,104.319420 198.529938,103.762108 
z"/>
<path fill="#01AAF0" opacity="1.000000" stroke="none" 
	d="
M250.861557,263.427399 
	C268.266663,265.699371 282.374817,259.586273 293.939789,246.265717 
	C302.299225,249.063095 310.483093,252.153229 318.858063,255.564209 
	C316.241699,269.380463 307.336365,277.894562 295.575592,283.656403 
	C264.848511,298.710327 235.248306,296.601501 207.434860,276.505127 
	C200.907700,271.789001 196.924347,264.670898 194.969864,256.275452 
	C203.033417,252.686462 211.117096,249.486588 219.702332,246.431885 
	C228.337341,255.988724 238.273041,262.121338 250.861557,263.427399 
z"/>
<path fill="#E5966E" opacity="1.000000" stroke="none" 
	d="
M321.980469,117.488770 
	C328.995331,116.740181 335.257172,118.737526 340.873169,123.949936 
	C341.019531,135.297195 340.966492,145.869904 341.049500,156.441528 
	C341.061554,157.976395 341.724762,159.506134 342.086670,161.038254 
	C336.539917,165.676392 330.076172,167.792282 322.496582,168.036804 
	C322.039215,165.079697 321.979767,162.092056 321.977753,159.104401 
	C321.968414,145.388138 321.975128,131.671890 321.980469,117.488770 
z"/>
<path fill="#F0A479" opacity="1.000000" stroke="none" 
	d="
M342.388977,160.893982 
	C341.724762,159.506134 341.061554,157.976395 341.049500,156.441528 
	C340.966492,145.869904 341.019531,135.297195 341.055664,124.231041 
	C341.845032,124.347977 342.607605,124.958710 343.637238,125.671310 
	C354.297974,134.614792 353.765045,149.981979 342.388977,160.893982 
z"/>
<path fill="#00AAF0" opacity="1.000000" stroke="none" 
	d="
M117.999763,425.512543 
	C108.025780,426.021301 98.052895,426.062866 87.625084,426.105835 
	C87.115898,394.778412 86.724815,363.444580 87.185822,332.123291 
	C87.352409,320.804901 92.605446,310.829620 99.596710,301.858612 
	C110.043175,288.453979 124.694473,282.061127 140.580292,276.932159 
	C139.441559,278.616302 138.062698,280.511078 136.372284,282.067444 
	C123.311615,294.092407 118.044601,309.323242 118.016060,326.662415 
	C117.962082,359.456635 118.000725,392.251038 117.999763,425.512543 
z"/>
<path fill="#E4966F" opacity="1.000000" stroke="none" 
	d="
M250.901459,262.928650 
	C238.273041,262.121338 228.337341,255.988724 220.037247,246.279053 
	C219.924118,236.969269 219.977631,227.957489 220.082611,218.480515 
	C230.037827,221.469894 239.941544,224.924469 250.941345,228.761368 
	C250.941345,239.076645 250.941345,250.753265 250.901459,262.928650 
z"/>
<path fill="#E5966E" opacity="1.000000" stroke="none" 
	d="
M189.543472,113.955894 
	C190.476654,119.010429 189.401245,123.109093 185.688293,127.317276 
	C179.867188,133.914795 180.283890,144.551346 186.204453,152.023010 
	C189.229904,155.841080 190.524918,159.550812 189.985809,164.609970 
	C180.032974,164.211426 171.329117,161.133347 165.046707,152.642288 
	C159.044556,144.530045 159.328140,131.260712 166.996735,123.360359 
	C172.709839,120.287132 178.187256,117.392372 183.802505,114.795654 
	C185.366531,114.072395 187.338272,114.230827 189.543472,113.955894 
z"/>
<path fill="#C54BC7" opacity="1.000000" stroke="none" 
	d="
M330.022278,403.040527 
	C325.738861,405.813110 321.510956,408.678925 317.129120,411.285980 
	C316.156738,411.864563 314.383179,412.035950 313.414459,411.541229 
	C297.120850,403.220215 283.323761,392.388000 278.595886,373.606750 
	C276.822754,366.563171 277.153961,359.412689 282.642975,353.502502 
	C291.153168,344.339325 304.334412,345.501678 311.819855,356.730225 
	C310.726318,359.392761 309.331268,361.450073 309.104889,363.628815 
	C308.254761,371.810669 310.045197,379.652924 314.942719,386.186371 
	C319.447327,392.195618 324.955933,397.452301 330.022278,403.040527 
z"/>
<path fill="#D466D3" opacity="1.000000" stroke="none" 
	d="
M330.330383,402.907410 
	C324.955933,397.452301 319.447327,392.195618 314.942719,386.186371 
	C310.045197,379.652924 308.254761,371.810669 309.104889,363.628815 
	C309.331268,361.450073 310.726318,359.392761 311.899902,357.066528 
	C314.468506,358.434021 316.381439,358.509247 318.082977,355.927246 
	C324.351166,346.415527 335.470947,346.260315 341.821136,349.444733 
	C350.060089,353.576294 353.636627,362.297028 351.543457,372.828949 
	C348.946411,385.896210 340.538757,394.840393 330.330383,402.907410 
z"/>
</svg>